%TF.GenerationSoftware,KiCad,Pcbnew,7.0.8*%
%TF.CreationDate,2024-11-10T08:48:31+09:00*%
%TF.ProjectId,cool937,636f6f6c-3933-4372-9e6b-696361645f70,rev?*%
%TF.SameCoordinates,Original*%
%TF.FileFunction,Legend,Top*%
%TF.FilePolarity,Positive*%
%FSLAX46Y46*%
G04 Gerber Fmt 4.6, Leading zero omitted, Abs format (unit mm)*
G04 Created by KiCad (PCBNEW 7.0.8) date 2024-11-10 08:48:31*
%MOMM*%
%LPD*%
G01*
G04 APERTURE LIST*
%ADD10C,0.150000*%
%ADD11C,0.125000*%
%ADD12O,2.200000X1.500000*%
%ADD13C,2.000000*%
%ADD14C,1.524000*%
%ADD15R,1.524000X1.524000*%
G04 APERTURE END LIST*
D10*
X50374819Y-137682381D02*
X49898628Y-138015714D01*
X50374819Y-138253809D02*
X49374819Y-138253809D01*
X49374819Y-138253809D02*
X49374819Y-137872857D01*
X49374819Y-137872857D02*
X49422438Y-137777619D01*
X49422438Y-137777619D02*
X49470057Y-137730000D01*
X49470057Y-137730000D02*
X49565295Y-137682381D01*
X49565295Y-137682381D02*
X49708152Y-137682381D01*
X49708152Y-137682381D02*
X49803390Y-137730000D01*
X49803390Y-137730000D02*
X49851009Y-137777619D01*
X49851009Y-137777619D02*
X49898628Y-137872857D01*
X49898628Y-137872857D02*
X49898628Y-138253809D01*
X49851009Y-137253809D02*
X49851009Y-136920476D01*
X50374819Y-136777619D02*
X50374819Y-137253809D01*
X50374819Y-137253809D02*
X49374819Y-137253809D01*
X49374819Y-137253809D02*
X49374819Y-136777619D01*
X50327200Y-136396666D02*
X50374819Y-136253809D01*
X50374819Y-136253809D02*
X50374819Y-136015714D01*
X50374819Y-136015714D02*
X50327200Y-135920476D01*
X50327200Y-135920476D02*
X50279580Y-135872857D01*
X50279580Y-135872857D02*
X50184342Y-135825238D01*
X50184342Y-135825238D02*
X50089104Y-135825238D01*
X50089104Y-135825238D02*
X49993866Y-135872857D01*
X49993866Y-135872857D02*
X49946247Y-135920476D01*
X49946247Y-135920476D02*
X49898628Y-136015714D01*
X49898628Y-136015714D02*
X49851009Y-136206190D01*
X49851009Y-136206190D02*
X49803390Y-136301428D01*
X49803390Y-136301428D02*
X49755771Y-136349047D01*
X49755771Y-136349047D02*
X49660533Y-136396666D01*
X49660533Y-136396666D02*
X49565295Y-136396666D01*
X49565295Y-136396666D02*
X49470057Y-136349047D01*
X49470057Y-136349047D02*
X49422438Y-136301428D01*
X49422438Y-136301428D02*
X49374819Y-136206190D01*
X49374819Y-136206190D02*
X49374819Y-135968095D01*
X49374819Y-135968095D02*
X49422438Y-135825238D01*
X49851009Y-135396666D02*
X49851009Y-135063333D01*
X50374819Y-134920476D02*
X50374819Y-135396666D01*
X50374819Y-135396666D02*
X49374819Y-135396666D01*
X49374819Y-135396666D02*
X49374819Y-134920476D01*
X49374819Y-134634761D02*
X49374819Y-134063333D01*
X50374819Y-134349047D02*
X49374819Y-134349047D01*
X155684819Y-123891904D02*
X155684819Y-123320476D01*
X156684819Y-123606190D02*
X155684819Y-123606190D01*
X156684819Y-122415714D02*
X156208628Y-122749047D01*
X156684819Y-122987142D02*
X155684819Y-122987142D01*
X155684819Y-122987142D02*
X155684819Y-122606190D01*
X155684819Y-122606190D02*
X155732438Y-122510952D01*
X155732438Y-122510952D02*
X155780057Y-122463333D01*
X155780057Y-122463333D02*
X155875295Y-122415714D01*
X155875295Y-122415714D02*
X156018152Y-122415714D01*
X156018152Y-122415714D02*
X156113390Y-122463333D01*
X156113390Y-122463333D02*
X156161009Y-122510952D01*
X156161009Y-122510952D02*
X156208628Y-122606190D01*
X156208628Y-122606190D02*
X156208628Y-122987142D01*
X156684819Y-121415714D02*
X156208628Y-121749047D01*
X156684819Y-121987142D02*
X155684819Y-121987142D01*
X155684819Y-121987142D02*
X155684819Y-121606190D01*
X155684819Y-121606190D02*
X155732438Y-121510952D01*
X155732438Y-121510952D02*
X155780057Y-121463333D01*
X155780057Y-121463333D02*
X155875295Y-121415714D01*
X155875295Y-121415714D02*
X156018152Y-121415714D01*
X156018152Y-121415714D02*
X156113390Y-121463333D01*
X156113390Y-121463333D02*
X156161009Y-121510952D01*
X156161009Y-121510952D02*
X156208628Y-121606190D01*
X156208628Y-121606190D02*
X156208628Y-121987142D01*
X156637200Y-121034761D02*
X156684819Y-120891904D01*
X156684819Y-120891904D02*
X156684819Y-120653809D01*
X156684819Y-120653809D02*
X156637200Y-120558571D01*
X156637200Y-120558571D02*
X156589580Y-120510952D01*
X156589580Y-120510952D02*
X156494342Y-120463333D01*
X156494342Y-120463333D02*
X156399104Y-120463333D01*
X156399104Y-120463333D02*
X156303866Y-120510952D01*
X156303866Y-120510952D02*
X156256247Y-120558571D01*
X156256247Y-120558571D02*
X156208628Y-120653809D01*
X156208628Y-120653809D02*
X156161009Y-120844285D01*
X156161009Y-120844285D02*
X156113390Y-120939523D01*
X156113390Y-120939523D02*
X156065771Y-120987142D01*
X156065771Y-120987142D02*
X155970533Y-121034761D01*
X155970533Y-121034761D02*
X155875295Y-121034761D01*
X155875295Y-121034761D02*
X155780057Y-120987142D01*
X155780057Y-120987142D02*
X155732438Y-120939523D01*
X155732438Y-120939523D02*
X155684819Y-120844285D01*
X155684819Y-120844285D02*
X155684819Y-120606190D01*
X155684819Y-120606190D02*
X155732438Y-120463333D01*
D11*
X60894178Y-151719313D02*
X60894178Y-151400266D01*
X61108464Y-151783123D02*
X60358464Y-151559790D01*
X60358464Y-151559790D02*
X61108464Y-151336456D01*
X60358464Y-151176932D02*
X60358464Y-150762170D01*
X60358464Y-150762170D02*
X60644178Y-150985504D01*
X60644178Y-150985504D02*
X60644178Y-150889789D01*
X60644178Y-150889789D02*
X60679892Y-150825980D01*
X60679892Y-150825980D02*
X60715607Y-150794075D01*
X60715607Y-150794075D02*
X60787035Y-150762170D01*
X60787035Y-150762170D02*
X60965607Y-150762170D01*
X60965607Y-150762170D02*
X61037035Y-150794075D01*
X61037035Y-150794075D02*
X61072750Y-150825980D01*
X61072750Y-150825980D02*
X61108464Y-150889789D01*
X61108464Y-150889789D02*
X61108464Y-151081218D01*
X61108464Y-151081218D02*
X61072750Y-151145027D01*
X61072750Y-151145027D02*
X61037035Y-151176932D01*
X60322750Y-149996456D02*
X61287035Y-150570742D01*
X60715607Y-149549789D02*
X60715607Y-149773123D01*
X61108464Y-149773123D02*
X60358464Y-149773123D01*
X60358464Y-149773123D02*
X60358464Y-149454075D01*
X60608464Y-148911694D02*
X61108464Y-148911694D01*
X60322750Y-149071218D02*
X60858464Y-149230741D01*
X60858464Y-149230741D02*
X60858464Y-148815980D01*
X66058464Y-160833123D02*
X65308464Y-160833123D01*
X65308464Y-160833123D02*
X65308464Y-160673599D01*
X65308464Y-160673599D02*
X65344178Y-160577885D01*
X65344178Y-160577885D02*
X65415607Y-160514075D01*
X65415607Y-160514075D02*
X65487035Y-160482170D01*
X65487035Y-160482170D02*
X65629892Y-160450266D01*
X65629892Y-160450266D02*
X65737035Y-160450266D01*
X65737035Y-160450266D02*
X65879892Y-160482170D01*
X65879892Y-160482170D02*
X65951321Y-160514075D01*
X65951321Y-160514075D02*
X66022750Y-160577885D01*
X66022750Y-160577885D02*
X66058464Y-160673599D01*
X66058464Y-160673599D02*
X66058464Y-160833123D01*
X65558464Y-159875980D02*
X66058464Y-159875980D01*
X65272750Y-160035504D02*
X65808464Y-160195027D01*
X65808464Y-160195027D02*
X65808464Y-159780266D01*
X65272750Y-159046456D02*
X66237035Y-159620742D01*
X65558464Y-158535980D02*
X66058464Y-158535980D01*
X65272750Y-158695504D02*
X65808464Y-158855027D01*
X65808464Y-158855027D02*
X65808464Y-158440266D01*
X53458464Y-160667171D02*
X52708464Y-160667171D01*
X52708464Y-160667171D02*
X52708464Y-160507647D01*
X52708464Y-160507647D02*
X52744178Y-160411933D01*
X52744178Y-160411933D02*
X52815607Y-160348123D01*
X52815607Y-160348123D02*
X52887035Y-160316218D01*
X52887035Y-160316218D02*
X53029892Y-160284314D01*
X53029892Y-160284314D02*
X53137035Y-160284314D01*
X53137035Y-160284314D02*
X53279892Y-160316218D01*
X53279892Y-160316218D02*
X53351321Y-160348123D01*
X53351321Y-160348123D02*
X53422750Y-160411933D01*
X53422750Y-160411933D02*
X53458464Y-160507647D01*
X53458464Y-160507647D02*
X53458464Y-160667171D01*
X52779892Y-160029075D02*
X52744178Y-159997171D01*
X52744178Y-159997171D02*
X52708464Y-159933361D01*
X52708464Y-159933361D02*
X52708464Y-159773837D01*
X52708464Y-159773837D02*
X52744178Y-159710028D01*
X52744178Y-159710028D02*
X52779892Y-159678123D01*
X52779892Y-159678123D02*
X52851321Y-159646218D01*
X52851321Y-159646218D02*
X52922750Y-159646218D01*
X52922750Y-159646218D02*
X53029892Y-159678123D01*
X53029892Y-159678123D02*
X53458464Y-160060980D01*
X53458464Y-160060980D02*
X53458464Y-159646218D01*
X52672750Y-158880504D02*
X53637035Y-159454790D01*
X53458464Y-158274314D02*
X53101321Y-158497647D01*
X53458464Y-158657171D02*
X52708464Y-158657171D01*
X52708464Y-158657171D02*
X52708464Y-158401933D01*
X52708464Y-158401933D02*
X52744178Y-158338123D01*
X52744178Y-158338123D02*
X52779892Y-158306218D01*
X52779892Y-158306218D02*
X52851321Y-158274314D01*
X52851321Y-158274314D02*
X52958464Y-158274314D01*
X52958464Y-158274314D02*
X53029892Y-158306218D01*
X53029892Y-158306218D02*
X53065607Y-158338123D01*
X53065607Y-158338123D02*
X53101321Y-158401933D01*
X53101321Y-158401933D02*
X53101321Y-158657171D01*
X52708464Y-158050980D02*
X53458464Y-157604314D01*
X52708464Y-157604314D02*
X53458464Y-158050980D01*
X53458464Y-156998123D02*
X53458464Y-157380980D01*
X53458464Y-157189552D02*
X52708464Y-157189552D01*
X52708464Y-157189552D02*
X52815607Y-157253361D01*
X52815607Y-157253361D02*
X52887035Y-157317171D01*
X52887035Y-157317171D02*
X52922750Y-157380980D01*
X52694178Y-150174075D02*
X52658464Y-150237885D01*
X52658464Y-150237885D02*
X52658464Y-150333599D01*
X52658464Y-150333599D02*
X52694178Y-150429313D01*
X52694178Y-150429313D02*
X52765607Y-150493123D01*
X52765607Y-150493123D02*
X52837035Y-150525028D01*
X52837035Y-150525028D02*
X52979892Y-150556932D01*
X52979892Y-150556932D02*
X53087035Y-150556932D01*
X53087035Y-150556932D02*
X53229892Y-150525028D01*
X53229892Y-150525028D02*
X53301321Y-150493123D01*
X53301321Y-150493123D02*
X53372750Y-150429313D01*
X53372750Y-150429313D02*
X53408464Y-150333599D01*
X53408464Y-150333599D02*
X53408464Y-150269790D01*
X53408464Y-150269790D02*
X53372750Y-150174075D01*
X53372750Y-150174075D02*
X53337035Y-150142171D01*
X53337035Y-150142171D02*
X53087035Y-150142171D01*
X53087035Y-150142171D02*
X53087035Y-150269790D01*
X53408464Y-149855028D02*
X52658464Y-149855028D01*
X52658464Y-149855028D02*
X53408464Y-149472171D01*
X53408464Y-149472171D02*
X52658464Y-149472171D01*
X53408464Y-149153123D02*
X52658464Y-149153123D01*
X52658464Y-149153123D02*
X52658464Y-148993599D01*
X52658464Y-148993599D02*
X52694178Y-148897885D01*
X52694178Y-148897885D02*
X52765607Y-148834075D01*
X52765607Y-148834075D02*
X52837035Y-148802170D01*
X52837035Y-148802170D02*
X52979892Y-148770266D01*
X52979892Y-148770266D02*
X53087035Y-148770266D01*
X53087035Y-148770266D02*
X53229892Y-148802170D01*
X53229892Y-148802170D02*
X53301321Y-148834075D01*
X53301321Y-148834075D02*
X53372750Y-148897885D01*
X53372750Y-148897885D02*
X53408464Y-148993599D01*
X53408464Y-148993599D02*
X53408464Y-149153123D01*
X73315607Y-160801218D02*
X73315607Y-160577884D01*
X73708464Y-160482170D02*
X73708464Y-160801218D01*
X73708464Y-160801218D02*
X72958464Y-160801218D01*
X72958464Y-160801218D02*
X72958464Y-160482170D01*
X72958464Y-159907885D02*
X72958464Y-160035504D01*
X72958464Y-160035504D02*
X72994178Y-160099313D01*
X72994178Y-160099313D02*
X73029892Y-160131218D01*
X73029892Y-160131218D02*
X73137035Y-160195028D01*
X73137035Y-160195028D02*
X73279892Y-160226932D01*
X73279892Y-160226932D02*
X73565607Y-160226932D01*
X73565607Y-160226932D02*
X73637035Y-160195028D01*
X73637035Y-160195028D02*
X73672750Y-160163123D01*
X73672750Y-160163123D02*
X73708464Y-160099313D01*
X73708464Y-160099313D02*
X73708464Y-159971694D01*
X73708464Y-159971694D02*
X73672750Y-159907885D01*
X73672750Y-159907885D02*
X73637035Y-159875980D01*
X73637035Y-159875980D02*
X73565607Y-159844075D01*
X73565607Y-159844075D02*
X73387035Y-159844075D01*
X73387035Y-159844075D02*
X73315607Y-159875980D01*
X73315607Y-159875980D02*
X73279892Y-159907885D01*
X73279892Y-159907885D02*
X73244178Y-159971694D01*
X73244178Y-159971694D02*
X73244178Y-160099313D01*
X73244178Y-160099313D02*
X73279892Y-160163123D01*
X73279892Y-160163123D02*
X73315607Y-160195028D01*
X73315607Y-160195028D02*
X73387035Y-160226932D01*
X72922750Y-159078361D02*
X73887035Y-159652647D01*
X72958464Y-158918837D02*
X72958464Y-158472171D01*
X72958464Y-158472171D02*
X73708464Y-158759313D01*
X68537035Y-160450266D02*
X68572750Y-160482170D01*
X68572750Y-160482170D02*
X68608464Y-160577885D01*
X68608464Y-160577885D02*
X68608464Y-160641694D01*
X68608464Y-160641694D02*
X68572750Y-160737408D01*
X68572750Y-160737408D02*
X68501321Y-160801218D01*
X68501321Y-160801218D02*
X68429892Y-160833123D01*
X68429892Y-160833123D02*
X68287035Y-160865027D01*
X68287035Y-160865027D02*
X68179892Y-160865027D01*
X68179892Y-160865027D02*
X68037035Y-160833123D01*
X68037035Y-160833123D02*
X67965607Y-160801218D01*
X67965607Y-160801218D02*
X67894178Y-160737408D01*
X67894178Y-160737408D02*
X67858464Y-160641694D01*
X67858464Y-160641694D02*
X67858464Y-160577885D01*
X67858464Y-160577885D02*
X67894178Y-160482170D01*
X67894178Y-160482170D02*
X67929892Y-160450266D01*
X67858464Y-159875980D02*
X67858464Y-160003599D01*
X67858464Y-160003599D02*
X67894178Y-160067408D01*
X67894178Y-160067408D02*
X67929892Y-160099313D01*
X67929892Y-160099313D02*
X68037035Y-160163123D01*
X68037035Y-160163123D02*
X68179892Y-160195027D01*
X68179892Y-160195027D02*
X68465607Y-160195027D01*
X68465607Y-160195027D02*
X68537035Y-160163123D01*
X68537035Y-160163123D02*
X68572750Y-160131218D01*
X68572750Y-160131218D02*
X68608464Y-160067408D01*
X68608464Y-160067408D02*
X68608464Y-159939789D01*
X68608464Y-159939789D02*
X68572750Y-159875980D01*
X68572750Y-159875980D02*
X68537035Y-159844075D01*
X68537035Y-159844075D02*
X68465607Y-159812170D01*
X68465607Y-159812170D02*
X68287035Y-159812170D01*
X68287035Y-159812170D02*
X68215607Y-159844075D01*
X68215607Y-159844075D02*
X68179892Y-159875980D01*
X68179892Y-159875980D02*
X68144178Y-159939789D01*
X68144178Y-159939789D02*
X68144178Y-160067408D01*
X68144178Y-160067408D02*
X68179892Y-160131218D01*
X68179892Y-160131218D02*
X68215607Y-160163123D01*
X68215607Y-160163123D02*
X68287035Y-160195027D01*
X67822750Y-159046456D02*
X68787035Y-159620742D01*
X67858464Y-158504075D02*
X67858464Y-158823123D01*
X67858464Y-158823123D02*
X68215607Y-158855027D01*
X68215607Y-158855027D02*
X68179892Y-158823123D01*
X68179892Y-158823123D02*
X68144178Y-158759313D01*
X68144178Y-158759313D02*
X68144178Y-158599789D01*
X68144178Y-158599789D02*
X68179892Y-158535980D01*
X68179892Y-158535980D02*
X68215607Y-158504075D01*
X68215607Y-158504075D02*
X68287035Y-158472170D01*
X68287035Y-158472170D02*
X68465607Y-158472170D01*
X68465607Y-158472170D02*
X68537035Y-158504075D01*
X68537035Y-158504075D02*
X68572750Y-158535980D01*
X68572750Y-158535980D02*
X68608464Y-158599789D01*
X68608464Y-158599789D02*
X68608464Y-158759313D01*
X68608464Y-158759313D02*
X68572750Y-158823123D01*
X68572750Y-158823123D02*
X68537035Y-158855027D01*
X47724178Y-160314075D02*
X47688464Y-160377885D01*
X47688464Y-160377885D02*
X47688464Y-160473599D01*
X47688464Y-160473599D02*
X47724178Y-160569313D01*
X47724178Y-160569313D02*
X47795607Y-160633123D01*
X47795607Y-160633123D02*
X47867035Y-160665028D01*
X47867035Y-160665028D02*
X48009892Y-160696932D01*
X48009892Y-160696932D02*
X48117035Y-160696932D01*
X48117035Y-160696932D02*
X48259892Y-160665028D01*
X48259892Y-160665028D02*
X48331321Y-160633123D01*
X48331321Y-160633123D02*
X48402750Y-160569313D01*
X48402750Y-160569313D02*
X48438464Y-160473599D01*
X48438464Y-160473599D02*
X48438464Y-160409790D01*
X48438464Y-160409790D02*
X48402750Y-160314075D01*
X48402750Y-160314075D02*
X48367035Y-160282171D01*
X48367035Y-160282171D02*
X48117035Y-160282171D01*
X48117035Y-160282171D02*
X48117035Y-160409790D01*
X48438464Y-159995028D02*
X47688464Y-159995028D01*
X47688464Y-159995028D02*
X48438464Y-159612171D01*
X48438464Y-159612171D02*
X47688464Y-159612171D01*
X48438464Y-159293123D02*
X47688464Y-159293123D01*
X47688464Y-159293123D02*
X47688464Y-159133599D01*
X47688464Y-159133599D02*
X47724178Y-159037885D01*
X47724178Y-159037885D02*
X47795607Y-158974075D01*
X47795607Y-158974075D02*
X47867035Y-158942170D01*
X47867035Y-158942170D02*
X48009892Y-158910266D01*
X48009892Y-158910266D02*
X48117035Y-158910266D01*
X48117035Y-158910266D02*
X48259892Y-158942170D01*
X48259892Y-158942170D02*
X48331321Y-158974075D01*
X48331321Y-158974075D02*
X48402750Y-159037885D01*
X48402750Y-159037885D02*
X48438464Y-159133599D01*
X48438464Y-159133599D02*
X48438464Y-159293123D01*
X63622750Y-160751218D02*
X63658464Y-160655504D01*
X63658464Y-160655504D02*
X63658464Y-160495980D01*
X63658464Y-160495980D02*
X63622750Y-160432171D01*
X63622750Y-160432171D02*
X63587035Y-160400266D01*
X63587035Y-160400266D02*
X63515607Y-160368361D01*
X63515607Y-160368361D02*
X63444178Y-160368361D01*
X63444178Y-160368361D02*
X63372750Y-160400266D01*
X63372750Y-160400266D02*
X63337035Y-160432171D01*
X63337035Y-160432171D02*
X63301321Y-160495980D01*
X63301321Y-160495980D02*
X63265607Y-160623599D01*
X63265607Y-160623599D02*
X63229892Y-160687409D01*
X63229892Y-160687409D02*
X63194178Y-160719314D01*
X63194178Y-160719314D02*
X63122750Y-160751218D01*
X63122750Y-160751218D02*
X63051321Y-160751218D01*
X63051321Y-160751218D02*
X62979892Y-160719314D01*
X62979892Y-160719314D02*
X62944178Y-160687409D01*
X62944178Y-160687409D02*
X62908464Y-160623599D01*
X62908464Y-160623599D02*
X62908464Y-160464076D01*
X62908464Y-160464076D02*
X62944178Y-160368361D01*
X63587035Y-159698362D02*
X63622750Y-159730266D01*
X63622750Y-159730266D02*
X63658464Y-159825981D01*
X63658464Y-159825981D02*
X63658464Y-159889790D01*
X63658464Y-159889790D02*
X63622750Y-159985504D01*
X63622750Y-159985504D02*
X63551321Y-160049314D01*
X63551321Y-160049314D02*
X63479892Y-160081219D01*
X63479892Y-160081219D02*
X63337035Y-160113123D01*
X63337035Y-160113123D02*
X63229892Y-160113123D01*
X63229892Y-160113123D02*
X63087035Y-160081219D01*
X63087035Y-160081219D02*
X63015607Y-160049314D01*
X63015607Y-160049314D02*
X62944178Y-159985504D01*
X62944178Y-159985504D02*
X62908464Y-159889790D01*
X62908464Y-159889790D02*
X62908464Y-159825981D01*
X62908464Y-159825981D02*
X62944178Y-159730266D01*
X62944178Y-159730266D02*
X62979892Y-159698362D01*
X63658464Y-159092171D02*
X63658464Y-159411219D01*
X63658464Y-159411219D02*
X62908464Y-159411219D01*
X62872750Y-158390266D02*
X63837035Y-158964552D01*
X63658464Y-158166933D02*
X62908464Y-158166933D01*
X62908464Y-158166933D02*
X62908464Y-158007409D01*
X62908464Y-158007409D02*
X62944178Y-157911695D01*
X62944178Y-157911695D02*
X63015607Y-157847885D01*
X63015607Y-157847885D02*
X63087035Y-157815980D01*
X63087035Y-157815980D02*
X63229892Y-157784076D01*
X63229892Y-157784076D02*
X63337035Y-157784076D01*
X63337035Y-157784076D02*
X63479892Y-157815980D01*
X63479892Y-157815980D02*
X63551321Y-157847885D01*
X63551321Y-157847885D02*
X63622750Y-157911695D01*
X63622750Y-157911695D02*
X63658464Y-158007409D01*
X63658464Y-158007409D02*
X63658464Y-158166933D01*
X62908464Y-157369314D02*
X62908464Y-157305504D01*
X62908464Y-157305504D02*
X62944178Y-157241695D01*
X62944178Y-157241695D02*
X62979892Y-157209790D01*
X62979892Y-157209790D02*
X63051321Y-157177885D01*
X63051321Y-157177885D02*
X63194178Y-157145980D01*
X63194178Y-157145980D02*
X63372750Y-157145980D01*
X63372750Y-157145980D02*
X63515607Y-157177885D01*
X63515607Y-157177885D02*
X63587035Y-157209790D01*
X63587035Y-157209790D02*
X63622750Y-157241695D01*
X63622750Y-157241695D02*
X63658464Y-157305504D01*
X63658464Y-157305504D02*
X63658464Y-157369314D01*
X63658464Y-157369314D02*
X63622750Y-157433123D01*
X63622750Y-157433123D02*
X63587035Y-157465028D01*
X63587035Y-157465028D02*
X63515607Y-157496933D01*
X63515607Y-157496933D02*
X63372750Y-157528837D01*
X63372750Y-157528837D02*
X63194178Y-157528837D01*
X63194178Y-157528837D02*
X63051321Y-157496933D01*
X63051321Y-157496933D02*
X62979892Y-157465028D01*
X62979892Y-157465028D02*
X62944178Y-157433123D01*
X62944178Y-157433123D02*
X62908464Y-157369314D01*
X62872750Y-156380266D02*
X63837035Y-156954552D01*
X62908464Y-156220742D02*
X62908464Y-155805980D01*
X62908464Y-155805980D02*
X63194178Y-156029314D01*
X63194178Y-156029314D02*
X63194178Y-155933599D01*
X63194178Y-155933599D02*
X63229892Y-155869790D01*
X63229892Y-155869790D02*
X63265607Y-155837885D01*
X63265607Y-155837885D02*
X63337035Y-155805980D01*
X63337035Y-155805980D02*
X63515607Y-155805980D01*
X63515607Y-155805980D02*
X63587035Y-155837885D01*
X63587035Y-155837885D02*
X63622750Y-155869790D01*
X63622750Y-155869790D02*
X63658464Y-155933599D01*
X63658464Y-155933599D02*
X63658464Y-156125028D01*
X63658464Y-156125028D02*
X63622750Y-156188837D01*
X63622750Y-156188837D02*
X63587035Y-156220742D01*
X57794178Y-160314075D02*
X57758464Y-160377885D01*
X57758464Y-160377885D02*
X57758464Y-160473599D01*
X57758464Y-160473599D02*
X57794178Y-160569313D01*
X57794178Y-160569313D02*
X57865607Y-160633123D01*
X57865607Y-160633123D02*
X57937035Y-160665028D01*
X57937035Y-160665028D02*
X58079892Y-160696932D01*
X58079892Y-160696932D02*
X58187035Y-160696932D01*
X58187035Y-160696932D02*
X58329892Y-160665028D01*
X58329892Y-160665028D02*
X58401321Y-160633123D01*
X58401321Y-160633123D02*
X58472750Y-160569313D01*
X58472750Y-160569313D02*
X58508464Y-160473599D01*
X58508464Y-160473599D02*
X58508464Y-160409790D01*
X58508464Y-160409790D02*
X58472750Y-160314075D01*
X58472750Y-160314075D02*
X58437035Y-160282171D01*
X58437035Y-160282171D02*
X58187035Y-160282171D01*
X58187035Y-160282171D02*
X58187035Y-160409790D01*
X58508464Y-159995028D02*
X57758464Y-159995028D01*
X57758464Y-159995028D02*
X58508464Y-159612171D01*
X58508464Y-159612171D02*
X57758464Y-159612171D01*
X58508464Y-159293123D02*
X57758464Y-159293123D01*
X57758464Y-159293123D02*
X57758464Y-159133599D01*
X57758464Y-159133599D02*
X57794178Y-159037885D01*
X57794178Y-159037885D02*
X57865607Y-158974075D01*
X57865607Y-158974075D02*
X57937035Y-158942170D01*
X57937035Y-158942170D02*
X58079892Y-158910266D01*
X58079892Y-158910266D02*
X58187035Y-158910266D01*
X58187035Y-158910266D02*
X58329892Y-158942170D01*
X58329892Y-158942170D02*
X58401321Y-158974075D01*
X58401321Y-158974075D02*
X58472750Y-159037885D01*
X58472750Y-159037885D02*
X58508464Y-159133599D01*
X58508464Y-159133599D02*
X58508464Y-159293123D01*
X71208464Y-151416218D02*
X71208464Y-151799075D01*
X71208464Y-151607647D02*
X70458464Y-151607647D01*
X70458464Y-151607647D02*
X70565607Y-151671456D01*
X70565607Y-151671456D02*
X70637035Y-151735266D01*
X70637035Y-151735266D02*
X70672750Y-151799075D01*
X70458464Y-150810028D02*
X70458464Y-151129076D01*
X70458464Y-151129076D02*
X70815607Y-151160980D01*
X70815607Y-151160980D02*
X70779892Y-151129076D01*
X70779892Y-151129076D02*
X70744178Y-151065266D01*
X70744178Y-151065266D02*
X70744178Y-150905742D01*
X70744178Y-150905742D02*
X70779892Y-150841933D01*
X70779892Y-150841933D02*
X70815607Y-150810028D01*
X70815607Y-150810028D02*
X70887035Y-150778123D01*
X70887035Y-150778123D02*
X71065607Y-150778123D01*
X71065607Y-150778123D02*
X71137035Y-150810028D01*
X71137035Y-150810028D02*
X71172750Y-150841933D01*
X71172750Y-150841933D02*
X71208464Y-150905742D01*
X71208464Y-150905742D02*
X71208464Y-151065266D01*
X71208464Y-151065266D02*
X71172750Y-151129076D01*
X71172750Y-151129076D02*
X71137035Y-151160980D01*
X70422750Y-150012409D02*
X71387035Y-150586695D01*
X70815607Y-149565742D02*
X70851321Y-149470028D01*
X70851321Y-149470028D02*
X70887035Y-149438123D01*
X70887035Y-149438123D02*
X70958464Y-149406219D01*
X70958464Y-149406219D02*
X71065607Y-149406219D01*
X71065607Y-149406219D02*
X71137035Y-149438123D01*
X71137035Y-149438123D02*
X71172750Y-149470028D01*
X71172750Y-149470028D02*
X71208464Y-149533838D01*
X71208464Y-149533838D02*
X71208464Y-149789076D01*
X71208464Y-149789076D02*
X70458464Y-149789076D01*
X70458464Y-149789076D02*
X70458464Y-149565742D01*
X70458464Y-149565742D02*
X70494178Y-149501933D01*
X70494178Y-149501933D02*
X70529892Y-149470028D01*
X70529892Y-149470028D02*
X70601321Y-149438123D01*
X70601321Y-149438123D02*
X70672750Y-149438123D01*
X70672750Y-149438123D02*
X70744178Y-149470028D01*
X70744178Y-149470028D02*
X70779892Y-149501933D01*
X70779892Y-149501933D02*
X70815607Y-149565742D01*
X70815607Y-149565742D02*
X70815607Y-149789076D01*
X71208464Y-148768123D02*
X71208464Y-149150980D01*
X71208464Y-148959552D02*
X70458464Y-148959552D01*
X70458464Y-148959552D02*
X70565607Y-149023361D01*
X70565607Y-149023361D02*
X70637035Y-149087171D01*
X70637035Y-149087171D02*
X70672750Y-149150980D01*
X55344178Y-160314075D02*
X55308464Y-160377885D01*
X55308464Y-160377885D02*
X55308464Y-160473599D01*
X55308464Y-160473599D02*
X55344178Y-160569313D01*
X55344178Y-160569313D02*
X55415607Y-160633123D01*
X55415607Y-160633123D02*
X55487035Y-160665028D01*
X55487035Y-160665028D02*
X55629892Y-160696932D01*
X55629892Y-160696932D02*
X55737035Y-160696932D01*
X55737035Y-160696932D02*
X55879892Y-160665028D01*
X55879892Y-160665028D02*
X55951321Y-160633123D01*
X55951321Y-160633123D02*
X56022750Y-160569313D01*
X56022750Y-160569313D02*
X56058464Y-160473599D01*
X56058464Y-160473599D02*
X56058464Y-160409790D01*
X56058464Y-160409790D02*
X56022750Y-160314075D01*
X56022750Y-160314075D02*
X55987035Y-160282171D01*
X55987035Y-160282171D02*
X55737035Y-160282171D01*
X55737035Y-160282171D02*
X55737035Y-160409790D01*
X56058464Y-159995028D02*
X55308464Y-159995028D01*
X55308464Y-159995028D02*
X56058464Y-159612171D01*
X56058464Y-159612171D02*
X55308464Y-159612171D01*
X56058464Y-159293123D02*
X55308464Y-159293123D01*
X55308464Y-159293123D02*
X55308464Y-159133599D01*
X55308464Y-159133599D02*
X55344178Y-159037885D01*
X55344178Y-159037885D02*
X55415607Y-158974075D01*
X55415607Y-158974075D02*
X55487035Y-158942170D01*
X55487035Y-158942170D02*
X55629892Y-158910266D01*
X55629892Y-158910266D02*
X55737035Y-158910266D01*
X55737035Y-158910266D02*
X55879892Y-158942170D01*
X55879892Y-158942170D02*
X55951321Y-158974075D01*
X55951321Y-158974075D02*
X56022750Y-159037885D01*
X56022750Y-159037885D02*
X56058464Y-159133599D01*
X56058464Y-159133599D02*
X56058464Y-159293123D01*
X76308464Y-151416218D02*
X76308464Y-151799075D01*
X76308464Y-151607647D02*
X75558464Y-151607647D01*
X75558464Y-151607647D02*
X75665607Y-151671456D01*
X75665607Y-151671456D02*
X75737035Y-151735266D01*
X75737035Y-151735266D02*
X75772750Y-151799075D01*
X75558464Y-150841933D02*
X75558464Y-150969552D01*
X75558464Y-150969552D02*
X75594178Y-151033361D01*
X75594178Y-151033361D02*
X75629892Y-151065266D01*
X75629892Y-151065266D02*
X75737035Y-151129076D01*
X75737035Y-151129076D02*
X75879892Y-151160980D01*
X75879892Y-151160980D02*
X76165607Y-151160980D01*
X76165607Y-151160980D02*
X76237035Y-151129076D01*
X76237035Y-151129076D02*
X76272750Y-151097171D01*
X76272750Y-151097171D02*
X76308464Y-151033361D01*
X76308464Y-151033361D02*
X76308464Y-150905742D01*
X76308464Y-150905742D02*
X76272750Y-150841933D01*
X76272750Y-150841933D02*
X76237035Y-150810028D01*
X76237035Y-150810028D02*
X76165607Y-150778123D01*
X76165607Y-150778123D02*
X75987035Y-150778123D01*
X75987035Y-150778123D02*
X75915607Y-150810028D01*
X75915607Y-150810028D02*
X75879892Y-150841933D01*
X75879892Y-150841933D02*
X75844178Y-150905742D01*
X75844178Y-150905742D02*
X75844178Y-151033361D01*
X75844178Y-151033361D02*
X75879892Y-151097171D01*
X75879892Y-151097171D02*
X75915607Y-151129076D01*
X75915607Y-151129076D02*
X75987035Y-151160980D01*
X75522750Y-150012409D02*
X76487035Y-150586695D01*
X75915607Y-149565742D02*
X75951321Y-149470028D01*
X75951321Y-149470028D02*
X75987035Y-149438123D01*
X75987035Y-149438123D02*
X76058464Y-149406219D01*
X76058464Y-149406219D02*
X76165607Y-149406219D01*
X76165607Y-149406219D02*
X76237035Y-149438123D01*
X76237035Y-149438123D02*
X76272750Y-149470028D01*
X76272750Y-149470028D02*
X76308464Y-149533838D01*
X76308464Y-149533838D02*
X76308464Y-149789076D01*
X76308464Y-149789076D02*
X75558464Y-149789076D01*
X75558464Y-149789076D02*
X75558464Y-149565742D01*
X75558464Y-149565742D02*
X75594178Y-149501933D01*
X75594178Y-149501933D02*
X75629892Y-149470028D01*
X75629892Y-149470028D02*
X75701321Y-149438123D01*
X75701321Y-149438123D02*
X75772750Y-149438123D01*
X75772750Y-149438123D02*
X75844178Y-149470028D01*
X75844178Y-149470028D02*
X75879892Y-149501933D01*
X75879892Y-149501933D02*
X75915607Y-149565742D01*
X75915607Y-149565742D02*
X75915607Y-149789076D01*
X75629892Y-149150980D02*
X75594178Y-149119076D01*
X75594178Y-149119076D02*
X75558464Y-149055266D01*
X75558464Y-149055266D02*
X75558464Y-148895742D01*
X75558464Y-148895742D02*
X75594178Y-148831933D01*
X75594178Y-148831933D02*
X75629892Y-148800028D01*
X75629892Y-148800028D02*
X75701321Y-148768123D01*
X75701321Y-148768123D02*
X75772750Y-148768123D01*
X75772750Y-148768123D02*
X75879892Y-148800028D01*
X75879892Y-148800028D02*
X76308464Y-149182885D01*
X76308464Y-149182885D02*
X76308464Y-148768123D01*
X73758464Y-151416218D02*
X73758464Y-151799075D01*
X73758464Y-151607647D02*
X73008464Y-151607647D01*
X73008464Y-151607647D02*
X73115607Y-151671456D01*
X73115607Y-151671456D02*
X73187035Y-151735266D01*
X73187035Y-151735266D02*
X73222750Y-151799075D01*
X73258464Y-150841933D02*
X73758464Y-150841933D01*
X72972750Y-151001457D02*
X73508464Y-151160980D01*
X73508464Y-151160980D02*
X73508464Y-150746219D01*
X72972750Y-150012409D02*
X73937035Y-150586695D01*
X73365607Y-149565742D02*
X73401321Y-149470028D01*
X73401321Y-149470028D02*
X73437035Y-149438123D01*
X73437035Y-149438123D02*
X73508464Y-149406219D01*
X73508464Y-149406219D02*
X73615607Y-149406219D01*
X73615607Y-149406219D02*
X73687035Y-149438123D01*
X73687035Y-149438123D02*
X73722750Y-149470028D01*
X73722750Y-149470028D02*
X73758464Y-149533838D01*
X73758464Y-149533838D02*
X73758464Y-149789076D01*
X73758464Y-149789076D02*
X73008464Y-149789076D01*
X73008464Y-149789076D02*
X73008464Y-149565742D01*
X73008464Y-149565742D02*
X73044178Y-149501933D01*
X73044178Y-149501933D02*
X73079892Y-149470028D01*
X73079892Y-149470028D02*
X73151321Y-149438123D01*
X73151321Y-149438123D02*
X73222750Y-149438123D01*
X73222750Y-149438123D02*
X73294178Y-149470028D01*
X73294178Y-149470028D02*
X73329892Y-149501933D01*
X73329892Y-149501933D02*
X73365607Y-149565742D01*
X73365607Y-149565742D02*
X73365607Y-149789076D01*
X73008464Y-149182885D02*
X73008464Y-148768123D01*
X73008464Y-148768123D02*
X73294178Y-148991457D01*
X73294178Y-148991457D02*
X73294178Y-148895742D01*
X73294178Y-148895742D02*
X73329892Y-148831933D01*
X73329892Y-148831933D02*
X73365607Y-148800028D01*
X73365607Y-148800028D02*
X73437035Y-148768123D01*
X73437035Y-148768123D02*
X73615607Y-148768123D01*
X73615607Y-148768123D02*
X73687035Y-148800028D01*
X73687035Y-148800028D02*
X73722750Y-148831933D01*
X73722750Y-148831933D02*
X73758464Y-148895742D01*
X73758464Y-148895742D02*
X73758464Y-149087171D01*
X73758464Y-149087171D02*
X73722750Y-149150980D01*
X73722750Y-149150980D02*
X73687035Y-149182885D01*
X57658464Y-150556933D02*
X58408464Y-150333600D01*
X58408464Y-150333600D02*
X57658464Y-150110266D01*
X58337035Y-149504076D02*
X58372750Y-149535980D01*
X58372750Y-149535980D02*
X58408464Y-149631695D01*
X58408464Y-149631695D02*
X58408464Y-149695504D01*
X58408464Y-149695504D02*
X58372750Y-149791218D01*
X58372750Y-149791218D02*
X58301321Y-149855028D01*
X58301321Y-149855028D02*
X58229892Y-149886933D01*
X58229892Y-149886933D02*
X58087035Y-149918837D01*
X58087035Y-149918837D02*
X57979892Y-149918837D01*
X57979892Y-149918837D02*
X57837035Y-149886933D01*
X57837035Y-149886933D02*
X57765607Y-149855028D01*
X57765607Y-149855028D02*
X57694178Y-149791218D01*
X57694178Y-149791218D02*
X57658464Y-149695504D01*
X57658464Y-149695504D02*
X57658464Y-149631695D01*
X57658464Y-149631695D02*
X57694178Y-149535980D01*
X57694178Y-149535980D02*
X57729892Y-149504076D01*
X58337035Y-148834076D02*
X58372750Y-148865980D01*
X58372750Y-148865980D02*
X58408464Y-148961695D01*
X58408464Y-148961695D02*
X58408464Y-149025504D01*
X58408464Y-149025504D02*
X58372750Y-149121218D01*
X58372750Y-149121218D02*
X58301321Y-149185028D01*
X58301321Y-149185028D02*
X58229892Y-149216933D01*
X58229892Y-149216933D02*
X58087035Y-149248837D01*
X58087035Y-149248837D02*
X57979892Y-149248837D01*
X57979892Y-149248837D02*
X57837035Y-149216933D01*
X57837035Y-149216933D02*
X57765607Y-149185028D01*
X57765607Y-149185028D02*
X57694178Y-149121218D01*
X57694178Y-149121218D02*
X57658464Y-149025504D01*
X57658464Y-149025504D02*
X57658464Y-148961695D01*
X57658464Y-148961695D02*
X57694178Y-148865980D01*
X57694178Y-148865980D02*
X57729892Y-148834076D01*
X65894178Y-151719313D02*
X65894178Y-151400266D01*
X66108464Y-151783123D02*
X65358464Y-151559790D01*
X65358464Y-151559790D02*
X66108464Y-151336456D01*
X66108464Y-150762170D02*
X66108464Y-151145027D01*
X66108464Y-150953599D02*
X65358464Y-150953599D01*
X65358464Y-150953599D02*
X65465607Y-151017408D01*
X65465607Y-151017408D02*
X65537035Y-151081218D01*
X65537035Y-151081218D02*
X65572750Y-151145027D01*
X65322750Y-149996456D02*
X66287035Y-150570742D01*
X65715607Y-149549789D02*
X65715607Y-149773123D01*
X66108464Y-149773123D02*
X65358464Y-149773123D01*
X65358464Y-149773123D02*
X65358464Y-149454075D01*
X65358464Y-148911694D02*
X65358464Y-149039313D01*
X65358464Y-149039313D02*
X65394178Y-149103122D01*
X65394178Y-149103122D02*
X65429892Y-149135027D01*
X65429892Y-149135027D02*
X65537035Y-149198837D01*
X65537035Y-149198837D02*
X65679892Y-149230741D01*
X65679892Y-149230741D02*
X65965607Y-149230741D01*
X65965607Y-149230741D02*
X66037035Y-149198837D01*
X66037035Y-149198837D02*
X66072750Y-149166932D01*
X66072750Y-149166932D02*
X66108464Y-149103122D01*
X66108464Y-149103122D02*
X66108464Y-148975503D01*
X66108464Y-148975503D02*
X66072750Y-148911694D01*
X66072750Y-148911694D02*
X66037035Y-148879789D01*
X66037035Y-148879789D02*
X65965607Y-148847884D01*
X65965607Y-148847884D02*
X65787035Y-148847884D01*
X65787035Y-148847884D02*
X65715607Y-148879789D01*
X65715607Y-148879789D02*
X65679892Y-148911694D01*
X65679892Y-148911694D02*
X65644178Y-148975503D01*
X65644178Y-148975503D02*
X65644178Y-149103122D01*
X65644178Y-149103122D02*
X65679892Y-149166932D01*
X65679892Y-149166932D02*
X65715607Y-149198837D01*
X65715607Y-149198837D02*
X65787035Y-149230741D01*
X63394178Y-151719313D02*
X63394178Y-151400266D01*
X63608464Y-151783123D02*
X62858464Y-151559790D01*
X62858464Y-151559790D02*
X63608464Y-151336456D01*
X62929892Y-151145027D02*
X62894178Y-151113123D01*
X62894178Y-151113123D02*
X62858464Y-151049313D01*
X62858464Y-151049313D02*
X62858464Y-150889789D01*
X62858464Y-150889789D02*
X62894178Y-150825980D01*
X62894178Y-150825980D02*
X62929892Y-150794075D01*
X62929892Y-150794075D02*
X63001321Y-150762170D01*
X63001321Y-150762170D02*
X63072750Y-150762170D01*
X63072750Y-150762170D02*
X63179892Y-150794075D01*
X63179892Y-150794075D02*
X63608464Y-151176932D01*
X63608464Y-151176932D02*
X63608464Y-150762170D01*
X62822750Y-149996456D02*
X63787035Y-150570742D01*
X63215607Y-149549789D02*
X63215607Y-149773123D01*
X63608464Y-149773123D02*
X62858464Y-149773123D01*
X62858464Y-149773123D02*
X62858464Y-149454075D01*
X62858464Y-148879789D02*
X62858464Y-149198837D01*
X62858464Y-149198837D02*
X63215607Y-149230741D01*
X63215607Y-149230741D02*
X63179892Y-149198837D01*
X63179892Y-149198837D02*
X63144178Y-149135027D01*
X63144178Y-149135027D02*
X63144178Y-148975503D01*
X63144178Y-148975503D02*
X63179892Y-148911694D01*
X63179892Y-148911694D02*
X63215607Y-148879789D01*
X63215607Y-148879789D02*
X63287035Y-148847884D01*
X63287035Y-148847884D02*
X63465607Y-148847884D01*
X63465607Y-148847884D02*
X63537035Y-148879789D01*
X63537035Y-148879789D02*
X63572750Y-148911694D01*
X63572750Y-148911694D02*
X63608464Y-148975503D01*
X63608464Y-148975503D02*
X63608464Y-149135027D01*
X63608464Y-149135027D02*
X63572750Y-149198837D01*
X63572750Y-149198837D02*
X63537035Y-149230741D01*
X50858464Y-150126219D02*
X50501321Y-150349552D01*
X50858464Y-150509076D02*
X50108464Y-150509076D01*
X50108464Y-150509076D02*
X50108464Y-150253838D01*
X50108464Y-150253838D02*
X50144178Y-150190028D01*
X50144178Y-150190028D02*
X50179892Y-150158123D01*
X50179892Y-150158123D02*
X50251321Y-150126219D01*
X50251321Y-150126219D02*
X50358464Y-150126219D01*
X50358464Y-150126219D02*
X50429892Y-150158123D01*
X50429892Y-150158123D02*
X50465607Y-150190028D01*
X50465607Y-150190028D02*
X50501321Y-150253838D01*
X50501321Y-150253838D02*
X50501321Y-150509076D01*
X50644178Y-149870980D02*
X50644178Y-149551933D01*
X50858464Y-149934790D02*
X50108464Y-149711457D01*
X50108464Y-149711457D02*
X50858464Y-149488123D01*
X50108464Y-149328599D02*
X50858464Y-149169075D01*
X50858464Y-149169075D02*
X50322750Y-149041456D01*
X50322750Y-149041456D02*
X50858464Y-148913837D01*
X50858464Y-148913837D02*
X50108464Y-148754314D01*
X55958464Y-150030504D02*
X55601321Y-150253837D01*
X55958464Y-150413361D02*
X55208464Y-150413361D01*
X55208464Y-150413361D02*
X55208464Y-150158123D01*
X55208464Y-150158123D02*
X55244178Y-150094313D01*
X55244178Y-150094313D02*
X55279892Y-150062408D01*
X55279892Y-150062408D02*
X55351321Y-150030504D01*
X55351321Y-150030504D02*
X55458464Y-150030504D01*
X55458464Y-150030504D02*
X55529892Y-150062408D01*
X55529892Y-150062408D02*
X55565607Y-150094313D01*
X55565607Y-150094313D02*
X55601321Y-150158123D01*
X55601321Y-150158123D02*
X55601321Y-150413361D01*
X55922750Y-149775265D02*
X55958464Y-149679551D01*
X55958464Y-149679551D02*
X55958464Y-149520027D01*
X55958464Y-149520027D02*
X55922750Y-149456218D01*
X55922750Y-149456218D02*
X55887035Y-149424313D01*
X55887035Y-149424313D02*
X55815607Y-149392408D01*
X55815607Y-149392408D02*
X55744178Y-149392408D01*
X55744178Y-149392408D02*
X55672750Y-149424313D01*
X55672750Y-149424313D02*
X55637035Y-149456218D01*
X55637035Y-149456218D02*
X55601321Y-149520027D01*
X55601321Y-149520027D02*
X55565607Y-149647646D01*
X55565607Y-149647646D02*
X55529892Y-149711456D01*
X55529892Y-149711456D02*
X55494178Y-149743361D01*
X55494178Y-149743361D02*
X55422750Y-149775265D01*
X55422750Y-149775265D02*
X55351321Y-149775265D01*
X55351321Y-149775265D02*
X55279892Y-149743361D01*
X55279892Y-149743361D02*
X55244178Y-149711456D01*
X55244178Y-149711456D02*
X55208464Y-149647646D01*
X55208464Y-149647646D02*
X55208464Y-149488123D01*
X55208464Y-149488123D02*
X55244178Y-149392408D01*
X55208464Y-149200980D02*
X55208464Y-148818123D01*
X55958464Y-149009551D02*
X55208464Y-149009551D01*
X78808464Y-151416218D02*
X78808464Y-151799075D01*
X78808464Y-151607647D02*
X78058464Y-151607647D01*
X78058464Y-151607647D02*
X78165607Y-151671456D01*
X78165607Y-151671456D02*
X78237035Y-151735266D01*
X78237035Y-151735266D02*
X78272750Y-151799075D01*
X78058464Y-151001457D02*
X78058464Y-150937647D01*
X78058464Y-150937647D02*
X78094178Y-150873838D01*
X78094178Y-150873838D02*
X78129892Y-150841933D01*
X78129892Y-150841933D02*
X78201321Y-150810028D01*
X78201321Y-150810028D02*
X78344178Y-150778123D01*
X78344178Y-150778123D02*
X78522750Y-150778123D01*
X78522750Y-150778123D02*
X78665607Y-150810028D01*
X78665607Y-150810028D02*
X78737035Y-150841933D01*
X78737035Y-150841933D02*
X78772750Y-150873838D01*
X78772750Y-150873838D02*
X78808464Y-150937647D01*
X78808464Y-150937647D02*
X78808464Y-151001457D01*
X78808464Y-151001457D02*
X78772750Y-151065266D01*
X78772750Y-151065266D02*
X78737035Y-151097171D01*
X78737035Y-151097171D02*
X78665607Y-151129076D01*
X78665607Y-151129076D02*
X78522750Y-151160980D01*
X78522750Y-151160980D02*
X78344178Y-151160980D01*
X78344178Y-151160980D02*
X78201321Y-151129076D01*
X78201321Y-151129076D02*
X78129892Y-151097171D01*
X78129892Y-151097171D02*
X78094178Y-151065266D01*
X78094178Y-151065266D02*
X78058464Y-151001457D01*
X78022750Y-150012409D02*
X78987035Y-150586695D01*
X78415607Y-149565742D02*
X78451321Y-149470028D01*
X78451321Y-149470028D02*
X78487035Y-149438123D01*
X78487035Y-149438123D02*
X78558464Y-149406219D01*
X78558464Y-149406219D02*
X78665607Y-149406219D01*
X78665607Y-149406219D02*
X78737035Y-149438123D01*
X78737035Y-149438123D02*
X78772750Y-149470028D01*
X78772750Y-149470028D02*
X78808464Y-149533838D01*
X78808464Y-149533838D02*
X78808464Y-149789076D01*
X78808464Y-149789076D02*
X78058464Y-149789076D01*
X78058464Y-149789076D02*
X78058464Y-149565742D01*
X78058464Y-149565742D02*
X78094178Y-149501933D01*
X78094178Y-149501933D02*
X78129892Y-149470028D01*
X78129892Y-149470028D02*
X78201321Y-149438123D01*
X78201321Y-149438123D02*
X78272750Y-149438123D01*
X78272750Y-149438123D02*
X78344178Y-149470028D01*
X78344178Y-149470028D02*
X78379892Y-149501933D01*
X78379892Y-149501933D02*
X78415607Y-149565742D01*
X78415607Y-149565742D02*
X78415607Y-149789076D01*
X78058464Y-148831933D02*
X78058464Y-148959552D01*
X78058464Y-148959552D02*
X78094178Y-149023361D01*
X78094178Y-149023361D02*
X78129892Y-149055266D01*
X78129892Y-149055266D02*
X78237035Y-149119076D01*
X78237035Y-149119076D02*
X78379892Y-149150980D01*
X78379892Y-149150980D02*
X78665607Y-149150980D01*
X78665607Y-149150980D02*
X78737035Y-149119076D01*
X78737035Y-149119076D02*
X78772750Y-149087171D01*
X78772750Y-149087171D02*
X78808464Y-149023361D01*
X78808464Y-149023361D02*
X78808464Y-148895742D01*
X78808464Y-148895742D02*
X78772750Y-148831933D01*
X78772750Y-148831933D02*
X78737035Y-148800028D01*
X78737035Y-148800028D02*
X78665607Y-148768123D01*
X78665607Y-148768123D02*
X78487035Y-148768123D01*
X78487035Y-148768123D02*
X78415607Y-148800028D01*
X78415607Y-148800028D02*
X78379892Y-148831933D01*
X78379892Y-148831933D02*
X78344178Y-148895742D01*
X78344178Y-148895742D02*
X78344178Y-149023361D01*
X78344178Y-149023361D02*
X78379892Y-149087171D01*
X78379892Y-149087171D02*
X78415607Y-149119076D01*
X78415607Y-149119076D02*
X78487035Y-149150980D01*
X78365607Y-160609789D02*
X78401321Y-160514075D01*
X78401321Y-160514075D02*
X78437035Y-160482170D01*
X78437035Y-160482170D02*
X78508464Y-160450266D01*
X78508464Y-160450266D02*
X78615607Y-160450266D01*
X78615607Y-160450266D02*
X78687035Y-160482170D01*
X78687035Y-160482170D02*
X78722750Y-160514075D01*
X78722750Y-160514075D02*
X78758464Y-160577885D01*
X78758464Y-160577885D02*
X78758464Y-160833123D01*
X78758464Y-160833123D02*
X78008464Y-160833123D01*
X78008464Y-160833123D02*
X78008464Y-160609789D01*
X78008464Y-160609789D02*
X78044178Y-160545980D01*
X78044178Y-160545980D02*
X78079892Y-160514075D01*
X78079892Y-160514075D02*
X78151321Y-160482170D01*
X78151321Y-160482170D02*
X78222750Y-160482170D01*
X78222750Y-160482170D02*
X78294178Y-160514075D01*
X78294178Y-160514075D02*
X78329892Y-160545980D01*
X78329892Y-160545980D02*
X78365607Y-160609789D01*
X78365607Y-160609789D02*
X78365607Y-160833123D01*
X78008464Y-159844075D02*
X78008464Y-160163123D01*
X78008464Y-160163123D02*
X78365607Y-160195027D01*
X78365607Y-160195027D02*
X78329892Y-160163123D01*
X78329892Y-160163123D02*
X78294178Y-160099313D01*
X78294178Y-160099313D02*
X78294178Y-159939789D01*
X78294178Y-159939789D02*
X78329892Y-159875980D01*
X78329892Y-159875980D02*
X78365607Y-159844075D01*
X78365607Y-159844075D02*
X78437035Y-159812170D01*
X78437035Y-159812170D02*
X78615607Y-159812170D01*
X78615607Y-159812170D02*
X78687035Y-159844075D01*
X78687035Y-159844075D02*
X78722750Y-159875980D01*
X78722750Y-159875980D02*
X78758464Y-159939789D01*
X78758464Y-159939789D02*
X78758464Y-160099313D01*
X78758464Y-160099313D02*
X78722750Y-160163123D01*
X78722750Y-160163123D02*
X78687035Y-160195027D01*
X77972750Y-159046456D02*
X78937035Y-159620742D01*
X78758464Y-158791218D02*
X78758464Y-158663599D01*
X78758464Y-158663599D02*
X78722750Y-158599789D01*
X78722750Y-158599789D02*
X78687035Y-158567885D01*
X78687035Y-158567885D02*
X78579892Y-158504075D01*
X78579892Y-158504075D02*
X78437035Y-158472170D01*
X78437035Y-158472170D02*
X78151321Y-158472170D01*
X78151321Y-158472170D02*
X78079892Y-158504075D01*
X78079892Y-158504075D02*
X78044178Y-158535980D01*
X78044178Y-158535980D02*
X78008464Y-158599789D01*
X78008464Y-158599789D02*
X78008464Y-158727408D01*
X78008464Y-158727408D02*
X78044178Y-158791218D01*
X78044178Y-158791218D02*
X78079892Y-158823123D01*
X78079892Y-158823123D02*
X78151321Y-158855027D01*
X78151321Y-158855027D02*
X78329892Y-158855027D01*
X78329892Y-158855027D02*
X78401321Y-158823123D01*
X78401321Y-158823123D02*
X78437035Y-158791218D01*
X78437035Y-158791218D02*
X78472750Y-158727408D01*
X78472750Y-158727408D02*
X78472750Y-158599789D01*
X78472750Y-158599789D02*
X78437035Y-158535980D01*
X78437035Y-158535980D02*
X78401321Y-158504075D01*
X78401321Y-158504075D02*
X78329892Y-158472170D01*
X50908464Y-160587409D02*
X50158464Y-160587409D01*
X50158464Y-160587409D02*
X50158464Y-160427885D01*
X50158464Y-160427885D02*
X50194178Y-160332171D01*
X50194178Y-160332171D02*
X50265607Y-160268361D01*
X50265607Y-160268361D02*
X50337035Y-160236456D01*
X50337035Y-160236456D02*
X50479892Y-160204552D01*
X50479892Y-160204552D02*
X50587035Y-160204552D01*
X50587035Y-160204552D02*
X50729892Y-160236456D01*
X50729892Y-160236456D02*
X50801321Y-160268361D01*
X50801321Y-160268361D02*
X50872750Y-160332171D01*
X50872750Y-160332171D02*
X50908464Y-160427885D01*
X50908464Y-160427885D02*
X50908464Y-160587409D01*
X50158464Y-159981218D02*
X50158464Y-159566456D01*
X50158464Y-159566456D02*
X50444178Y-159789790D01*
X50444178Y-159789790D02*
X50444178Y-159694075D01*
X50444178Y-159694075D02*
X50479892Y-159630266D01*
X50479892Y-159630266D02*
X50515607Y-159598361D01*
X50515607Y-159598361D02*
X50587035Y-159566456D01*
X50587035Y-159566456D02*
X50765607Y-159566456D01*
X50765607Y-159566456D02*
X50837035Y-159598361D01*
X50837035Y-159598361D02*
X50872750Y-159630266D01*
X50872750Y-159630266D02*
X50908464Y-159694075D01*
X50908464Y-159694075D02*
X50908464Y-159885504D01*
X50908464Y-159885504D02*
X50872750Y-159949313D01*
X50872750Y-159949313D02*
X50837035Y-159981218D01*
X50122750Y-158800742D02*
X51087035Y-159375028D01*
X50158464Y-158673123D02*
X50158464Y-158290266D01*
X50908464Y-158481694D02*
X50158464Y-158481694D01*
X50158464Y-158130742D02*
X50908464Y-157684076D01*
X50158464Y-157684076D02*
X50908464Y-158130742D01*
X50158464Y-157301219D02*
X50158464Y-157237409D01*
X50158464Y-157237409D02*
X50194178Y-157173600D01*
X50194178Y-157173600D02*
X50229892Y-157141695D01*
X50229892Y-157141695D02*
X50301321Y-157109790D01*
X50301321Y-157109790D02*
X50444178Y-157077885D01*
X50444178Y-157077885D02*
X50622750Y-157077885D01*
X50622750Y-157077885D02*
X50765607Y-157109790D01*
X50765607Y-157109790D02*
X50837035Y-157141695D01*
X50837035Y-157141695D02*
X50872750Y-157173600D01*
X50872750Y-157173600D02*
X50908464Y-157237409D01*
X50908464Y-157237409D02*
X50908464Y-157301219D01*
X50908464Y-157301219D02*
X50872750Y-157365028D01*
X50872750Y-157365028D02*
X50837035Y-157396933D01*
X50837035Y-157396933D02*
X50765607Y-157428838D01*
X50765607Y-157428838D02*
X50622750Y-157460742D01*
X50622750Y-157460742D02*
X50444178Y-157460742D01*
X50444178Y-157460742D02*
X50301321Y-157428838D01*
X50301321Y-157428838D02*
X50229892Y-157396933D01*
X50229892Y-157396933D02*
X50194178Y-157365028D01*
X50194178Y-157365028D02*
X50158464Y-157301219D01*
X61122750Y-160767170D02*
X61158464Y-160671456D01*
X61158464Y-160671456D02*
X61158464Y-160511932D01*
X61158464Y-160511932D02*
X61122750Y-160448123D01*
X61122750Y-160448123D02*
X61087035Y-160416218D01*
X61087035Y-160416218D02*
X61015607Y-160384313D01*
X61015607Y-160384313D02*
X60944178Y-160384313D01*
X60944178Y-160384313D02*
X60872750Y-160416218D01*
X60872750Y-160416218D02*
X60837035Y-160448123D01*
X60837035Y-160448123D02*
X60801321Y-160511932D01*
X60801321Y-160511932D02*
X60765607Y-160639551D01*
X60765607Y-160639551D02*
X60729892Y-160703361D01*
X60729892Y-160703361D02*
X60694178Y-160735266D01*
X60694178Y-160735266D02*
X60622750Y-160767170D01*
X60622750Y-160767170D02*
X60551321Y-160767170D01*
X60551321Y-160767170D02*
X60479892Y-160735266D01*
X60479892Y-160735266D02*
X60444178Y-160703361D01*
X60444178Y-160703361D02*
X60408464Y-160639551D01*
X60408464Y-160639551D02*
X60408464Y-160480028D01*
X60408464Y-160480028D02*
X60444178Y-160384313D01*
X61158464Y-160097171D02*
X60408464Y-160097171D01*
X60408464Y-160097171D02*
X60408464Y-159937647D01*
X60408464Y-159937647D02*
X60444178Y-159841933D01*
X60444178Y-159841933D02*
X60515607Y-159778123D01*
X60515607Y-159778123D02*
X60587035Y-159746218D01*
X60587035Y-159746218D02*
X60729892Y-159714314D01*
X60729892Y-159714314D02*
X60837035Y-159714314D01*
X60837035Y-159714314D02*
X60979892Y-159746218D01*
X60979892Y-159746218D02*
X61051321Y-159778123D01*
X61051321Y-159778123D02*
X61122750Y-159841933D01*
X61122750Y-159841933D02*
X61158464Y-159937647D01*
X61158464Y-159937647D02*
X61158464Y-160097171D01*
X60944178Y-159459075D02*
X60944178Y-159140028D01*
X61158464Y-159522885D02*
X60408464Y-159299552D01*
X60408464Y-159299552D02*
X61158464Y-159076218D01*
X60372750Y-158374313D02*
X61337035Y-158948599D01*
X61158464Y-158150980D02*
X60408464Y-158150980D01*
X60408464Y-158150980D02*
X60408464Y-157991456D01*
X60408464Y-157991456D02*
X60444178Y-157895742D01*
X60444178Y-157895742D02*
X60515607Y-157831932D01*
X60515607Y-157831932D02*
X60587035Y-157800027D01*
X60587035Y-157800027D02*
X60729892Y-157768123D01*
X60729892Y-157768123D02*
X60837035Y-157768123D01*
X60837035Y-157768123D02*
X60979892Y-157800027D01*
X60979892Y-157800027D02*
X61051321Y-157831932D01*
X61051321Y-157831932D02*
X61122750Y-157895742D01*
X61122750Y-157895742D02*
X61158464Y-157991456D01*
X61158464Y-157991456D02*
X61158464Y-158150980D01*
X61158464Y-157130027D02*
X61158464Y-157512884D01*
X61158464Y-157321456D02*
X60408464Y-157321456D01*
X60408464Y-157321456D02*
X60515607Y-157385265D01*
X60515607Y-157385265D02*
X60587035Y-157449075D01*
X60587035Y-157449075D02*
X60622750Y-157512884D01*
X60372750Y-156364313D02*
X61337035Y-156938599D01*
X60479892Y-156172884D02*
X60444178Y-156140980D01*
X60444178Y-156140980D02*
X60408464Y-156077170D01*
X60408464Y-156077170D02*
X60408464Y-155917646D01*
X60408464Y-155917646D02*
X60444178Y-155853837D01*
X60444178Y-155853837D02*
X60479892Y-155821932D01*
X60479892Y-155821932D02*
X60551321Y-155790027D01*
X60551321Y-155790027D02*
X60622750Y-155790027D01*
X60622750Y-155790027D02*
X60729892Y-155821932D01*
X60729892Y-155821932D02*
X61158464Y-156204789D01*
X61158464Y-156204789D02*
X61158464Y-155790027D01*
X68444178Y-151719313D02*
X68444178Y-151400266D01*
X68658464Y-151783123D02*
X67908464Y-151559790D01*
X67908464Y-151559790D02*
X68658464Y-151336456D01*
X67908464Y-150985504D02*
X67908464Y-150921694D01*
X67908464Y-150921694D02*
X67944178Y-150857885D01*
X67944178Y-150857885D02*
X67979892Y-150825980D01*
X67979892Y-150825980D02*
X68051321Y-150794075D01*
X68051321Y-150794075D02*
X68194178Y-150762170D01*
X68194178Y-150762170D02*
X68372750Y-150762170D01*
X68372750Y-150762170D02*
X68515607Y-150794075D01*
X68515607Y-150794075D02*
X68587035Y-150825980D01*
X68587035Y-150825980D02*
X68622750Y-150857885D01*
X68622750Y-150857885D02*
X68658464Y-150921694D01*
X68658464Y-150921694D02*
X68658464Y-150985504D01*
X68658464Y-150985504D02*
X68622750Y-151049313D01*
X68622750Y-151049313D02*
X68587035Y-151081218D01*
X68587035Y-151081218D02*
X68515607Y-151113123D01*
X68515607Y-151113123D02*
X68372750Y-151145027D01*
X68372750Y-151145027D02*
X68194178Y-151145027D01*
X68194178Y-151145027D02*
X68051321Y-151113123D01*
X68051321Y-151113123D02*
X67979892Y-151081218D01*
X67979892Y-151081218D02*
X67944178Y-151049313D01*
X67944178Y-151049313D02*
X67908464Y-150985504D01*
X67872750Y-149996456D02*
X68837035Y-150570742D01*
X68265607Y-149549789D02*
X68265607Y-149773123D01*
X68658464Y-149773123D02*
X67908464Y-149773123D01*
X67908464Y-149773123D02*
X67908464Y-149454075D01*
X67908464Y-149262646D02*
X67908464Y-148815980D01*
X67908464Y-148815980D02*
X68658464Y-149103122D01*
X48045607Y-150158123D02*
X48081321Y-150062409D01*
X48081321Y-150062409D02*
X48117035Y-150030504D01*
X48117035Y-150030504D02*
X48188464Y-149998600D01*
X48188464Y-149998600D02*
X48295607Y-149998600D01*
X48295607Y-149998600D02*
X48367035Y-150030504D01*
X48367035Y-150030504D02*
X48402750Y-150062409D01*
X48402750Y-150062409D02*
X48438464Y-150126219D01*
X48438464Y-150126219D02*
X48438464Y-150381457D01*
X48438464Y-150381457D02*
X47688464Y-150381457D01*
X47688464Y-150381457D02*
X47688464Y-150158123D01*
X47688464Y-150158123D02*
X47724178Y-150094314D01*
X47724178Y-150094314D02*
X47759892Y-150062409D01*
X47759892Y-150062409D02*
X47831321Y-150030504D01*
X47831321Y-150030504D02*
X47902750Y-150030504D01*
X47902750Y-150030504D02*
X47974178Y-150062409D01*
X47974178Y-150062409D02*
X48009892Y-150094314D01*
X48009892Y-150094314D02*
X48045607Y-150158123D01*
X48045607Y-150158123D02*
X48045607Y-150381457D01*
X48224178Y-149743361D02*
X48224178Y-149424314D01*
X48438464Y-149807171D02*
X47688464Y-149583838D01*
X47688464Y-149583838D02*
X48438464Y-149360504D01*
X47688464Y-149232885D02*
X47688464Y-148850028D01*
X48438464Y-149041456D02*
X47688464Y-149041456D01*
X71158464Y-160833123D02*
X70408464Y-160833123D01*
X70408464Y-160833123D02*
X70408464Y-160673599D01*
X70408464Y-160673599D02*
X70444178Y-160577885D01*
X70444178Y-160577885D02*
X70515607Y-160514075D01*
X70515607Y-160514075D02*
X70587035Y-160482170D01*
X70587035Y-160482170D02*
X70729892Y-160450266D01*
X70729892Y-160450266D02*
X70837035Y-160450266D01*
X70837035Y-160450266D02*
X70979892Y-160482170D01*
X70979892Y-160482170D02*
X71051321Y-160514075D01*
X71051321Y-160514075D02*
X71122750Y-160577885D01*
X71122750Y-160577885D02*
X71158464Y-160673599D01*
X71158464Y-160673599D02*
X71158464Y-160833123D01*
X70408464Y-160226932D02*
X70408464Y-159780266D01*
X70408464Y-159780266D02*
X71158464Y-160067408D01*
X70372750Y-159046456D02*
X71337035Y-159620742D01*
X70408464Y-158535980D02*
X70408464Y-158663599D01*
X70408464Y-158663599D02*
X70444178Y-158727408D01*
X70444178Y-158727408D02*
X70479892Y-158759313D01*
X70479892Y-158759313D02*
X70587035Y-158823123D01*
X70587035Y-158823123D02*
X70729892Y-158855027D01*
X70729892Y-158855027D02*
X71015607Y-158855027D01*
X71015607Y-158855027D02*
X71087035Y-158823123D01*
X71087035Y-158823123D02*
X71122750Y-158791218D01*
X71122750Y-158791218D02*
X71158464Y-158727408D01*
X71158464Y-158727408D02*
X71158464Y-158599789D01*
X71158464Y-158599789D02*
X71122750Y-158535980D01*
X71122750Y-158535980D02*
X71087035Y-158504075D01*
X71087035Y-158504075D02*
X71015607Y-158472170D01*
X71015607Y-158472170D02*
X70837035Y-158472170D01*
X70837035Y-158472170D02*
X70765607Y-158504075D01*
X70765607Y-158504075D02*
X70729892Y-158535980D01*
X70729892Y-158535980D02*
X70694178Y-158599789D01*
X70694178Y-158599789D02*
X70694178Y-158727408D01*
X70694178Y-158727408D02*
X70729892Y-158791218D01*
X70729892Y-158791218D02*
X70765607Y-158823123D01*
X70765607Y-158823123D02*
X70837035Y-158855027D01*
X75865607Y-160609789D02*
X75901321Y-160514075D01*
X75901321Y-160514075D02*
X75937035Y-160482170D01*
X75937035Y-160482170D02*
X76008464Y-160450266D01*
X76008464Y-160450266D02*
X76115607Y-160450266D01*
X76115607Y-160450266D02*
X76187035Y-160482170D01*
X76187035Y-160482170D02*
X76222750Y-160514075D01*
X76222750Y-160514075D02*
X76258464Y-160577885D01*
X76258464Y-160577885D02*
X76258464Y-160833123D01*
X76258464Y-160833123D02*
X75508464Y-160833123D01*
X75508464Y-160833123D02*
X75508464Y-160609789D01*
X75508464Y-160609789D02*
X75544178Y-160545980D01*
X75544178Y-160545980D02*
X75579892Y-160514075D01*
X75579892Y-160514075D02*
X75651321Y-160482170D01*
X75651321Y-160482170D02*
X75722750Y-160482170D01*
X75722750Y-160482170D02*
X75794178Y-160514075D01*
X75794178Y-160514075D02*
X75829892Y-160545980D01*
X75829892Y-160545980D02*
X75865607Y-160609789D01*
X75865607Y-160609789D02*
X75865607Y-160833123D01*
X75758464Y-159875980D02*
X76258464Y-159875980D01*
X75472750Y-160035504D02*
X76008464Y-160195027D01*
X76008464Y-160195027D02*
X76008464Y-159780266D01*
X75472750Y-159046456D02*
X76437035Y-159620742D01*
X75829892Y-158727408D02*
X75794178Y-158791218D01*
X75794178Y-158791218D02*
X75758464Y-158823123D01*
X75758464Y-158823123D02*
X75687035Y-158855027D01*
X75687035Y-158855027D02*
X75651321Y-158855027D01*
X75651321Y-158855027D02*
X75579892Y-158823123D01*
X75579892Y-158823123D02*
X75544178Y-158791218D01*
X75544178Y-158791218D02*
X75508464Y-158727408D01*
X75508464Y-158727408D02*
X75508464Y-158599789D01*
X75508464Y-158599789D02*
X75544178Y-158535980D01*
X75544178Y-158535980D02*
X75579892Y-158504075D01*
X75579892Y-158504075D02*
X75651321Y-158472170D01*
X75651321Y-158472170D02*
X75687035Y-158472170D01*
X75687035Y-158472170D02*
X75758464Y-158504075D01*
X75758464Y-158504075D02*
X75794178Y-158535980D01*
X75794178Y-158535980D02*
X75829892Y-158599789D01*
X75829892Y-158599789D02*
X75829892Y-158727408D01*
X75829892Y-158727408D02*
X75865607Y-158791218D01*
X75865607Y-158791218D02*
X75901321Y-158823123D01*
X75901321Y-158823123D02*
X75972750Y-158855027D01*
X75972750Y-158855027D02*
X76115607Y-158855027D01*
X76115607Y-158855027D02*
X76187035Y-158823123D01*
X76187035Y-158823123D02*
X76222750Y-158791218D01*
X76222750Y-158791218D02*
X76258464Y-158727408D01*
X76258464Y-158727408D02*
X76258464Y-158599789D01*
X76258464Y-158599789D02*
X76222750Y-158535980D01*
X76222750Y-158535980D02*
X76187035Y-158504075D01*
X76187035Y-158504075D02*
X76115607Y-158472170D01*
X76115607Y-158472170D02*
X75972750Y-158472170D01*
X75972750Y-158472170D02*
X75901321Y-158504075D01*
X75901321Y-158504075D02*
X75865607Y-158535980D01*
X75865607Y-158535980D02*
X75829892Y-158599789D01*
D10*
%TO.C,D14*%
X122020000Y-124210000D02*
X122020000Y-125710000D01*
X122020000Y-125710000D02*
X127420000Y-125710000D01*
X124220000Y-124460000D02*
X124220000Y-125460000D01*
X124320000Y-124960000D02*
X125220000Y-124460000D01*
X125220000Y-124460000D02*
X125220000Y-125460000D01*
X125220000Y-125460000D02*
X124320000Y-124960000D01*
X127420000Y-124210000D02*
X122020000Y-124210000D01*
X127420000Y-124210000D02*
X127420000Y-125710000D01*
%TO.C,D15*%
X140230000Y-124140000D02*
X140230000Y-125640000D01*
X140230000Y-125640000D02*
X145630000Y-125640000D01*
X142430000Y-124390000D02*
X142430000Y-125390000D01*
X142530000Y-124890000D02*
X143430000Y-124390000D01*
X143430000Y-124390000D02*
X143430000Y-125390000D01*
X143430000Y-125390000D02*
X142530000Y-124890000D01*
X145630000Y-124140000D02*
X140230000Y-124140000D01*
X145630000Y-124140000D02*
X145630000Y-125640000D01*
%TO.C,D21*%
X67280000Y-143350000D02*
X67280000Y-144850000D01*
X67280000Y-144850000D02*
X72680000Y-144850000D01*
X69480000Y-143600000D02*
X69480000Y-144600000D01*
X69580000Y-144100000D02*
X70480000Y-143600000D01*
X70480000Y-143600000D02*
X70480000Y-144600000D01*
X70480000Y-144600000D02*
X69580000Y-144100000D01*
X72680000Y-143350000D02*
X67280000Y-143350000D01*
X72680000Y-143350000D02*
X72680000Y-144850000D01*
%TO.C,D13*%
X102990000Y-124280000D02*
X102990000Y-125780000D01*
X102990000Y-125780000D02*
X108390000Y-125780000D01*
X105190000Y-124530000D02*
X105190000Y-125530000D01*
X105290000Y-125030000D02*
X106190000Y-124530000D01*
X106190000Y-124530000D02*
X106190000Y-125530000D01*
X106190000Y-125530000D02*
X105290000Y-125030000D01*
X108390000Y-124280000D02*
X102990000Y-124280000D01*
X108390000Y-124280000D02*
X108390000Y-125780000D01*
%TO.C,SW41*%
X51670000Y-133230000D02*
X51420000Y-133230000D01*
X51670000Y-133230000D02*
X51670000Y-139230000D01*
X48170000Y-133230000D02*
X48420000Y-133230000D01*
X48170000Y-133230000D02*
X48170000Y-139230000D01*
X51670000Y-139230000D02*
X51420000Y-139230000D01*
X48170000Y-139230000D02*
X48420000Y-139230000D01*
%TO.C,D25*%
X150650000Y-143280000D02*
X150650000Y-144780000D01*
X150650000Y-144780000D02*
X156050000Y-144780000D01*
X152850000Y-143530000D02*
X152850000Y-144530000D01*
X152950000Y-144030000D02*
X153850000Y-143530000D01*
X153850000Y-143530000D02*
X153850000Y-144530000D01*
X153850000Y-144530000D02*
X152950000Y-144030000D01*
X156050000Y-143280000D02*
X150650000Y-143280000D01*
X156050000Y-143280000D02*
X156050000Y-144780000D01*
%TO.C,D34*%
X141080000Y-162390000D02*
X141080000Y-163890000D01*
X141080000Y-163890000D02*
X146480000Y-163890000D01*
X143280000Y-162640000D02*
X143280000Y-163640000D01*
X143380000Y-163140000D02*
X144280000Y-162640000D01*
X144280000Y-162640000D02*
X144280000Y-163640000D01*
X144280000Y-163640000D02*
X143380000Y-163140000D01*
X146480000Y-162390000D02*
X141080000Y-162390000D01*
X146480000Y-162390000D02*
X146480000Y-163890000D01*
%TO.C,D24*%
X131635000Y-143400000D02*
X131635000Y-144900000D01*
X131635000Y-144900000D02*
X137035000Y-144900000D01*
X133835000Y-143650000D02*
X133835000Y-144650000D01*
X133935000Y-144150000D02*
X134835000Y-143650000D01*
X134835000Y-143650000D02*
X134835000Y-144650000D01*
X134835000Y-144650000D02*
X133935000Y-144150000D01*
X137035000Y-143400000D02*
X131635000Y-143400000D01*
X137035000Y-143400000D02*
X137035000Y-144900000D01*
%TO.C,D12*%
X83850000Y-124170000D02*
X83850000Y-125670000D01*
X83850000Y-125670000D02*
X89250000Y-125670000D01*
X86050000Y-124420000D02*
X86050000Y-125420000D01*
X86150000Y-124920000D02*
X87050000Y-124420000D01*
X87050000Y-124420000D02*
X87050000Y-125420000D01*
X87050000Y-125420000D02*
X86150000Y-124920000D01*
X89250000Y-124170000D02*
X83850000Y-124170000D01*
X89250000Y-124170000D02*
X89250000Y-125670000D01*
%TO.C,D11*%
X62500000Y-124240000D02*
X62500000Y-125740000D01*
X62500000Y-125740000D02*
X67900000Y-125740000D01*
X64700000Y-124490000D02*
X64700000Y-125490000D01*
X64800000Y-124990000D02*
X65700000Y-124490000D01*
X65700000Y-124490000D02*
X65700000Y-125490000D01*
X65700000Y-125490000D02*
X64800000Y-124990000D01*
X67900000Y-124240000D02*
X62500000Y-124240000D01*
X67900000Y-124240000D02*
X67900000Y-125740000D01*
%TO.C,D5*%
X136350000Y-105190000D02*
X136350000Y-106690000D01*
X136350000Y-106690000D02*
X141750000Y-106690000D01*
X138550000Y-105440000D02*
X138550000Y-106440000D01*
X138650000Y-105940000D02*
X139550000Y-105440000D01*
X139550000Y-105440000D02*
X139550000Y-106440000D01*
X139550000Y-106440000D02*
X138650000Y-105940000D01*
X141750000Y-105190000D02*
X136350000Y-105190000D01*
X141750000Y-105190000D02*
X141750000Y-106690000D01*
%TO.C,D1*%
X60170000Y-105280000D02*
X60170000Y-106780000D01*
X60170000Y-106780000D02*
X65570000Y-106780000D01*
X62370000Y-105530000D02*
X62370000Y-106530000D01*
X62470000Y-106030000D02*
X63370000Y-105530000D01*
X63370000Y-105530000D02*
X63370000Y-106530000D01*
X63370000Y-106530000D02*
X62470000Y-106030000D01*
X65570000Y-105280000D02*
X60170000Y-105280000D01*
X65570000Y-105280000D02*
X65570000Y-106780000D01*
%TO.C,D33*%
X117290000Y-162330000D02*
X117290000Y-163830000D01*
X117290000Y-163830000D02*
X122690000Y-163830000D01*
X119490000Y-162580000D02*
X119490000Y-163580000D01*
X119590000Y-163080000D02*
X120490000Y-162580000D01*
X120490000Y-162580000D02*
X120490000Y-163580000D01*
X120490000Y-163580000D02*
X119590000Y-163080000D01*
X122690000Y-162330000D02*
X117290000Y-162330000D01*
X122690000Y-162330000D02*
X122690000Y-163830000D01*
%TO.C,D23*%
X111840000Y-143260000D02*
X111840000Y-144760000D01*
X111840000Y-144760000D02*
X117240000Y-144760000D01*
X114040000Y-143510000D02*
X114040000Y-144510000D01*
X114140000Y-144010000D02*
X115040000Y-143510000D01*
X115040000Y-143510000D02*
X115040000Y-144510000D01*
X115040000Y-144510000D02*
X114140000Y-144010000D01*
X117240000Y-143260000D02*
X111840000Y-143260000D01*
X117240000Y-143260000D02*
X117240000Y-144760000D01*
%TO.C,D32*%
X98230000Y-162300000D02*
X98230000Y-163800000D01*
X98230000Y-163800000D02*
X103630000Y-163800000D01*
X100430000Y-162550000D02*
X100430000Y-163550000D01*
X100530000Y-163050000D02*
X101430000Y-162550000D01*
X101430000Y-162550000D02*
X101430000Y-163550000D01*
X101430000Y-163550000D02*
X100530000Y-163050000D01*
X103630000Y-162300000D02*
X98230000Y-162300000D01*
X103630000Y-162300000D02*
X103630000Y-163800000D01*
%TO.C,D3*%
X97635000Y-105220000D02*
X97635000Y-106720000D01*
X97635000Y-106720000D02*
X103035000Y-106720000D01*
X99835000Y-105470000D02*
X99835000Y-106470000D01*
X99935000Y-105970000D02*
X100835000Y-105470000D01*
X100835000Y-105470000D02*
X100835000Y-106470000D01*
X100835000Y-106470000D02*
X99935000Y-105970000D01*
X103035000Y-105220000D02*
X97635000Y-105220000D01*
X103035000Y-105220000D02*
X103035000Y-106720000D01*
%TO.C,D4*%
X103830000Y-105250000D02*
X103830000Y-106750000D01*
X103830000Y-106750000D02*
X109230000Y-106750000D01*
X106030000Y-105500000D02*
X106030000Y-106500000D01*
X106130000Y-106000000D02*
X107030000Y-105500000D01*
X107030000Y-105500000D02*
X107030000Y-106500000D01*
X107030000Y-106500000D02*
X106130000Y-106000000D01*
X109230000Y-105250000D02*
X103830000Y-105250000D01*
X109230000Y-105250000D02*
X109230000Y-106750000D01*
%TO.C,D22*%
X93625000Y-143390000D02*
X93625000Y-144890000D01*
X93625000Y-144890000D02*
X99025000Y-144890000D01*
X95825000Y-143640000D02*
X95825000Y-144640000D01*
X95925000Y-144140000D02*
X96825000Y-143640000D01*
X96825000Y-143640000D02*
X96825000Y-144640000D01*
X96825000Y-144640000D02*
X95925000Y-144140000D01*
X99025000Y-143390000D02*
X93625000Y-143390000D01*
X99025000Y-143390000D02*
X99025000Y-144890000D01*
%TO.C,J1*%
X162530000Y-119980000D02*
X162530000Y-125780000D01*
X150780000Y-119980000D02*
X162530000Y-119980000D01*
X162530000Y-125780000D02*
X150780000Y-125780000D01*
X150780000Y-125780000D02*
X150780000Y-119980000D01*
%TO.C,D2*%
X66910000Y-105210000D02*
X66910000Y-106710000D01*
X66910000Y-106710000D02*
X72310000Y-106710000D01*
X69110000Y-105460000D02*
X69110000Y-106460000D01*
X69210000Y-105960000D02*
X70110000Y-105460000D01*
X70110000Y-105460000D02*
X70110000Y-106460000D01*
X70110000Y-106460000D02*
X69210000Y-105960000D01*
X72310000Y-105210000D02*
X66910000Y-105210000D01*
X72310000Y-105210000D02*
X72310000Y-106710000D01*
%TD*%
D12*
%TO.C,SW21*%
X68880000Y-130480000D03*
%TD*%
%TO.C,SW15*%
X142690000Y-111420000D03*
%TD*%
%TO.C,SW33*%
X118890000Y-149530000D03*
%TD*%
%TO.C,SW4*%
X118890000Y-92370000D03*
%TD*%
%TO.C,SW3*%
X99840000Y-92370000D03*
%TD*%
D13*
%TO.C,SW41*%
X49920000Y-139480000D03*
X49920000Y-132980000D03*
%TD*%
D12*
%TO.C,SW1*%
X61740000Y-92370000D03*
%TD*%
%TO.C,SW25*%
X152240000Y-130450000D03*
%TD*%
%TO.C,SW23*%
X114140000Y-130450000D03*
%TD*%
%TO.C,SW2*%
X80790000Y-92370000D03*
%TD*%
%TO.C,SW11*%
X64120000Y-111430000D03*
%TD*%
%TO.C,SW5*%
X137940000Y-92370000D03*
%TD*%
%TO.C,SW32*%
X99840000Y-149530000D03*
%TD*%
%TO.C,SW12*%
X85540000Y-111420000D03*
%TD*%
%TO.C,SW22*%
X95090000Y-130450000D03*
%TD*%
%TO.C,SW14*%
X123640000Y-111420000D03*
%TD*%
%TO.C,SW24*%
X133190000Y-130450000D03*
%TD*%
%TO.C,SW13*%
X104590000Y-111420000D03*
%TD*%
%TO.C,SW34*%
X142690000Y-149540000D03*
%TD*%
D14*
%TO.C,U2*%
X50540000Y-162390000D03*
X53080000Y-162390000D03*
X55620000Y-162390000D03*
X58160000Y-162390000D03*
X60700000Y-162390000D03*
X63240000Y-162390000D03*
X65780000Y-162390000D03*
X68320000Y-162390000D03*
X70860000Y-162390000D03*
X73400000Y-162390000D03*
X75940000Y-162390000D03*
X78480000Y-162390000D03*
X78480000Y-147170000D03*
X75940000Y-147170000D03*
X73400000Y-147170000D03*
X70860000Y-147170000D03*
X68320000Y-147170000D03*
X65780000Y-147170000D03*
X63240000Y-147170000D03*
X60700000Y-147170000D03*
X58160000Y-147170000D03*
X55620000Y-147170000D03*
X53080000Y-147170000D03*
X50540000Y-147170000D03*
D15*
X48000000Y-147170000D03*
D14*
X48000000Y-162390000D03*
%TD*%
M02*
