%TF.GenerationSoftware,KiCad,Pcbnew,7.0.8*%
%TF.CreationDate,2024-11-10T08:48:31+09:00*%
%TF.ProjectId,cool937,636f6f6c-3933-4372-9e6b-696361645f70,rev?*%
%TF.SameCoordinates,Original*%
%TF.FileFunction,Soldermask,Top*%
%TF.FilePolarity,Negative*%
%FSLAX46Y46*%
G04 Gerber Fmt 4.6, Leading zero omitted, Abs format (unit mm)*
G04 Created by KiCad (PCBNEW 7.0.8) date 2024-11-10 08:48:31*
%MOMM*%
%LPD*%
G01*
G04 APERTURE LIST*
%ADD10R,1.300000X0.950000*%
%ADD11C,3.000000*%
%ADD12C,2.000000*%
%ADD13C,1.200000*%
%ADD14O,1.000000X1.300000*%
%ADD15C,2.850000*%
%ADD16C,1.524000*%
%ADD17R,1.524000X1.524000*%
G04 APERTURE END LIST*
D10*
%TO.C,D14*%
X122945000Y-124960000D03*
X126495000Y-124960000D03*
%TD*%
D11*
%TO.C,SW21*%
X58330000Y-139180000D03*
X63330000Y-141380000D03*
%TD*%
%TO.C,SW15*%
X132140000Y-120120000D03*
X137140000Y-122320000D03*
%TD*%
D10*
%TO.C,D15*%
X141155000Y-124890000D03*
X144705000Y-124890000D03*
%TD*%
D11*
%TO.C,SW33*%
X108340000Y-158230000D03*
X113340000Y-160430000D03*
%TD*%
D10*
%TO.C,D21*%
X68205000Y-144100000D03*
X71755000Y-144100000D03*
%TD*%
%TO.C,D13*%
X103915000Y-125030000D03*
X107465000Y-125030000D03*
%TD*%
D11*
%TO.C,SW4*%
X108340000Y-101070000D03*
X113340000Y-103270000D03*
%TD*%
%TO.C,SW3*%
X89290000Y-101070000D03*
X94290000Y-103270000D03*
%TD*%
D12*
%TO.C,SW41*%
X49920000Y-139480000D03*
X49920000Y-132980000D03*
%TD*%
D10*
%TO.C,D25*%
X151575000Y-144030000D03*
X155125000Y-144030000D03*
%TD*%
%TO.C,D34*%
X142005000Y-163140000D03*
X145555000Y-163140000D03*
%TD*%
D11*
%TO.C,SW1*%
X51190000Y-101070000D03*
X56190000Y-103270000D03*
%TD*%
D10*
%TO.C,D24*%
X132560000Y-144150000D03*
X136110000Y-144150000D03*
%TD*%
%TO.C,D12*%
X84775000Y-124920000D03*
X88325000Y-124920000D03*
%TD*%
D11*
%TO.C,SW25*%
X141690000Y-139150000D03*
X146690000Y-141350000D03*
%TD*%
%TO.C,SW23*%
X103590000Y-139150000D03*
X108590000Y-141350000D03*
%TD*%
D10*
%TO.C,D11*%
X63425000Y-124990000D03*
X66975000Y-124990000D03*
%TD*%
D11*
%TO.C,SW2*%
X70240000Y-101070000D03*
X75240000Y-103270000D03*
%TD*%
D10*
%TO.C,D5*%
X137275000Y-105940000D03*
X140825000Y-105940000D03*
%TD*%
D11*
%TO.C,SW11*%
X53570000Y-120130000D03*
X58570000Y-122330000D03*
%TD*%
%TO.C,SW5*%
X127390000Y-101070000D03*
X132390000Y-103270000D03*
%TD*%
%TO.C,SW32*%
X89290000Y-158230000D03*
X94290000Y-160430000D03*
%TD*%
D10*
%TO.C,D1*%
X61095000Y-106030000D03*
X64645000Y-106030000D03*
%TD*%
D11*
%TO.C,SW12*%
X74990000Y-120120000D03*
X79990000Y-122320000D03*
%TD*%
D10*
%TO.C,D33*%
X118215000Y-163080000D03*
X121765000Y-163080000D03*
%TD*%
%TO.C,D23*%
X112765000Y-144010000D03*
X116315000Y-144010000D03*
%TD*%
%TO.C,D32*%
X99155000Y-163050000D03*
X102705000Y-163050000D03*
%TD*%
D11*
%TO.C,SW22*%
X84540000Y-139150000D03*
X89540000Y-141350000D03*
%TD*%
%TO.C,SW14*%
X113090000Y-120120000D03*
X118090000Y-122320000D03*
%TD*%
D10*
%TO.C,D3*%
X98560000Y-105970000D03*
X102110000Y-105970000D03*
%TD*%
%TO.C,D4*%
X104755000Y-106000000D03*
X108305000Y-106000000D03*
%TD*%
D11*
%TO.C,SW24*%
X122640000Y-139150000D03*
X127640000Y-141350000D03*
%TD*%
D10*
%TO.C,D22*%
X94550000Y-144140000D03*
X98100000Y-144140000D03*
%TD*%
D13*
%TO.C,J1*%
X161180000Y-122880000D03*
X154180000Y-122880000D03*
%TD*%
D10*
%TO.C,D2*%
X67835000Y-105960000D03*
X71385000Y-105960000D03*
%TD*%
D11*
%TO.C,SW13*%
X94040000Y-120120000D03*
X99040000Y-122320000D03*
%TD*%
%TO.C,SW34*%
X132140000Y-158240000D03*
X137140000Y-160440000D03*
%TD*%
D14*
%TO.C,SW42*%
X49220000Y-89850000D03*
X49220000Y-92350000D03*
X49220000Y-94850000D03*
%TD*%
D15*
%TO.C,BT1*%
X160440000Y-97600000D03*
X143540000Y-97600000D03*
%TD*%
D16*
%TO.C,U2*%
X50540000Y-162390000D03*
X53080000Y-162390000D03*
X55620000Y-162390000D03*
X58160000Y-162390000D03*
X60700000Y-162390000D03*
X63240000Y-162390000D03*
X65780000Y-162390000D03*
X68320000Y-162390000D03*
X70860000Y-162390000D03*
X73400000Y-162390000D03*
X75940000Y-162390000D03*
X78480000Y-162390000D03*
X78480000Y-147170000D03*
X75940000Y-147170000D03*
X73400000Y-147170000D03*
X70860000Y-147170000D03*
X68320000Y-147170000D03*
X65780000Y-147170000D03*
X63240000Y-147170000D03*
X60700000Y-147170000D03*
X58160000Y-147170000D03*
X55620000Y-147170000D03*
X53080000Y-147170000D03*
X50540000Y-147170000D03*
D17*
X48000000Y-147170000D03*
D16*
X48000000Y-162390000D03*
%TD*%
M02*
