M48
; DRILL file {KiCad 7.0.8} date 2024 November 10, Sunday 08:48:34
; FORMAT={-:-/ absolute / metric / decimal}
; #@! TF.CreationDate,2024-11-10T08:48:34+09:00
; #@! TF.GenerationSoftware,Kicad,Pcbnew,7.0.8
; #@! TF.FileFunction,Plated,1,2,PTH
FMAT,2
METRIC
; #@! TA.AperFunction,Plated,PTH,ComponentDrill
T1C0.300
; #@! TA.AperFunction,Plated,PTH,ViaDrill
T2C0.400
; #@! TA.AperFunction,Plated,PTH,ComponentDrill
T3C0.500
; #@! TA.AperFunction,Plated,PTH,ComponentDrill
T4C0.813
; #@! TA.AperFunction,Plated,PTH,ComponentDrill
T5C1.000
; #@! TA.AperFunction,Plated,PTH,ComponentDrill
T6C1.300
; #@! TA.AperFunction,Plated,PTH,ComponentDrill
T7C1.850
%
G90
G05
T2
X47.39Y-107.89
X48.13Y-126.59
X48.13Y-109.31
X50.43Y-150.17
X53.81Y-127.46
X61.11Y-109.31
X63.39Y-127.38
X66.04Y-107.95
X67.76Y-109.32
X68.32Y-149.05
X69.16Y-132.49
X70.09Y-128.27
X80.0Y-151.04
X80.05Y-152.67
X82.462Y-149.1
X84.8Y-127.4
X94.48Y-147.76
X98.69Y-109.33
X103.85Y-127.4
X105.04Y-150.8
X107.64Y-109.33
X112.67Y-147.88
X122.96Y-127.37
X128.84Y-151.57
X132.59Y-146.22
X137.3Y-109.32
X141.09Y-127.29
X148.71Y-128.26
X151.64Y-146.23
X158.85Y-150.36
T4
X48.0Y-147.17
X48.0Y-162.39
X50.54Y-147.17
X50.54Y-162.39
X53.08Y-147.17
X53.08Y-162.39
X55.62Y-147.17
X55.62Y-162.39
X58.16Y-147.17
X58.16Y-162.39
X60.7Y-147.17
X60.7Y-162.39
X63.24Y-147.17
X63.24Y-162.39
X65.78Y-147.17
X65.78Y-162.39
X68.32Y-147.17
X68.32Y-162.39
X70.86Y-147.17
X70.86Y-162.39
X73.4Y-147.17
X73.4Y-162.39
X75.94Y-147.17
X75.94Y-162.39
X78.48Y-147.17
X78.48Y-162.39
T6
X49.92Y-132.98
X49.92Y-139.48
T7
X143.54Y-97.6
X160.44Y-97.6
T1
G00X62.09Y-92.37
M15
G01X61.39Y-92.37
M16
G05
G00X64.47Y-111.43
M15
G01X63.77Y-111.43
M16
G05
G00X69.23Y-130.48
M15
G01X68.53Y-130.48
M16
G05
G00X81.14Y-92.37
M15
G01X80.44Y-92.37
M16
G05
G00X85.89Y-111.42
M15
G01X85.19Y-111.42
M16
G05
G00X95.44Y-130.45
M15
G01X94.74Y-130.45
M16
G05
G00X100.19Y-92.37
M15
G01X99.49Y-92.37
M16
G05
G00X100.19Y-149.53
M15
G01X99.49Y-149.53
M16
G05
G00X104.94Y-111.42
M15
G01X104.24Y-111.42
M16
G05
G00X114.49Y-130.45
M15
G01X113.79Y-130.45
M16
G05
G00X119.24Y-92.37
M15
G01X118.54Y-92.37
M16
G05
G00X119.24Y-149.53
M15
G01X118.54Y-149.53
M16
G05
G00X123.99Y-111.42
M15
G01X123.29Y-111.42
M16
G05
G00X133.54Y-130.45
M15
G01X132.84Y-130.45
M16
G05
G00X138.29Y-92.37
M15
G01X137.59Y-92.37
M16
G05
G00X143.04Y-111.42
M15
G01X142.34Y-111.42
M16
G05
G00X143.04Y-149.54
M15
G01X142.34Y-149.54
M16
G05
G00X152.59Y-130.45
M15
G01X151.89Y-130.45
M16
G05
T3
G00X49.22Y-89.7
M15
G01X49.22Y-90.0
M16
G05
G00X49.22Y-92.2
M15
G01X49.22Y-92.5
M16
G05
G00X49.22Y-94.7
M15
G01X49.22Y-95.0
M16
G05
T5
G00X151.13Y-120.78
M15
G01X150.63Y-120.78
M16
G05
G00X152.63Y-124.98
M15
G01X152.13Y-124.98
M16
G05
G00X156.63Y-124.98
M15
G01X156.13Y-124.98
M16
G05
G00X159.63Y-124.98
M15
G01X159.13Y-124.98
M16
G05
T0
M30
