%TF.GenerationSoftware,KiCad,Pcbnew,7.0.8*%
%TF.CreationDate,2024-11-10T08:48:31+09:00*%
%TF.ProjectId,cool937,636f6f6c-3933-4372-9e6b-696361645f70,rev?*%
%TF.SameCoordinates,Original*%
%TF.FileFunction,Copper,L2,Bot*%
%TF.FilePolarity,Positive*%
%FSLAX46Y46*%
G04 Gerber Fmt 4.6, Leading zero omitted, Abs format (unit mm)*
G04 Created by KiCad (PCBNEW 7.0.8) date 2024-11-10 08:48:31*
%MOMM*%
%LPD*%
G01*
G04 APERTURE LIST*
%TA.AperFunction,SMDPad,CuDef*%
%ADD10R,1.300000X0.950000*%
%TD*%
%TA.AperFunction,ComponentPad*%
%ADD11O,2.200000X1.500000*%
%TD*%
%TA.AperFunction,SMDPad,CuDef*%
%ADD12R,2.600000X2.600000*%
%TD*%
%TA.AperFunction,ComponentPad*%
%ADD13C,2.000000*%
%TD*%
%TA.AperFunction,ComponentPad*%
%ADD14O,2.500000X1.700000*%
%TD*%
%TA.AperFunction,SMDPad,CuDef*%
%ADD15R,2.600000X3.000000*%
%TD*%
%TA.AperFunction,ComponentPad*%
%ADD16O,1.000000X1.300000*%
%TD*%
%TA.AperFunction,ComponentPad*%
%ADD17C,2.850000*%
%TD*%
%TA.AperFunction,SMDPad,CuDef*%
%ADD18C,10.000000*%
%TD*%
%TA.AperFunction,ComponentPad*%
%ADD19C,1.524000*%
%TD*%
%TA.AperFunction,ComponentPad*%
%ADD20R,1.524000X1.524000*%
%TD*%
%TA.AperFunction,ViaPad*%
%ADD21C,0.800000*%
%TD*%
%TA.AperFunction,Conductor*%
%ADD22C,0.250000*%
%TD*%
G04 APERTURE END LIST*
D10*
%TO.P,D14,1,K*%
%TO.N,row1*%
X122945000Y-124960000D03*
%TO.P,D14,2,A*%
%TO.N,Net-(D14-A)*%
X126495000Y-124960000D03*
%TD*%
D11*
%TO.P,SW21,*%
%TO.N,*%
X68880000Y-130480000D03*
D12*
%TO.P,SW21,1,1*%
%TO.N,col0*%
X55030000Y-139180000D03*
%TO.P,SW21,2,2*%
%TO.N,Net-(D21-A)*%
X66630000Y-141380000D03*
%TD*%
D11*
%TO.P,SW15,*%
%TO.N,*%
X142690000Y-111420000D03*
D12*
%TO.P,SW15,1,1*%
%TO.N,col4*%
X128840000Y-120120000D03*
%TO.P,SW15,2,2*%
%TO.N,Net-(D15-A)*%
X140440000Y-122320000D03*
%TD*%
D10*
%TO.P,D15,1,K*%
%TO.N,row1*%
X141155000Y-124890000D03*
%TO.P,D15,2,A*%
%TO.N,Net-(D15-A)*%
X144705000Y-124890000D03*
%TD*%
D11*
%TO.P,SW33,*%
%TO.N,*%
X118890000Y-149530000D03*
D12*
%TO.P,SW33,1,1*%
%TO.N,col2*%
X105040000Y-158230000D03*
%TO.P,SW33,2,2*%
%TO.N,Net-(D33-A)*%
X116640000Y-160430000D03*
%TD*%
D10*
%TO.P,D21,1,K*%
%TO.N,row2*%
X68205000Y-144100000D03*
%TO.P,D21,2,A*%
%TO.N,Net-(D21-A)*%
X71755000Y-144100000D03*
%TD*%
%TO.P,D13,1,K*%
%TO.N,row1*%
X103915000Y-125030000D03*
%TO.P,D13,2,A*%
%TO.N,Net-(D13-A)*%
X107465000Y-125030000D03*
%TD*%
D11*
%TO.P,SW4,*%
%TO.N,*%
X118890000Y-92370000D03*
D12*
%TO.P,SW4,1,1*%
%TO.N,col3*%
X105040000Y-101070000D03*
%TO.P,SW4,2,2*%
%TO.N,Net-(D4-A)*%
X116640000Y-103270000D03*
%TD*%
D11*
%TO.P,SW3,*%
%TO.N,*%
X99840000Y-92370000D03*
D12*
%TO.P,SW3,1,1*%
%TO.N,col2*%
X85990000Y-101070000D03*
%TO.P,SW3,2,2*%
%TO.N,Net-(D3-A)*%
X97590000Y-103270000D03*
%TD*%
D13*
%TO.P,SW41,1,1*%
%TO.N,Net-(U2-BOOT(RST))*%
X49920000Y-139480000D03*
%TO.P,SW41,2,2*%
%TO.N,GND*%
X49920000Y-132980000D03*
%TD*%
D10*
%TO.P,D25,1,K*%
%TO.N,row2*%
X151575000Y-144030000D03*
%TO.P,D25,2,A*%
%TO.N,Net-(D25-A)*%
X155125000Y-144030000D03*
%TD*%
%TO.P,D34,1,K*%
%TO.N,row3*%
X142005000Y-163140000D03*
%TO.P,D34,2,A*%
%TO.N,Net-(D34-A)*%
X145555000Y-163140000D03*
%TD*%
D11*
%TO.P,SW1,*%
%TO.N,*%
X61740000Y-92370000D03*
D12*
%TO.P,SW1,1,1*%
%TO.N,col0*%
X47890000Y-101070000D03*
%TO.P,SW1,2,2*%
%TO.N,Net-(D1-A)*%
X59490000Y-103270000D03*
%TD*%
D10*
%TO.P,D24,1,K*%
%TO.N,row2*%
X132560000Y-144150000D03*
%TO.P,D24,2,A*%
%TO.N,Net-(D24-A)*%
X136110000Y-144150000D03*
%TD*%
%TO.P,D12,1,K*%
%TO.N,row1*%
X84775000Y-124920000D03*
%TO.P,D12,2,A*%
%TO.N,Net-(D12-A)*%
X88325000Y-124920000D03*
%TD*%
D11*
%TO.P,SW25,*%
%TO.N,*%
X152240000Y-130450000D03*
D12*
%TO.P,SW25,1,1*%
%TO.N,col4*%
X138390000Y-139150000D03*
%TO.P,SW25,2,2*%
%TO.N,Net-(D25-A)*%
X149990000Y-141350000D03*
%TD*%
D11*
%TO.P,SW23,*%
%TO.N,*%
X114140000Y-130450000D03*
D12*
%TO.P,SW23,1,1*%
%TO.N,col2*%
X100290000Y-139150000D03*
%TO.P,SW23,2,2*%
%TO.N,Net-(D23-A)*%
X111890000Y-141350000D03*
%TD*%
D10*
%TO.P,D11,1,K*%
%TO.N,row1*%
X63425000Y-124990000D03*
%TO.P,D11,2,A*%
%TO.N,Net-(D11-A)*%
X66975000Y-124990000D03*
%TD*%
D11*
%TO.P,SW2,*%
%TO.N,*%
X80790000Y-92370000D03*
D12*
%TO.P,SW2,1,1*%
%TO.N,col1*%
X66940000Y-101070000D03*
%TO.P,SW2,2,2*%
%TO.N,Net-(D2-A)*%
X78540000Y-103270000D03*
%TD*%
D10*
%TO.P,D5,1,K*%
%TO.N,row0*%
X137275000Y-105940000D03*
%TO.P,D5,2,A*%
%TO.N,Net-(D5-A)*%
X140825000Y-105940000D03*
%TD*%
D11*
%TO.P,SW11,*%
%TO.N,*%
X64120000Y-111430000D03*
D12*
%TO.P,SW11,1,1*%
%TO.N,col0*%
X50270000Y-120130000D03*
%TO.P,SW11,2,2*%
%TO.N,Net-(D11-A)*%
X61870000Y-122330000D03*
%TD*%
D11*
%TO.P,SW5,*%
%TO.N,*%
X137940000Y-92370000D03*
D12*
%TO.P,SW5,1,1*%
%TO.N,col4*%
X124090000Y-101070000D03*
%TO.P,SW5,2,2*%
%TO.N,Net-(D5-A)*%
X135690000Y-103270000D03*
%TD*%
D11*
%TO.P,SW32,*%
%TO.N,*%
X99840000Y-149530000D03*
D12*
%TO.P,SW32,1,1*%
%TO.N,col1*%
X85990000Y-158230000D03*
%TO.P,SW32,2,2*%
%TO.N,Net-(D32-A)*%
X97590000Y-160430000D03*
%TD*%
D10*
%TO.P,D1,1,K*%
%TO.N,row0*%
X61095000Y-106030000D03*
%TO.P,D1,2,A*%
%TO.N,Net-(D1-A)*%
X64645000Y-106030000D03*
%TD*%
D11*
%TO.P,SW12,*%
%TO.N,*%
X85540000Y-111420000D03*
D12*
%TO.P,SW12,1,1*%
%TO.N,col1*%
X71690000Y-120120000D03*
%TO.P,SW12,2,2*%
%TO.N,Net-(D12-A)*%
X83290000Y-122320000D03*
%TD*%
D10*
%TO.P,D33,1,K*%
%TO.N,row3*%
X118215000Y-163080000D03*
%TO.P,D33,2,A*%
%TO.N,Net-(D33-A)*%
X121765000Y-163080000D03*
%TD*%
%TO.P,D23,1,K*%
%TO.N,row2*%
X112765000Y-144010000D03*
%TO.P,D23,2,A*%
%TO.N,Net-(D23-A)*%
X116315000Y-144010000D03*
%TD*%
%TO.P,D32,1,K*%
%TO.N,row3*%
X99155000Y-163050000D03*
%TO.P,D32,2,A*%
%TO.N,Net-(D32-A)*%
X102705000Y-163050000D03*
%TD*%
D11*
%TO.P,SW22,*%
%TO.N,*%
X95090000Y-130450000D03*
D12*
%TO.P,SW22,1,1*%
%TO.N,col1*%
X81240000Y-139150000D03*
%TO.P,SW22,2,2*%
%TO.N,Net-(D22-A)*%
X92840000Y-141350000D03*
%TD*%
D11*
%TO.P,SW14,*%
%TO.N,*%
X123640000Y-111420000D03*
D12*
%TO.P,SW14,1,1*%
%TO.N,col3*%
X109790000Y-120120000D03*
%TO.P,SW14,2,2*%
%TO.N,Net-(D14-A)*%
X121390000Y-122320000D03*
%TD*%
D10*
%TO.P,D3,1,K*%
%TO.N,row0*%
X98560000Y-105970000D03*
%TO.P,D3,2,A*%
%TO.N,Net-(D3-A)*%
X102110000Y-105970000D03*
%TD*%
%TO.P,D4,1,K*%
%TO.N,row0*%
X104755000Y-106000000D03*
%TO.P,D4,2,A*%
%TO.N,Net-(D4-A)*%
X108305000Y-106000000D03*
%TD*%
D11*
%TO.P,SW24,*%
%TO.N,*%
X133190000Y-130450000D03*
D12*
%TO.P,SW24,1,1*%
%TO.N,col3*%
X119340000Y-139150000D03*
%TO.P,SW24,2,2*%
%TO.N,Net-(D24-A)*%
X130940000Y-141350000D03*
%TD*%
D10*
%TO.P,D22,1,K*%
%TO.N,row2*%
X94550000Y-144140000D03*
%TO.P,D22,2,A*%
%TO.N,Net-(D22-A)*%
X98100000Y-144140000D03*
%TD*%
D14*
%TO.P,J1,A*%
%TO.N,unconnected-(J1-PadA)*%
X150880000Y-120780000D03*
%TO.P,J1,B*%
%TO.N,data*%
X159380000Y-124980000D03*
%TO.P,J1,C*%
%TO.N,GND*%
X156380000Y-124980000D03*
%TO.P,J1,D*%
%TO.N,VCC*%
X152380000Y-124980000D03*
%TD*%
D10*
%TO.P,D2,1,K*%
%TO.N,row0*%
X67835000Y-105960000D03*
%TO.P,D2,2,A*%
%TO.N,Net-(D2-A)*%
X71385000Y-105960000D03*
%TD*%
D11*
%TO.P,SW13,*%
%TO.N,*%
X104590000Y-111420000D03*
D12*
%TO.P,SW13,1,1*%
%TO.N,col2*%
X90740000Y-120120000D03*
%TO.P,SW13,2,2*%
%TO.N,Net-(D13-A)*%
X102340000Y-122320000D03*
%TD*%
D11*
%TO.P,SW34,*%
%TO.N,*%
X142690000Y-149540000D03*
D12*
%TO.P,SW34,1,1*%
%TO.N,col3*%
X128840000Y-158240000D03*
%TO.P,SW34,2,2*%
%TO.N,Net-(D34-A)*%
X140440000Y-160440000D03*
%TD*%
D15*
%TO.P,C1,1*%
%TO.N,BAT+*%
X75830000Y-133840000D03*
%TO.P,C1,2*%
%TO.N,GND*%
X75830000Y-138840000D03*
%TD*%
D16*
%TO.P,SW42,1,1*%
%TO.N,Net-(U2-BAT)*%
X49220000Y-89850000D03*
%TO.P,SW42,2,2*%
%TO.N,BAT+*%
X49220000Y-92350000D03*
%TO.P,SW42,3*%
%TO.N,N/C*%
X49220000Y-94850000D03*
%TD*%
D17*
%TO.P,BT1,1,+*%
%TO.N,BAT+*%
X160440000Y-97600000D03*
X143540000Y-97600000D03*
D18*
%TO.P,BT1,2,-*%
%TO.N,GND*%
X151990000Y-97600000D03*
%TD*%
D19*
%TO.P,U2,1,PIN1*%
%TO.N,data*%
X50540000Y-162390000D03*
%TO.P,U2,2,PIN2*%
%TO.N,unconnected-(U2-PIN2-Pad2)*%
X53080000Y-162390000D03*
%TO.P,U2,3,GND*%
%TO.N,GND*%
X55620000Y-162390000D03*
%TO.P,U2,4,GND*%
X58160000Y-162390000D03*
%TO.P,U2,5,PIN5*%
%TO.N,row0*%
X60700000Y-162390000D03*
%TO.P,U2,6,PIN6*%
%TO.N,row1*%
X63240000Y-162390000D03*
%TO.P,U2,7,PIN7*%
%TO.N,col0*%
X65780000Y-162390000D03*
%TO.P,U2,8,PIN8*%
%TO.N,col1*%
X68320000Y-162390000D03*
%TO.P,U2,9,PIN9*%
%TO.N,col2*%
X70860000Y-162390000D03*
%TO.P,U2,10,PIN10*%
%TO.N,col3*%
X73400000Y-162390000D03*
%TO.P,U2,11,PIN11*%
%TO.N,col4*%
X75940000Y-162390000D03*
%TO.P,U2,12,PIN12*%
%TO.N,unconnected-(U2-PIN12-Pad12)*%
X78480000Y-162390000D03*
%TO.P,U2,13,PIN13*%
%TO.N,unconnected-(U2-PIN13-Pad13)*%
X78480000Y-147170000D03*
%TO.P,U2,14,PIN14*%
%TO.N,row3*%
X75940000Y-147170000D03*
%TO.P,U2,15,PIN15*%
%TO.N,row2*%
X73400000Y-147170000D03*
%TO.P,U2,16,PIN16*%
%TO.N,unconnected-(U2-PIN16-Pad16)*%
X70860000Y-147170000D03*
%TO.P,U2,17,PIN17*%
%TO.N,unconnected-(U2-PIN17-Pad17)*%
X68320000Y-147170000D03*
%TO.P,U2,18,PIN18*%
%TO.N,unconnected-(U2-PIN18-Pad18)*%
X65780000Y-147170000D03*
%TO.P,U2,19,PIN19*%
%TO.N,unconnected-(U2-PIN19-Pad19)*%
X63240000Y-147170000D03*
%TO.P,U2,20,PIN20*%
%TO.N,unconnected-(U2-PIN20-Pad20)*%
X60700000Y-147170000D03*
%TO.P,U2,21,+4.3V*%
%TO.N,unconnected-(U2-+4.3V-Pad21)*%
X58160000Y-147170000D03*
%TO.P,U2,22,BOOT(RST)*%
%TO.N,Net-(U2-BOOT(RST))*%
X55620000Y-147170000D03*
%TO.P,U2,23,GND*%
%TO.N,GND*%
X53080000Y-147170000D03*
%TO.P,U2,24,+5V*%
%TO.N,VCC*%
X50540000Y-147170000D03*
D20*
%TO.P,U2,25,BAT*%
%TO.N,Net-(U2-BAT)*%
X48000000Y-147170000D03*
D19*
%TO.P,U2,26*%
%TO.N,N/C*%
X48000000Y-162390000D03*
%TD*%
D21*
%TO.N,BAT+*%
X148710000Y-128260000D03*
X70090000Y-128270000D03*
%TO.N,VCC*%
X48129500Y-126590000D03*
%TO.N,GND*%
X69160000Y-132490000D03*
%TO.N,Net-(U2-BAT)*%
X66040000Y-107950000D03*
X47390000Y-107890000D03*
%TO.N,col1*%
X68320000Y-149050000D03*
X82462467Y-149100000D03*
%TO.N,data*%
X50430000Y-150170000D03*
%TO.N,row0*%
X48130000Y-109310000D03*
%TO.N,row1*%
X53810000Y-127460000D03*
%TO.N,data*%
X158850000Y-150360000D03*
%TO.N,col2*%
X80000000Y-151040000D03*
X105040000Y-150800000D03*
%TO.N,col3*%
X80050000Y-152670000D03*
X128840000Y-151570000D03*
%TO.N,row2*%
X94480000Y-147760000D03*
X112670000Y-147880000D03*
X132590000Y-146220000D03*
X151640000Y-146230000D03*
%TO.N,row1*%
X141090000Y-127290000D03*
X122960000Y-127370000D03*
X103850000Y-127400000D03*
X84800000Y-127400000D03*
X63390000Y-127380000D03*
%TO.N,row0*%
X61110000Y-109310000D03*
X67760000Y-109320000D03*
X98690000Y-109330000D03*
X107640000Y-109330000D03*
X137300000Y-109320000D03*
%TD*%
D22*
%TO.N,BAT+*%
X148710000Y-128260000D02*
X148710000Y-102770000D01*
X148710000Y-102770000D02*
X143540000Y-97600000D01*
X70260000Y-128270000D02*
X75830000Y-133840000D01*
X70090000Y-128270000D02*
X70260000Y-128270000D01*
X70090000Y-128100000D02*
X70090000Y-128270000D01*
%TO.N,VCC*%
X50540000Y-147170000D02*
X48129500Y-144759500D01*
X48129500Y-144759500D02*
X48129500Y-126590000D01*
%TO.N,GND*%
X69480000Y-132490000D02*
X69160000Y-132490000D01*
X75830000Y-138840000D02*
X69480000Y-132490000D01*
%TO.N,BAT+*%
X49220000Y-92350000D02*
X53315000Y-96445000D01*
X53315000Y-96445000D02*
X53315000Y-103745000D01*
X70065000Y-120495000D02*
X70065000Y-128075000D01*
X70065000Y-128075000D02*
X70090000Y-128100000D01*
X53315000Y-103745000D02*
X70065000Y-120495000D01*
%TO.N,Net-(U2-BAT)*%
X63015000Y-100204620D02*
X63015000Y-96645000D01*
X48000000Y-147170000D02*
X47405000Y-146575000D01*
X47405000Y-146575000D02*
X47405000Y-107905000D01*
X47405000Y-107905000D02*
X47390000Y-107890000D01*
X66040000Y-107950000D02*
X66040000Y-103229620D01*
X66040000Y-103229620D02*
X63015000Y-100204620D01*
X63015000Y-96645000D02*
X56220000Y-89850000D01*
X56220000Y-89850000D02*
X49220000Y-89850000D01*
%TO.N,col1*%
X82462467Y-149100000D02*
X82462467Y-149592467D01*
X68320000Y-162390000D02*
X68320000Y-149050000D01*
X82462467Y-142592467D02*
X82462467Y-149100000D01*
%TO.N,data*%
X50430000Y-150170000D02*
X50540000Y-150280000D01*
X50540000Y-150280000D02*
X50540000Y-162390000D01*
%TO.N,row3*%
X75940000Y-147170000D02*
X77027000Y-148257000D01*
X77027000Y-148257000D02*
X79697000Y-148257000D01*
X84330000Y-152890000D02*
X84330000Y-161760000D01*
X79697000Y-148257000D02*
X84330000Y-152890000D01*
X84330000Y-161760000D02*
X85620000Y-163050000D01*
X85620000Y-163050000D02*
X99155000Y-163050000D01*
%TO.N,col1*%
X81240000Y-139150000D02*
X81240000Y-141370000D01*
X81240000Y-141370000D02*
X82462467Y-142592467D01*
X85990000Y-153120000D02*
X85990000Y-158230000D01*
X82462467Y-149592467D02*
X85990000Y-153120000D01*
%TO.N,row0*%
X48150000Y-121230000D02*
X48150000Y-120150000D01*
X48150000Y-120150000D02*
X48150000Y-109330000D01*
X48150000Y-109330000D02*
X48130000Y-109310000D01*
%TO.N,col0*%
X50270000Y-120130000D02*
X50270000Y-106130000D01*
X47890000Y-103750000D02*
X47890000Y-101070000D01*
X50270000Y-106130000D02*
X47890000Y-103750000D01*
%TO.N,row0*%
X57073000Y-158763000D02*
X57073000Y-146467000D01*
X52730000Y-142124000D02*
X52730000Y-125810000D01*
X60700000Y-162390000D02*
X57073000Y-158763000D01*
X57073000Y-146467000D02*
X52730000Y-142124000D01*
X52730000Y-125810000D02*
X48150000Y-121230000D01*
%TO.N,row1*%
X53810000Y-127460000D02*
X53405000Y-127865000D01*
X53405000Y-127865000D02*
X53405000Y-140614620D01*
X53405000Y-140614620D02*
X59247000Y-146456620D01*
X59247000Y-146456620D02*
X59247000Y-158397000D01*
X59247000Y-158397000D02*
X63240000Y-162390000D01*
%TO.N,col0*%
X55030000Y-139180000D02*
X60940000Y-145090000D01*
X60940000Y-145090000D02*
X62690474Y-145090000D01*
X62690474Y-145090000D02*
X64680000Y-147079526D01*
X64680000Y-147079526D02*
X64680000Y-161290000D01*
X64680000Y-161290000D02*
X65780000Y-162390000D01*
%TO.N,data*%
X159380000Y-149830000D02*
X158850000Y-150360000D01*
X159380000Y-124980000D02*
X159380000Y-149830000D01*
%TO.N,GND*%
X151990000Y-97600000D02*
X156380000Y-101990000D01*
X156380000Y-101990000D02*
X156380000Y-124980000D01*
%TO.N,col2*%
X70860000Y-160180000D02*
X80000000Y-151040000D01*
X105040000Y-150800000D02*
X105040000Y-143900000D01*
X70860000Y-162390000D02*
X70860000Y-160180000D01*
X105040000Y-158230000D02*
X105040000Y-150800000D01*
%TO.N,col3*%
X80050000Y-155740000D02*
X80050000Y-152670000D01*
X73400000Y-162390000D02*
X80050000Y-155740000D01*
X128840000Y-151570000D02*
X128840000Y-147218597D01*
X128840000Y-158240000D02*
X128840000Y-151570000D01*
%TO.N,col4*%
X75940000Y-162390000D02*
X77890000Y-164340000D01*
X77890000Y-164340000D02*
X145939620Y-164340000D01*
X146530000Y-147290000D02*
X138390000Y-139150000D01*
X145939620Y-164340000D02*
X146530000Y-163749620D01*
X146530000Y-163749620D02*
X146530000Y-147290000D01*
%TO.N,GND*%
X55620000Y-162390000D02*
X58160000Y-162390000D01*
X53080000Y-147170000D02*
X53080000Y-159850000D01*
X53080000Y-159850000D02*
X55620000Y-162390000D01*
X49920000Y-132980000D02*
X48595000Y-134305000D01*
X48595000Y-142685000D02*
X53080000Y-147170000D01*
X48595000Y-134305000D02*
X48595000Y-142685000D01*
%TO.N,Net-(U2-BOOT(RST))*%
X49920000Y-139480000D02*
X49920000Y-141470000D01*
X49920000Y-141470000D02*
X55620000Y-147170000D01*
%TO.N,row2*%
X68205000Y-144100000D02*
X69320474Y-144100000D01*
X69320474Y-144100000D02*
X72390474Y-147170000D01*
X72390474Y-147170000D02*
X73400000Y-147170000D01*
X94480000Y-147760000D02*
X94550000Y-147690000D01*
X94550000Y-147690000D02*
X94550000Y-144140000D01*
X112765000Y-147785000D02*
X112765000Y-144010000D01*
X112670000Y-147880000D02*
X112765000Y-147785000D01*
X151575000Y-144030000D02*
X151575000Y-146165000D01*
X151575000Y-146165000D02*
X151640000Y-146230000D01*
X132590000Y-146220000D02*
X132590000Y-144180000D01*
X132590000Y-144180000D02*
X132560000Y-144150000D01*
%TO.N,row1*%
X141090000Y-127290000D02*
X141090000Y-124955000D01*
X141090000Y-124955000D02*
X141155000Y-124890000D01*
X122960000Y-127370000D02*
X122960000Y-124975000D01*
X122960000Y-124975000D02*
X122945000Y-124960000D01*
X103850000Y-127400000D02*
X103850000Y-125095000D01*
X103850000Y-125095000D02*
X103915000Y-125030000D01*
X63425000Y-124990000D02*
X63425000Y-127345000D01*
X84800000Y-124945000D02*
X84775000Y-124920000D01*
X63425000Y-127345000D02*
X63390000Y-127380000D01*
X84800000Y-127400000D02*
X84800000Y-124945000D01*
%TO.N,row0*%
X61095000Y-109295000D02*
X61095000Y-106030000D01*
X61110000Y-109310000D02*
X61095000Y-109295000D01*
X67760000Y-109320000D02*
X67835000Y-109245000D01*
X67835000Y-109245000D02*
X67835000Y-105960000D01*
X98560000Y-109200000D02*
X98560000Y-105970000D01*
X98690000Y-109330000D02*
X98560000Y-109200000D01*
X107640000Y-108885000D02*
X104755000Y-106000000D01*
X137275000Y-105940000D02*
X137275000Y-109295000D01*
X137275000Y-109295000D02*
X137300000Y-109320000D01*
X107640000Y-109330000D02*
X107640000Y-108885000D01*
%TO.N,col0*%
X55030000Y-139180000D02*
X55030000Y-124890000D01*
X55030000Y-124890000D02*
X50270000Y-120130000D01*
%TO.N,col1*%
X71690000Y-120120000D02*
X66860000Y-115290000D01*
X66860000Y-115290000D02*
X66860000Y-101150000D01*
X66860000Y-101150000D02*
X66940000Y-101070000D01*
X81240000Y-139150000D02*
X81240000Y-129670000D01*
X81240000Y-129670000D02*
X71690000Y-120120000D01*
%TO.N,col2*%
X105040000Y-143900000D02*
X100290000Y-139150000D01*
X100290000Y-139150000D02*
X100290000Y-129670000D01*
X100290000Y-129670000D02*
X90740000Y-120120000D01*
X90740000Y-120120000D02*
X90740000Y-105820000D01*
X90740000Y-105820000D02*
X85990000Y-101070000D01*
%TO.N,col3*%
X109790000Y-112619620D02*
X103490000Y-106319620D01*
X109790000Y-120120000D02*
X109790000Y-112619620D01*
X103490000Y-102620000D02*
X105040000Y-101070000D01*
X103490000Y-106319620D02*
X103490000Y-102620000D01*
X119340000Y-139150000D02*
X119340000Y-129670000D01*
X119340000Y-129670000D02*
X109790000Y-120120000D01*
X128840000Y-147218597D02*
X122646403Y-141025000D01*
X122646403Y-141025000D02*
X121215000Y-141025000D01*
X121215000Y-141025000D02*
X119340000Y-139150000D01*
%TO.N,col4*%
X138390000Y-139150000D02*
X138390000Y-129670000D01*
X138390000Y-129670000D02*
X128840000Y-120120000D01*
X128840000Y-120120000D02*
X128840000Y-105820000D01*
X128840000Y-105820000D02*
X124090000Y-101070000D01*
%TO.N,row3*%
X118215000Y-163080000D02*
X117445000Y-163850000D01*
X117445000Y-163850000D02*
X99955000Y-163850000D01*
X99955000Y-163850000D02*
X99155000Y-163050000D01*
X142005000Y-163140000D02*
X141265000Y-163880000D01*
X141265000Y-163880000D02*
X119015000Y-163880000D01*
X119015000Y-163880000D02*
X118215000Y-163080000D01*
%TO.N,Net-(D34-A)*%
X140440000Y-160440000D02*
X142855000Y-160440000D01*
X142855000Y-160440000D02*
X145555000Y-163140000D01*
%TO.N,Net-(D33-A)*%
X116640000Y-160430000D02*
X119115000Y-160430000D01*
X119115000Y-160430000D02*
X121765000Y-163080000D01*
%TO.N,Net-(D32-A)*%
X97590000Y-160430000D02*
X100085000Y-160430000D01*
X100085000Y-160430000D02*
X102705000Y-163050000D01*
%TO.N,Net-(D21-A)*%
X66630000Y-141380000D02*
X69035000Y-141380000D01*
X69035000Y-141380000D02*
X71755000Y-144100000D01*
%TO.N,Net-(D22-A)*%
X92840000Y-141350000D02*
X95310000Y-141350000D01*
X95310000Y-141350000D02*
X98100000Y-144140000D01*
%TO.N,Net-(D23-A)*%
X111890000Y-141350000D02*
X113655000Y-141350000D01*
X113655000Y-141350000D02*
X116315000Y-144010000D01*
%TO.N,Net-(D24-A)*%
X130940000Y-141350000D02*
X133310000Y-141350000D01*
X133310000Y-141350000D02*
X136110000Y-144150000D01*
%TO.N,Net-(D25-A)*%
X149990000Y-141350000D02*
X152445000Y-141350000D01*
X152445000Y-141350000D02*
X155125000Y-144030000D01*
%TO.N,Net-(D15-A)*%
X140440000Y-122320000D02*
X142135000Y-122320000D01*
X142135000Y-122320000D02*
X144705000Y-124890000D01*
%TO.N,Net-(D14-A)*%
X121390000Y-122320000D02*
X123855000Y-122320000D01*
X123855000Y-122320000D02*
X126495000Y-124960000D01*
%TO.N,Net-(D13-A)*%
X102340000Y-122320000D02*
X104755000Y-122320000D01*
X104755000Y-122320000D02*
X107465000Y-125030000D01*
%TO.N,Net-(D12-A)*%
X83290000Y-122320000D02*
X85725000Y-122320000D01*
X85725000Y-122320000D02*
X88325000Y-124920000D01*
%TO.N,Net-(D11-A)*%
X61870000Y-122330000D02*
X64315000Y-122330000D01*
X64315000Y-122330000D02*
X66975000Y-124990000D01*
%TO.N,Net-(D1-A)*%
X59490000Y-103270000D02*
X61885000Y-103270000D01*
X61885000Y-103270000D02*
X64645000Y-106030000D01*
%TO.N,Net-(D2-A)*%
X78540000Y-103270000D02*
X75850000Y-105960000D01*
X75850000Y-105960000D02*
X71385000Y-105960000D01*
%TO.N,Net-(D3-A)*%
X97590000Y-103270000D02*
X99410000Y-103270000D01*
X99410000Y-103270000D02*
X102110000Y-105970000D01*
%TO.N,Net-(D4-A)*%
X116640000Y-103270000D02*
X113910000Y-106000000D01*
X113910000Y-106000000D02*
X108305000Y-106000000D01*
%TO.N,Net-(D5-A)*%
X135690000Y-103270000D02*
X138155000Y-103270000D01*
X138155000Y-103270000D02*
X140825000Y-105940000D01*
%TD*%
M02*
