M48
; DRILL file {KiCad 7.0.8} date 2024 November 10, Sunday 08:48:34
; FORMAT={-:-/ absolute / metric / decimal}
; #@! TF.CreationDate,2024-11-10T08:48:34+09:00
; #@! TF.GenerationSoftware,Kicad,Pcbnew,7.0.8
; #@! TF.FileFunction,NonPlated,1,2,NPTH
FMAT,2
METRIC
; #@! TA.AperFunction,NonPlated,NPTH,ComponentDrill
T1C1.200
; #@! TA.AperFunction,NonPlated,NPTH,ComponentDrill
T2C1.900
; #@! TA.AperFunction,NonPlated,NPTH,ComponentDrill
T3C3.000
; #@! TA.AperFunction,NonPlated,NPTH,ComponentDrill
T4C5.000
%
G90
G05
T1
X154.18Y-122.88
X161.18Y-122.88
T2
X50.69Y-97.37
X53.07Y-116.43
X57.83Y-135.48
X61.69Y-97.37
X64.07Y-116.43
X68.83Y-135.48
X69.74Y-97.37
X74.49Y-116.42
X80.74Y-97.37
X84.04Y-135.45
X85.49Y-116.42
X88.79Y-97.37
X88.79Y-154.53
X93.54Y-116.42
X95.04Y-135.45
X99.79Y-97.37
X99.79Y-154.53
X103.09Y-135.45
X104.54Y-116.42
X107.84Y-97.37
X107.84Y-154.53
X112.59Y-116.42
X114.09Y-135.45
X118.84Y-97.37
X118.84Y-154.53
X122.14Y-135.45
X123.59Y-116.42
X126.89Y-97.37
X131.64Y-116.42
X131.64Y-154.54
X133.14Y-135.45
X137.89Y-97.37
X141.19Y-135.45
X142.64Y-116.42
X142.64Y-154.54
X152.19Y-135.45
T3
X51.19Y-101.07
X53.57Y-120.13
X56.19Y-103.27
X58.33Y-139.18
X58.57Y-122.33
X63.33Y-141.38
X70.24Y-101.07
X74.99Y-120.12
X75.24Y-103.27
X79.99Y-122.32
X84.54Y-139.15
X89.29Y-101.07
X89.29Y-158.23
X89.54Y-141.35
X94.04Y-120.12
X94.29Y-103.27
X94.29Y-160.43
X99.04Y-122.32
X103.59Y-139.15
X108.34Y-101.07
X108.34Y-158.23
X108.59Y-141.35
X113.09Y-120.12
X113.34Y-103.27
X113.34Y-160.43
X118.09Y-122.32
X122.64Y-139.15
X127.39Y-101.07
X127.64Y-141.35
X132.14Y-120.12
X132.14Y-158.24
X132.39Y-103.27
X137.14Y-122.32
X137.14Y-160.44
X141.69Y-139.15
X146.69Y-141.35
T4
X56.19Y-97.37
X58.57Y-116.43
X63.33Y-135.48
X75.24Y-97.37
X79.99Y-116.42
X89.54Y-135.45
X94.29Y-97.37
X94.29Y-154.53
X99.04Y-116.42
X108.59Y-135.45
X113.34Y-97.37
X113.34Y-154.53
X118.09Y-116.42
X127.64Y-135.45
X132.39Y-97.37
X137.14Y-116.42
X137.14Y-154.54
X146.69Y-135.45
T0
M30
