%TF.GenerationSoftware,KiCad,Pcbnew,7.0.8*%
%TF.CreationDate,2024-11-17T17:07:28+09:00*%
%TF.ProjectId,cool937r,636f6f6c-3933-4377-922e-6b696361645f,rev?*%
%TF.SameCoordinates,Original*%
%TF.FileFunction,Legend,Bot*%
%TF.FilePolarity,Positive*%
%FSLAX46Y46*%
G04 Gerber Fmt 4.6, Leading zero omitted, Abs format (unit mm)*
G04 Created by KiCad (PCBNEW 7.0.8) date 2024-11-17 17:07:28*
%MOMM*%
%LPD*%
G01*
G04 APERTURE LIST*
%ADD10C,0.150000*%
%ADD11C,0.125000*%
%ADD12C,0.120000*%
%ADD13C,1.524000*%
%ADD14R,1.524000X1.524000*%
G04 APERTURE END LIST*
D10*
X207364819Y-106940618D02*
X206888628Y-106607285D01*
X207364819Y-106369190D02*
X206364819Y-106369190D01*
X206364819Y-106369190D02*
X206364819Y-106750142D01*
X206364819Y-106750142D02*
X206412438Y-106845380D01*
X206412438Y-106845380D02*
X206460057Y-106892999D01*
X206460057Y-106892999D02*
X206555295Y-106940618D01*
X206555295Y-106940618D02*
X206698152Y-106940618D01*
X206698152Y-106940618D02*
X206793390Y-106892999D01*
X206793390Y-106892999D02*
X206841009Y-106845380D01*
X206841009Y-106845380D02*
X206888628Y-106750142D01*
X206888628Y-106750142D02*
X206888628Y-106369190D01*
X206841009Y-107369190D02*
X206841009Y-107702523D01*
X207364819Y-107845380D02*
X207364819Y-107369190D01*
X207364819Y-107369190D02*
X206364819Y-107369190D01*
X206364819Y-107369190D02*
X206364819Y-107845380D01*
X207317200Y-108226333D02*
X207364819Y-108369190D01*
X207364819Y-108369190D02*
X207364819Y-108607285D01*
X207364819Y-108607285D02*
X207317200Y-108702523D01*
X207317200Y-108702523D02*
X207269580Y-108750142D01*
X207269580Y-108750142D02*
X207174342Y-108797761D01*
X207174342Y-108797761D02*
X207079104Y-108797761D01*
X207079104Y-108797761D02*
X206983866Y-108750142D01*
X206983866Y-108750142D02*
X206936247Y-108702523D01*
X206936247Y-108702523D02*
X206888628Y-108607285D01*
X206888628Y-108607285D02*
X206841009Y-108416809D01*
X206841009Y-108416809D02*
X206793390Y-108321571D01*
X206793390Y-108321571D02*
X206745771Y-108273952D01*
X206745771Y-108273952D02*
X206650533Y-108226333D01*
X206650533Y-108226333D02*
X206555295Y-108226333D01*
X206555295Y-108226333D02*
X206460057Y-108273952D01*
X206460057Y-108273952D02*
X206412438Y-108321571D01*
X206412438Y-108321571D02*
X206364819Y-108416809D01*
X206364819Y-108416809D02*
X206364819Y-108654904D01*
X206364819Y-108654904D02*
X206412438Y-108797761D01*
X206841009Y-109226333D02*
X206841009Y-109559666D01*
X207364819Y-109702523D02*
X207364819Y-109226333D01*
X207364819Y-109226333D02*
X206364819Y-109226333D01*
X206364819Y-109226333D02*
X206364819Y-109702523D01*
X206364819Y-109988238D02*
X206364819Y-110559666D01*
X207364819Y-110273952D02*
X206364819Y-110273952D01*
D11*
X181464392Y-143302589D02*
X181428678Y-143206875D01*
X181428678Y-143206875D02*
X181392964Y-143174970D01*
X181392964Y-143174970D02*
X181321535Y-143143066D01*
X181321535Y-143143066D02*
X181214392Y-143143066D01*
X181214392Y-143143066D02*
X181142964Y-143174970D01*
X181142964Y-143174970D02*
X181107250Y-143206875D01*
X181107250Y-143206875D02*
X181071535Y-143270685D01*
X181071535Y-143270685D02*
X181071535Y-143525923D01*
X181071535Y-143525923D02*
X181821535Y-143525923D01*
X181821535Y-143525923D02*
X181821535Y-143302589D01*
X181821535Y-143302589D02*
X181785821Y-143238780D01*
X181785821Y-143238780D02*
X181750107Y-143206875D01*
X181750107Y-143206875D02*
X181678678Y-143174970D01*
X181678678Y-143174970D02*
X181607250Y-143174970D01*
X181607250Y-143174970D02*
X181535821Y-143206875D01*
X181535821Y-143206875D02*
X181500107Y-143238780D01*
X181500107Y-143238780D02*
X181464392Y-143302589D01*
X181464392Y-143302589D02*
X181464392Y-143525923D01*
X181571535Y-142568780D02*
X181071535Y-142568780D01*
X181857250Y-142728304D02*
X181321535Y-142887827D01*
X181321535Y-142887827D02*
X181321535Y-142473066D01*
X181857250Y-141739256D02*
X180892964Y-142313542D01*
X181500107Y-141420208D02*
X181535821Y-141484018D01*
X181535821Y-141484018D02*
X181571535Y-141515923D01*
X181571535Y-141515923D02*
X181642964Y-141547827D01*
X181642964Y-141547827D02*
X181678678Y-141547827D01*
X181678678Y-141547827D02*
X181750107Y-141515923D01*
X181750107Y-141515923D02*
X181785821Y-141484018D01*
X181785821Y-141484018D02*
X181821535Y-141420208D01*
X181821535Y-141420208D02*
X181821535Y-141292589D01*
X181821535Y-141292589D02*
X181785821Y-141228780D01*
X181785821Y-141228780D02*
X181750107Y-141196875D01*
X181750107Y-141196875D02*
X181678678Y-141164970D01*
X181678678Y-141164970D02*
X181642964Y-141164970D01*
X181642964Y-141164970D02*
X181571535Y-141196875D01*
X181571535Y-141196875D02*
X181535821Y-141228780D01*
X181535821Y-141228780D02*
X181500107Y-141292589D01*
X181500107Y-141292589D02*
X181500107Y-141420208D01*
X181500107Y-141420208D02*
X181464392Y-141484018D01*
X181464392Y-141484018D02*
X181428678Y-141515923D01*
X181428678Y-141515923D02*
X181357250Y-141547827D01*
X181357250Y-141547827D02*
X181214392Y-141547827D01*
X181214392Y-141547827D02*
X181142964Y-141515923D01*
X181142964Y-141515923D02*
X181107250Y-141484018D01*
X181107250Y-141484018D02*
X181071535Y-141420208D01*
X181071535Y-141420208D02*
X181071535Y-141292589D01*
X181071535Y-141292589D02*
X181107250Y-141228780D01*
X181107250Y-141228780D02*
X181142964Y-141196875D01*
X181142964Y-141196875D02*
X181214392Y-141164970D01*
X181214392Y-141164970D02*
X181357250Y-141164970D01*
X181357250Y-141164970D02*
X181428678Y-141196875D01*
X181428678Y-141196875D02*
X181464392Y-141228780D01*
X181464392Y-141228780D02*
X181500107Y-141292589D01*
X199535821Y-142736875D02*
X199571535Y-142800685D01*
X199571535Y-142800685D02*
X199571535Y-142896399D01*
X199571535Y-142896399D02*
X199535821Y-142992113D01*
X199535821Y-142992113D02*
X199464392Y-143055923D01*
X199464392Y-143055923D02*
X199392964Y-143087828D01*
X199392964Y-143087828D02*
X199250107Y-143119732D01*
X199250107Y-143119732D02*
X199142964Y-143119732D01*
X199142964Y-143119732D02*
X199000107Y-143087828D01*
X199000107Y-143087828D02*
X198928678Y-143055923D01*
X198928678Y-143055923D02*
X198857250Y-142992113D01*
X198857250Y-142992113D02*
X198821535Y-142896399D01*
X198821535Y-142896399D02*
X198821535Y-142832590D01*
X198821535Y-142832590D02*
X198857250Y-142736875D01*
X198857250Y-142736875D02*
X198892964Y-142704971D01*
X198892964Y-142704971D02*
X199142964Y-142704971D01*
X199142964Y-142704971D02*
X199142964Y-142832590D01*
X198821535Y-142417828D02*
X199571535Y-142417828D01*
X199571535Y-142417828D02*
X198821535Y-142034971D01*
X198821535Y-142034971D02*
X199571535Y-142034971D01*
X198821535Y-141715923D02*
X199571535Y-141715923D01*
X199571535Y-141715923D02*
X199571535Y-141556399D01*
X199571535Y-141556399D02*
X199535821Y-141460685D01*
X199535821Y-141460685D02*
X199464392Y-141396875D01*
X199464392Y-141396875D02*
X199392964Y-141364970D01*
X199392964Y-141364970D02*
X199250107Y-141333066D01*
X199250107Y-141333066D02*
X199142964Y-141333066D01*
X199142964Y-141333066D02*
X199000107Y-141364970D01*
X199000107Y-141364970D02*
X198928678Y-141396875D01*
X198928678Y-141396875D02*
X198857250Y-141460685D01*
X198857250Y-141460685D02*
X198821535Y-141556399D01*
X198821535Y-141556399D02*
X198821535Y-141715923D01*
X201985821Y-142736875D02*
X202021535Y-142800685D01*
X202021535Y-142800685D02*
X202021535Y-142896399D01*
X202021535Y-142896399D02*
X201985821Y-142992113D01*
X201985821Y-142992113D02*
X201914392Y-143055923D01*
X201914392Y-143055923D02*
X201842964Y-143087828D01*
X201842964Y-143087828D02*
X201700107Y-143119732D01*
X201700107Y-143119732D02*
X201592964Y-143119732D01*
X201592964Y-143119732D02*
X201450107Y-143087828D01*
X201450107Y-143087828D02*
X201378678Y-143055923D01*
X201378678Y-143055923D02*
X201307250Y-142992113D01*
X201307250Y-142992113D02*
X201271535Y-142896399D01*
X201271535Y-142896399D02*
X201271535Y-142832590D01*
X201271535Y-142832590D02*
X201307250Y-142736875D01*
X201307250Y-142736875D02*
X201342964Y-142704971D01*
X201342964Y-142704971D02*
X201592964Y-142704971D01*
X201592964Y-142704971D02*
X201592964Y-142832590D01*
X201271535Y-142417828D02*
X202021535Y-142417828D01*
X202021535Y-142417828D02*
X201271535Y-142034971D01*
X201271535Y-142034971D02*
X202021535Y-142034971D01*
X201271535Y-141715923D02*
X202021535Y-141715923D01*
X202021535Y-141715923D02*
X202021535Y-141556399D01*
X202021535Y-141556399D02*
X201985821Y-141460685D01*
X201985821Y-141460685D02*
X201914392Y-141396875D01*
X201914392Y-141396875D02*
X201842964Y-141364970D01*
X201842964Y-141364970D02*
X201700107Y-141333066D01*
X201700107Y-141333066D02*
X201592964Y-141333066D01*
X201592964Y-141333066D02*
X201450107Y-141364970D01*
X201450107Y-141364970D02*
X201378678Y-141396875D01*
X201378678Y-141396875D02*
X201307250Y-141460685D01*
X201307250Y-141460685D02*
X201271535Y-141556399D01*
X201271535Y-141556399D02*
X201271535Y-141715923D01*
X188885821Y-153182113D02*
X188885821Y-152863066D01*
X188671535Y-153245923D02*
X189421535Y-153022590D01*
X189421535Y-153022590D02*
X188671535Y-152799256D01*
X189421535Y-152448304D02*
X189421535Y-152384494D01*
X189421535Y-152384494D02*
X189385821Y-152320685D01*
X189385821Y-152320685D02*
X189350107Y-152288780D01*
X189350107Y-152288780D02*
X189278678Y-152256875D01*
X189278678Y-152256875D02*
X189135821Y-152224970D01*
X189135821Y-152224970D02*
X188957250Y-152224970D01*
X188957250Y-152224970D02*
X188814392Y-152256875D01*
X188814392Y-152256875D02*
X188742964Y-152288780D01*
X188742964Y-152288780D02*
X188707250Y-152320685D01*
X188707250Y-152320685D02*
X188671535Y-152384494D01*
X188671535Y-152384494D02*
X188671535Y-152448304D01*
X188671535Y-152448304D02*
X188707250Y-152512113D01*
X188707250Y-152512113D02*
X188742964Y-152544018D01*
X188742964Y-152544018D02*
X188814392Y-152575923D01*
X188814392Y-152575923D02*
X188957250Y-152607827D01*
X188957250Y-152607827D02*
X189135821Y-152607827D01*
X189135821Y-152607827D02*
X189278678Y-152575923D01*
X189278678Y-152575923D02*
X189350107Y-152544018D01*
X189350107Y-152544018D02*
X189385821Y-152512113D01*
X189385821Y-152512113D02*
X189421535Y-152448304D01*
X189457250Y-151459256D02*
X188492964Y-152033542D01*
X189064392Y-151012589D02*
X189064392Y-151235923D01*
X188671535Y-151235923D02*
X189421535Y-151235923D01*
X189421535Y-151235923D02*
X189421535Y-150916875D01*
X189421535Y-150725446D02*
X189421535Y-150278780D01*
X189421535Y-150278780D02*
X188671535Y-150565922D01*
X193935821Y-153182113D02*
X193935821Y-152863066D01*
X193721535Y-153245923D02*
X194471535Y-153022590D01*
X194471535Y-153022590D02*
X193721535Y-152799256D01*
X194400107Y-152607827D02*
X194435821Y-152575923D01*
X194435821Y-152575923D02*
X194471535Y-152512113D01*
X194471535Y-152512113D02*
X194471535Y-152352589D01*
X194471535Y-152352589D02*
X194435821Y-152288780D01*
X194435821Y-152288780D02*
X194400107Y-152256875D01*
X194400107Y-152256875D02*
X194328678Y-152224970D01*
X194328678Y-152224970D02*
X194257250Y-152224970D01*
X194257250Y-152224970D02*
X194150107Y-152256875D01*
X194150107Y-152256875D02*
X193721535Y-152639732D01*
X193721535Y-152639732D02*
X193721535Y-152224970D01*
X194507250Y-151459256D02*
X193542964Y-152033542D01*
X194114392Y-151012589D02*
X194114392Y-151235923D01*
X193721535Y-151235923D02*
X194471535Y-151235923D01*
X194471535Y-151235923D02*
X194471535Y-150916875D01*
X194471535Y-150342589D02*
X194471535Y-150661637D01*
X194471535Y-150661637D02*
X194114392Y-150693541D01*
X194114392Y-150693541D02*
X194150107Y-150661637D01*
X194150107Y-150661637D02*
X194185821Y-150597827D01*
X194185821Y-150597827D02*
X194185821Y-150438303D01*
X194185821Y-150438303D02*
X194150107Y-150374494D01*
X194150107Y-150374494D02*
X194114392Y-150342589D01*
X194114392Y-150342589D02*
X194042964Y-150310684D01*
X194042964Y-150310684D02*
X193864392Y-150310684D01*
X193864392Y-150310684D02*
X193792964Y-150342589D01*
X193792964Y-150342589D02*
X193757250Y-150374494D01*
X193757250Y-150374494D02*
X193721535Y-150438303D01*
X193721535Y-150438303D02*
X193721535Y-150597827D01*
X193721535Y-150597827D02*
X193757250Y-150661637D01*
X193757250Y-150661637D02*
X193792964Y-150693541D01*
X203871535Y-144999971D02*
X204621535Y-144999971D01*
X204621535Y-144999971D02*
X204621535Y-144840447D01*
X204621535Y-144840447D02*
X204585821Y-144744733D01*
X204585821Y-144744733D02*
X204514392Y-144680923D01*
X204514392Y-144680923D02*
X204442964Y-144649018D01*
X204442964Y-144649018D02*
X204300107Y-144617114D01*
X204300107Y-144617114D02*
X204192964Y-144617114D01*
X204192964Y-144617114D02*
X204050107Y-144649018D01*
X204050107Y-144649018D02*
X203978678Y-144680923D01*
X203978678Y-144680923D02*
X203907250Y-144744733D01*
X203907250Y-144744733D02*
X203871535Y-144840447D01*
X203871535Y-144840447D02*
X203871535Y-144999971D01*
X204550107Y-144361875D02*
X204585821Y-144329971D01*
X204585821Y-144329971D02*
X204621535Y-144266161D01*
X204621535Y-144266161D02*
X204621535Y-144106637D01*
X204621535Y-144106637D02*
X204585821Y-144042828D01*
X204585821Y-144042828D02*
X204550107Y-144010923D01*
X204550107Y-144010923D02*
X204478678Y-143979018D01*
X204478678Y-143979018D02*
X204407250Y-143979018D01*
X204407250Y-143979018D02*
X204300107Y-144010923D01*
X204300107Y-144010923D02*
X203871535Y-144393780D01*
X203871535Y-144393780D02*
X203871535Y-143979018D01*
X204657250Y-143213304D02*
X203692964Y-143787590D01*
X203871535Y-142607114D02*
X204228678Y-142830447D01*
X203871535Y-142989971D02*
X204621535Y-142989971D01*
X204621535Y-142989971D02*
X204621535Y-142734733D01*
X204621535Y-142734733D02*
X204585821Y-142670923D01*
X204585821Y-142670923D02*
X204550107Y-142639018D01*
X204550107Y-142639018D02*
X204478678Y-142607114D01*
X204478678Y-142607114D02*
X204371535Y-142607114D01*
X204371535Y-142607114D02*
X204300107Y-142639018D01*
X204300107Y-142639018D02*
X204264392Y-142670923D01*
X204264392Y-142670923D02*
X204228678Y-142734733D01*
X204228678Y-142734733D02*
X204228678Y-142989971D01*
X204621535Y-142383780D02*
X203871535Y-141937114D01*
X204621535Y-141937114D02*
X203871535Y-142383780D01*
X203871535Y-141330923D02*
X203871535Y-141713780D01*
X203871535Y-141522352D02*
X204621535Y-141522352D01*
X204621535Y-141522352D02*
X204514392Y-141586161D01*
X204514392Y-141586161D02*
X204442964Y-141649971D01*
X204442964Y-141649971D02*
X204407250Y-141713780D01*
X186171535Y-143525923D02*
X186921535Y-143525923D01*
X186921535Y-143525923D02*
X186921535Y-143366399D01*
X186921535Y-143366399D02*
X186885821Y-143270685D01*
X186885821Y-143270685D02*
X186814392Y-143206875D01*
X186814392Y-143206875D02*
X186742964Y-143174970D01*
X186742964Y-143174970D02*
X186600107Y-143143066D01*
X186600107Y-143143066D02*
X186492964Y-143143066D01*
X186492964Y-143143066D02*
X186350107Y-143174970D01*
X186350107Y-143174970D02*
X186278678Y-143206875D01*
X186278678Y-143206875D02*
X186207250Y-143270685D01*
X186207250Y-143270685D02*
X186171535Y-143366399D01*
X186171535Y-143366399D02*
X186171535Y-143525923D01*
X186921535Y-142919732D02*
X186921535Y-142473066D01*
X186921535Y-142473066D02*
X186171535Y-142760208D01*
X186957250Y-141739256D02*
X185992964Y-142313542D01*
X186921535Y-141228780D02*
X186921535Y-141356399D01*
X186921535Y-141356399D02*
X186885821Y-141420208D01*
X186885821Y-141420208D02*
X186850107Y-141452113D01*
X186850107Y-141452113D02*
X186742964Y-141515923D01*
X186742964Y-141515923D02*
X186600107Y-141547827D01*
X186600107Y-141547827D02*
X186314392Y-141547827D01*
X186314392Y-141547827D02*
X186242964Y-141515923D01*
X186242964Y-141515923D02*
X186207250Y-141484018D01*
X186207250Y-141484018D02*
X186171535Y-141420208D01*
X186171535Y-141420208D02*
X186171535Y-141292589D01*
X186171535Y-141292589D02*
X186207250Y-141228780D01*
X186207250Y-141228780D02*
X186242964Y-141196875D01*
X186242964Y-141196875D02*
X186314392Y-141164970D01*
X186314392Y-141164970D02*
X186492964Y-141164970D01*
X186492964Y-141164970D02*
X186564392Y-141196875D01*
X186564392Y-141196875D02*
X186600107Y-141228780D01*
X186600107Y-141228780D02*
X186635821Y-141292589D01*
X186635821Y-141292589D02*
X186635821Y-141420208D01*
X186635821Y-141420208D02*
X186600107Y-141484018D01*
X186600107Y-141484018D02*
X186564392Y-141515923D01*
X186564392Y-141515923D02*
X186492964Y-141547827D01*
X206421535Y-144920209D02*
X207171535Y-144920209D01*
X207171535Y-144920209D02*
X207171535Y-144760685D01*
X207171535Y-144760685D02*
X207135821Y-144664971D01*
X207135821Y-144664971D02*
X207064392Y-144601161D01*
X207064392Y-144601161D02*
X206992964Y-144569256D01*
X206992964Y-144569256D02*
X206850107Y-144537352D01*
X206850107Y-144537352D02*
X206742964Y-144537352D01*
X206742964Y-144537352D02*
X206600107Y-144569256D01*
X206600107Y-144569256D02*
X206528678Y-144601161D01*
X206528678Y-144601161D02*
X206457250Y-144664971D01*
X206457250Y-144664971D02*
X206421535Y-144760685D01*
X206421535Y-144760685D02*
X206421535Y-144920209D01*
X207171535Y-144314018D02*
X207171535Y-143899256D01*
X207171535Y-143899256D02*
X206885821Y-144122590D01*
X206885821Y-144122590D02*
X206885821Y-144026875D01*
X206885821Y-144026875D02*
X206850107Y-143963066D01*
X206850107Y-143963066D02*
X206814392Y-143931161D01*
X206814392Y-143931161D02*
X206742964Y-143899256D01*
X206742964Y-143899256D02*
X206564392Y-143899256D01*
X206564392Y-143899256D02*
X206492964Y-143931161D01*
X206492964Y-143931161D02*
X206457250Y-143963066D01*
X206457250Y-143963066D02*
X206421535Y-144026875D01*
X206421535Y-144026875D02*
X206421535Y-144218304D01*
X206421535Y-144218304D02*
X206457250Y-144282113D01*
X206457250Y-144282113D02*
X206492964Y-144314018D01*
X207207250Y-143133542D02*
X206242964Y-143707828D01*
X207171535Y-143005923D02*
X207171535Y-142623066D01*
X206421535Y-142814494D02*
X207171535Y-142814494D01*
X207171535Y-142463542D02*
X206421535Y-142016876D01*
X207171535Y-142016876D02*
X206421535Y-142463542D01*
X207171535Y-141634019D02*
X207171535Y-141570209D01*
X207171535Y-141570209D02*
X207135821Y-141506400D01*
X207135821Y-141506400D02*
X207100107Y-141474495D01*
X207100107Y-141474495D02*
X207028678Y-141442590D01*
X207028678Y-141442590D02*
X206885821Y-141410685D01*
X206885821Y-141410685D02*
X206707250Y-141410685D01*
X206707250Y-141410685D02*
X206564392Y-141442590D01*
X206564392Y-141442590D02*
X206492964Y-141474495D01*
X206492964Y-141474495D02*
X206457250Y-141506400D01*
X206457250Y-141506400D02*
X206421535Y-141570209D01*
X206421535Y-141570209D02*
X206421535Y-141634019D01*
X206421535Y-141634019D02*
X206457250Y-141697828D01*
X206457250Y-141697828D02*
X206492964Y-141729733D01*
X206492964Y-141729733D02*
X206564392Y-141761638D01*
X206564392Y-141761638D02*
X206707250Y-141793542D01*
X206707250Y-141793542D02*
X206885821Y-141793542D01*
X206885821Y-141793542D02*
X207028678Y-141761638D01*
X207028678Y-141761638D02*
X207100107Y-141729733D01*
X207100107Y-141729733D02*
X207135821Y-141697828D01*
X207135821Y-141697828D02*
X207171535Y-141634019D01*
X201371535Y-152733304D02*
X201728678Y-152956637D01*
X201371535Y-153116161D02*
X202121535Y-153116161D01*
X202121535Y-153116161D02*
X202121535Y-152860923D01*
X202121535Y-152860923D02*
X202085821Y-152797113D01*
X202085821Y-152797113D02*
X202050107Y-152765208D01*
X202050107Y-152765208D02*
X201978678Y-152733304D01*
X201978678Y-152733304D02*
X201871535Y-152733304D01*
X201871535Y-152733304D02*
X201800107Y-152765208D01*
X201800107Y-152765208D02*
X201764392Y-152797113D01*
X201764392Y-152797113D02*
X201728678Y-152860923D01*
X201728678Y-152860923D02*
X201728678Y-153116161D01*
X201407250Y-152478065D02*
X201371535Y-152382351D01*
X201371535Y-152382351D02*
X201371535Y-152222827D01*
X201371535Y-152222827D02*
X201407250Y-152159018D01*
X201407250Y-152159018D02*
X201442964Y-152127113D01*
X201442964Y-152127113D02*
X201514392Y-152095208D01*
X201514392Y-152095208D02*
X201585821Y-152095208D01*
X201585821Y-152095208D02*
X201657250Y-152127113D01*
X201657250Y-152127113D02*
X201692964Y-152159018D01*
X201692964Y-152159018D02*
X201728678Y-152222827D01*
X201728678Y-152222827D02*
X201764392Y-152350446D01*
X201764392Y-152350446D02*
X201800107Y-152414256D01*
X201800107Y-152414256D02*
X201835821Y-152446161D01*
X201835821Y-152446161D02*
X201907250Y-152478065D01*
X201907250Y-152478065D02*
X201978678Y-152478065D01*
X201978678Y-152478065D02*
X202050107Y-152446161D01*
X202050107Y-152446161D02*
X202085821Y-152414256D01*
X202085821Y-152414256D02*
X202121535Y-152350446D01*
X202121535Y-152350446D02*
X202121535Y-152190923D01*
X202121535Y-152190923D02*
X202085821Y-152095208D01*
X202121535Y-151903780D02*
X202121535Y-151520923D01*
X201371535Y-151712351D02*
X202121535Y-151712351D01*
X199671535Y-153259733D02*
X198921535Y-153036400D01*
X198921535Y-153036400D02*
X199671535Y-152813066D01*
X198992964Y-152206876D02*
X198957250Y-152238780D01*
X198957250Y-152238780D02*
X198921535Y-152334495D01*
X198921535Y-152334495D02*
X198921535Y-152398304D01*
X198921535Y-152398304D02*
X198957250Y-152494018D01*
X198957250Y-152494018D02*
X199028678Y-152557828D01*
X199028678Y-152557828D02*
X199100107Y-152589733D01*
X199100107Y-152589733D02*
X199242964Y-152621637D01*
X199242964Y-152621637D02*
X199350107Y-152621637D01*
X199350107Y-152621637D02*
X199492964Y-152589733D01*
X199492964Y-152589733D02*
X199564392Y-152557828D01*
X199564392Y-152557828D02*
X199635821Y-152494018D01*
X199635821Y-152494018D02*
X199671535Y-152398304D01*
X199671535Y-152398304D02*
X199671535Y-152334495D01*
X199671535Y-152334495D02*
X199635821Y-152238780D01*
X199635821Y-152238780D02*
X199600107Y-152206876D01*
X198992964Y-151536876D02*
X198957250Y-151568780D01*
X198957250Y-151568780D02*
X198921535Y-151664495D01*
X198921535Y-151664495D02*
X198921535Y-151728304D01*
X198921535Y-151728304D02*
X198957250Y-151824018D01*
X198957250Y-151824018D02*
X199028678Y-151887828D01*
X199028678Y-151887828D02*
X199100107Y-151919733D01*
X199100107Y-151919733D02*
X199242964Y-151951637D01*
X199242964Y-151951637D02*
X199350107Y-151951637D01*
X199350107Y-151951637D02*
X199492964Y-151919733D01*
X199492964Y-151919733D02*
X199564392Y-151887828D01*
X199564392Y-151887828D02*
X199635821Y-151824018D01*
X199635821Y-151824018D02*
X199671535Y-151728304D01*
X199671535Y-151728304D02*
X199671535Y-151664495D01*
X199671535Y-151664495D02*
X199635821Y-151568780D01*
X199635821Y-151568780D02*
X199600107Y-151536876D01*
X206471535Y-152829019D02*
X206828678Y-153052352D01*
X206471535Y-153211876D02*
X207221535Y-153211876D01*
X207221535Y-153211876D02*
X207221535Y-152956638D01*
X207221535Y-152956638D02*
X207185821Y-152892828D01*
X207185821Y-152892828D02*
X207150107Y-152860923D01*
X207150107Y-152860923D02*
X207078678Y-152829019D01*
X207078678Y-152829019D02*
X206971535Y-152829019D01*
X206971535Y-152829019D02*
X206900107Y-152860923D01*
X206900107Y-152860923D02*
X206864392Y-152892828D01*
X206864392Y-152892828D02*
X206828678Y-152956638D01*
X206828678Y-152956638D02*
X206828678Y-153211876D01*
X206685821Y-152573780D02*
X206685821Y-152254733D01*
X206471535Y-152637590D02*
X207221535Y-152414257D01*
X207221535Y-152414257D02*
X206471535Y-152190923D01*
X207221535Y-152031399D02*
X206471535Y-151871875D01*
X206471535Y-151871875D02*
X207007250Y-151744256D01*
X207007250Y-151744256D02*
X206471535Y-151616637D01*
X206471535Y-151616637D02*
X207221535Y-151457114D01*
X209284392Y-152860923D02*
X209248678Y-152765209D01*
X209248678Y-152765209D02*
X209212964Y-152733304D01*
X209212964Y-152733304D02*
X209141535Y-152701400D01*
X209141535Y-152701400D02*
X209034392Y-152701400D01*
X209034392Y-152701400D02*
X208962964Y-152733304D01*
X208962964Y-152733304D02*
X208927250Y-152765209D01*
X208927250Y-152765209D02*
X208891535Y-152829019D01*
X208891535Y-152829019D02*
X208891535Y-153084257D01*
X208891535Y-153084257D02*
X209641535Y-153084257D01*
X209641535Y-153084257D02*
X209641535Y-152860923D01*
X209641535Y-152860923D02*
X209605821Y-152797114D01*
X209605821Y-152797114D02*
X209570107Y-152765209D01*
X209570107Y-152765209D02*
X209498678Y-152733304D01*
X209498678Y-152733304D02*
X209427250Y-152733304D01*
X209427250Y-152733304D02*
X209355821Y-152765209D01*
X209355821Y-152765209D02*
X209320107Y-152797114D01*
X209320107Y-152797114D02*
X209284392Y-152860923D01*
X209284392Y-152860923D02*
X209284392Y-153084257D01*
X209105821Y-152446161D02*
X209105821Y-152127114D01*
X208891535Y-152509971D02*
X209641535Y-152286638D01*
X209641535Y-152286638D02*
X208891535Y-152063304D01*
X209641535Y-151935685D02*
X209641535Y-151552828D01*
X208891535Y-151744256D02*
X209641535Y-151744256D01*
X204635821Y-152876875D02*
X204671535Y-152940685D01*
X204671535Y-152940685D02*
X204671535Y-153036399D01*
X204671535Y-153036399D02*
X204635821Y-153132113D01*
X204635821Y-153132113D02*
X204564392Y-153195923D01*
X204564392Y-153195923D02*
X204492964Y-153227828D01*
X204492964Y-153227828D02*
X204350107Y-153259732D01*
X204350107Y-153259732D02*
X204242964Y-153259732D01*
X204242964Y-153259732D02*
X204100107Y-153227828D01*
X204100107Y-153227828D02*
X204028678Y-153195923D01*
X204028678Y-153195923D02*
X203957250Y-153132113D01*
X203957250Y-153132113D02*
X203921535Y-153036399D01*
X203921535Y-153036399D02*
X203921535Y-152972590D01*
X203921535Y-152972590D02*
X203957250Y-152876875D01*
X203957250Y-152876875D02*
X203992964Y-152844971D01*
X203992964Y-152844971D02*
X204242964Y-152844971D01*
X204242964Y-152844971D02*
X204242964Y-152972590D01*
X203921535Y-152557828D02*
X204671535Y-152557828D01*
X204671535Y-152557828D02*
X203921535Y-152174971D01*
X203921535Y-152174971D02*
X204671535Y-152174971D01*
X203921535Y-151855923D02*
X204671535Y-151855923D01*
X204671535Y-151855923D02*
X204671535Y-151696399D01*
X204671535Y-151696399D02*
X204635821Y-151600685D01*
X204635821Y-151600685D02*
X204564392Y-151536875D01*
X204564392Y-151536875D02*
X204492964Y-151504970D01*
X204492964Y-151504970D02*
X204350107Y-151473066D01*
X204350107Y-151473066D02*
X204242964Y-151473066D01*
X204242964Y-151473066D02*
X204100107Y-151504970D01*
X204100107Y-151504970D02*
X204028678Y-151536875D01*
X204028678Y-151536875D02*
X203957250Y-151600685D01*
X203957250Y-151600685D02*
X203921535Y-151696399D01*
X203921535Y-151696399D02*
X203921535Y-151855923D01*
X191435821Y-153182113D02*
X191435821Y-152863066D01*
X191221535Y-153245923D02*
X191971535Y-153022590D01*
X191971535Y-153022590D02*
X191221535Y-152799256D01*
X191221535Y-152224970D02*
X191221535Y-152607827D01*
X191221535Y-152416399D02*
X191971535Y-152416399D01*
X191971535Y-152416399D02*
X191864392Y-152480208D01*
X191864392Y-152480208D02*
X191792964Y-152544018D01*
X191792964Y-152544018D02*
X191757250Y-152607827D01*
X192007250Y-151459256D02*
X191042964Y-152033542D01*
X191614392Y-151012589D02*
X191614392Y-151235923D01*
X191221535Y-151235923D02*
X191971535Y-151235923D01*
X191971535Y-151235923D02*
X191971535Y-150916875D01*
X191971535Y-150374494D02*
X191971535Y-150502113D01*
X191971535Y-150502113D02*
X191935821Y-150565922D01*
X191935821Y-150565922D02*
X191900107Y-150597827D01*
X191900107Y-150597827D02*
X191792964Y-150661637D01*
X191792964Y-150661637D02*
X191650107Y-150693541D01*
X191650107Y-150693541D02*
X191364392Y-150693541D01*
X191364392Y-150693541D02*
X191292964Y-150661637D01*
X191292964Y-150661637D02*
X191257250Y-150629732D01*
X191257250Y-150629732D02*
X191221535Y-150565922D01*
X191221535Y-150565922D02*
X191221535Y-150438303D01*
X191221535Y-150438303D02*
X191257250Y-150374494D01*
X191257250Y-150374494D02*
X191292964Y-150342589D01*
X191292964Y-150342589D02*
X191364392Y-150310684D01*
X191364392Y-150310684D02*
X191542964Y-150310684D01*
X191542964Y-150310684D02*
X191614392Y-150342589D01*
X191614392Y-150342589D02*
X191650107Y-150374494D01*
X191650107Y-150374494D02*
X191685821Y-150438303D01*
X191685821Y-150438303D02*
X191685821Y-150565922D01*
X191685821Y-150565922D02*
X191650107Y-150629732D01*
X191650107Y-150629732D02*
X191614392Y-150661637D01*
X191614392Y-150661637D02*
X191542964Y-150693541D01*
X196435821Y-153182113D02*
X196435821Y-152863066D01*
X196221535Y-153245923D02*
X196971535Y-153022590D01*
X196971535Y-153022590D02*
X196221535Y-152799256D01*
X196971535Y-152639732D02*
X196971535Y-152224970D01*
X196971535Y-152224970D02*
X196685821Y-152448304D01*
X196685821Y-152448304D02*
X196685821Y-152352589D01*
X196685821Y-152352589D02*
X196650107Y-152288780D01*
X196650107Y-152288780D02*
X196614392Y-152256875D01*
X196614392Y-152256875D02*
X196542964Y-152224970D01*
X196542964Y-152224970D02*
X196364392Y-152224970D01*
X196364392Y-152224970D02*
X196292964Y-152256875D01*
X196292964Y-152256875D02*
X196257250Y-152288780D01*
X196257250Y-152288780D02*
X196221535Y-152352589D01*
X196221535Y-152352589D02*
X196221535Y-152544018D01*
X196221535Y-152544018D02*
X196257250Y-152607827D01*
X196257250Y-152607827D02*
X196292964Y-152639732D01*
X197007250Y-151459256D02*
X196042964Y-152033542D01*
X196614392Y-151012589D02*
X196614392Y-151235923D01*
X196221535Y-151235923D02*
X196971535Y-151235923D01*
X196971535Y-151235923D02*
X196971535Y-150916875D01*
X196721535Y-150374494D02*
X196221535Y-150374494D01*
X197007250Y-150534018D02*
X196471535Y-150693541D01*
X196471535Y-150693541D02*
X196471535Y-150278780D01*
X183571535Y-152879018D02*
X183571535Y-153261875D01*
X183571535Y-153070447D02*
X184321535Y-153070447D01*
X184321535Y-153070447D02*
X184214392Y-153134256D01*
X184214392Y-153134256D02*
X184142964Y-153198066D01*
X184142964Y-153198066D02*
X184107250Y-153261875D01*
X184071535Y-152304733D02*
X183571535Y-152304733D01*
X184357250Y-152464257D02*
X183821535Y-152623780D01*
X183821535Y-152623780D02*
X183821535Y-152209019D01*
X184357250Y-151475209D02*
X183392964Y-152049495D01*
X183964392Y-151028542D02*
X183928678Y-150932828D01*
X183928678Y-150932828D02*
X183892964Y-150900923D01*
X183892964Y-150900923D02*
X183821535Y-150869019D01*
X183821535Y-150869019D02*
X183714392Y-150869019D01*
X183714392Y-150869019D02*
X183642964Y-150900923D01*
X183642964Y-150900923D02*
X183607250Y-150932828D01*
X183607250Y-150932828D02*
X183571535Y-150996638D01*
X183571535Y-150996638D02*
X183571535Y-151251876D01*
X183571535Y-151251876D02*
X184321535Y-151251876D01*
X184321535Y-151251876D02*
X184321535Y-151028542D01*
X184321535Y-151028542D02*
X184285821Y-150964733D01*
X184285821Y-150964733D02*
X184250107Y-150932828D01*
X184250107Y-150932828D02*
X184178678Y-150900923D01*
X184178678Y-150900923D02*
X184107250Y-150900923D01*
X184107250Y-150900923D02*
X184035821Y-150932828D01*
X184035821Y-150932828D02*
X184000107Y-150964733D01*
X184000107Y-150964733D02*
X183964392Y-151028542D01*
X183964392Y-151028542D02*
X183964392Y-151251876D01*
X184321535Y-150645685D02*
X184321535Y-150230923D01*
X184321535Y-150230923D02*
X184035821Y-150454257D01*
X184035821Y-150454257D02*
X184035821Y-150358542D01*
X184035821Y-150358542D02*
X184000107Y-150294733D01*
X184000107Y-150294733D02*
X183964392Y-150262828D01*
X183964392Y-150262828D02*
X183892964Y-150230923D01*
X183892964Y-150230923D02*
X183714392Y-150230923D01*
X183714392Y-150230923D02*
X183642964Y-150262828D01*
X183642964Y-150262828D02*
X183607250Y-150294733D01*
X183607250Y-150294733D02*
X183571535Y-150358542D01*
X183571535Y-150358542D02*
X183571535Y-150549971D01*
X183571535Y-150549971D02*
X183607250Y-150613780D01*
X183607250Y-150613780D02*
X183642964Y-150645685D01*
X191271535Y-143525923D02*
X192021535Y-143525923D01*
X192021535Y-143525923D02*
X192021535Y-143366399D01*
X192021535Y-143366399D02*
X191985821Y-143270685D01*
X191985821Y-143270685D02*
X191914392Y-143206875D01*
X191914392Y-143206875D02*
X191842964Y-143174970D01*
X191842964Y-143174970D02*
X191700107Y-143143066D01*
X191700107Y-143143066D02*
X191592964Y-143143066D01*
X191592964Y-143143066D02*
X191450107Y-143174970D01*
X191450107Y-143174970D02*
X191378678Y-143206875D01*
X191378678Y-143206875D02*
X191307250Y-143270685D01*
X191307250Y-143270685D02*
X191271535Y-143366399D01*
X191271535Y-143366399D02*
X191271535Y-143525923D01*
X191771535Y-142568780D02*
X191271535Y-142568780D01*
X192057250Y-142728304D02*
X191521535Y-142887827D01*
X191521535Y-142887827D02*
X191521535Y-142473066D01*
X192057250Y-141739256D02*
X191092964Y-142313542D01*
X191771535Y-141228780D02*
X191271535Y-141228780D01*
X192057250Y-141388304D02*
X191521535Y-141547827D01*
X191521535Y-141547827D02*
X191521535Y-141133066D01*
X186121535Y-152879018D02*
X186121535Y-153261875D01*
X186121535Y-153070447D02*
X186871535Y-153070447D01*
X186871535Y-153070447D02*
X186764392Y-153134256D01*
X186764392Y-153134256D02*
X186692964Y-153198066D01*
X186692964Y-153198066D02*
X186657250Y-153261875D01*
X186871535Y-152272828D02*
X186871535Y-152591876D01*
X186871535Y-152591876D02*
X186514392Y-152623780D01*
X186514392Y-152623780D02*
X186550107Y-152591876D01*
X186550107Y-152591876D02*
X186585821Y-152528066D01*
X186585821Y-152528066D02*
X186585821Y-152368542D01*
X186585821Y-152368542D02*
X186550107Y-152304733D01*
X186550107Y-152304733D02*
X186514392Y-152272828D01*
X186514392Y-152272828D02*
X186442964Y-152240923D01*
X186442964Y-152240923D02*
X186264392Y-152240923D01*
X186264392Y-152240923D02*
X186192964Y-152272828D01*
X186192964Y-152272828D02*
X186157250Y-152304733D01*
X186157250Y-152304733D02*
X186121535Y-152368542D01*
X186121535Y-152368542D02*
X186121535Y-152528066D01*
X186121535Y-152528066D02*
X186157250Y-152591876D01*
X186157250Y-152591876D02*
X186192964Y-152623780D01*
X186907250Y-151475209D02*
X185942964Y-152049495D01*
X186514392Y-151028542D02*
X186478678Y-150932828D01*
X186478678Y-150932828D02*
X186442964Y-150900923D01*
X186442964Y-150900923D02*
X186371535Y-150869019D01*
X186371535Y-150869019D02*
X186264392Y-150869019D01*
X186264392Y-150869019D02*
X186192964Y-150900923D01*
X186192964Y-150900923D02*
X186157250Y-150932828D01*
X186157250Y-150932828D02*
X186121535Y-150996638D01*
X186121535Y-150996638D02*
X186121535Y-151251876D01*
X186121535Y-151251876D02*
X186871535Y-151251876D01*
X186871535Y-151251876D02*
X186871535Y-151028542D01*
X186871535Y-151028542D02*
X186835821Y-150964733D01*
X186835821Y-150964733D02*
X186800107Y-150932828D01*
X186800107Y-150932828D02*
X186728678Y-150900923D01*
X186728678Y-150900923D02*
X186657250Y-150900923D01*
X186657250Y-150900923D02*
X186585821Y-150932828D01*
X186585821Y-150932828D02*
X186550107Y-150964733D01*
X186550107Y-150964733D02*
X186514392Y-151028542D01*
X186514392Y-151028542D02*
X186514392Y-151251876D01*
X186121535Y-150230923D02*
X186121535Y-150613780D01*
X186121535Y-150422352D02*
X186871535Y-150422352D01*
X186871535Y-150422352D02*
X186764392Y-150486161D01*
X186764392Y-150486161D02*
X186692964Y-150549971D01*
X186692964Y-150549971D02*
X186657250Y-150613780D01*
X196207250Y-146239970D02*
X196171535Y-146144256D01*
X196171535Y-146144256D02*
X196171535Y-145984732D01*
X196171535Y-145984732D02*
X196207250Y-145920923D01*
X196207250Y-145920923D02*
X196242964Y-145889018D01*
X196242964Y-145889018D02*
X196314392Y-145857113D01*
X196314392Y-145857113D02*
X196385821Y-145857113D01*
X196385821Y-145857113D02*
X196457250Y-145889018D01*
X196457250Y-145889018D02*
X196492964Y-145920923D01*
X196492964Y-145920923D02*
X196528678Y-145984732D01*
X196528678Y-145984732D02*
X196564392Y-146112351D01*
X196564392Y-146112351D02*
X196600107Y-146176161D01*
X196600107Y-146176161D02*
X196635821Y-146208066D01*
X196635821Y-146208066D02*
X196707250Y-146239970D01*
X196707250Y-146239970D02*
X196778678Y-146239970D01*
X196778678Y-146239970D02*
X196850107Y-146208066D01*
X196850107Y-146208066D02*
X196885821Y-146176161D01*
X196885821Y-146176161D02*
X196921535Y-146112351D01*
X196921535Y-146112351D02*
X196921535Y-145952828D01*
X196921535Y-145952828D02*
X196885821Y-145857113D01*
X196171535Y-145569971D02*
X196921535Y-145569971D01*
X196921535Y-145569971D02*
X196921535Y-145410447D01*
X196921535Y-145410447D02*
X196885821Y-145314733D01*
X196885821Y-145314733D02*
X196814392Y-145250923D01*
X196814392Y-145250923D02*
X196742964Y-145219018D01*
X196742964Y-145219018D02*
X196600107Y-145187114D01*
X196600107Y-145187114D02*
X196492964Y-145187114D01*
X196492964Y-145187114D02*
X196350107Y-145219018D01*
X196350107Y-145219018D02*
X196278678Y-145250923D01*
X196278678Y-145250923D02*
X196207250Y-145314733D01*
X196207250Y-145314733D02*
X196171535Y-145410447D01*
X196171535Y-145410447D02*
X196171535Y-145569971D01*
X196385821Y-144931875D02*
X196385821Y-144612828D01*
X196171535Y-144995685D02*
X196921535Y-144772352D01*
X196921535Y-144772352D02*
X196171535Y-144549018D01*
X196957250Y-143847113D02*
X195992964Y-144421399D01*
X196171535Y-143623780D02*
X196921535Y-143623780D01*
X196921535Y-143623780D02*
X196921535Y-143464256D01*
X196921535Y-143464256D02*
X196885821Y-143368542D01*
X196885821Y-143368542D02*
X196814392Y-143304732D01*
X196814392Y-143304732D02*
X196742964Y-143272827D01*
X196742964Y-143272827D02*
X196600107Y-143240923D01*
X196600107Y-143240923D02*
X196492964Y-143240923D01*
X196492964Y-143240923D02*
X196350107Y-143272827D01*
X196350107Y-143272827D02*
X196278678Y-143304732D01*
X196278678Y-143304732D02*
X196207250Y-143368542D01*
X196207250Y-143368542D02*
X196171535Y-143464256D01*
X196171535Y-143464256D02*
X196171535Y-143623780D01*
X196171535Y-142602827D02*
X196171535Y-142985684D01*
X196171535Y-142794256D02*
X196921535Y-142794256D01*
X196921535Y-142794256D02*
X196814392Y-142858065D01*
X196814392Y-142858065D02*
X196742964Y-142921875D01*
X196742964Y-142921875D02*
X196707250Y-142985684D01*
X196957250Y-141837113D02*
X195992964Y-142411399D01*
X196850107Y-141645684D02*
X196885821Y-141613780D01*
X196885821Y-141613780D02*
X196921535Y-141549970D01*
X196921535Y-141549970D02*
X196921535Y-141390446D01*
X196921535Y-141390446D02*
X196885821Y-141326637D01*
X196885821Y-141326637D02*
X196850107Y-141294732D01*
X196850107Y-141294732D02*
X196778678Y-141262827D01*
X196778678Y-141262827D02*
X196707250Y-141262827D01*
X196707250Y-141262827D02*
X196600107Y-141294732D01*
X196600107Y-141294732D02*
X196171535Y-141677589D01*
X196171535Y-141677589D02*
X196171535Y-141262827D01*
X188792964Y-143143066D02*
X188757250Y-143174970D01*
X188757250Y-143174970D02*
X188721535Y-143270685D01*
X188721535Y-143270685D02*
X188721535Y-143334494D01*
X188721535Y-143334494D02*
X188757250Y-143430208D01*
X188757250Y-143430208D02*
X188828678Y-143494018D01*
X188828678Y-143494018D02*
X188900107Y-143525923D01*
X188900107Y-143525923D02*
X189042964Y-143557827D01*
X189042964Y-143557827D02*
X189150107Y-143557827D01*
X189150107Y-143557827D02*
X189292964Y-143525923D01*
X189292964Y-143525923D02*
X189364392Y-143494018D01*
X189364392Y-143494018D02*
X189435821Y-143430208D01*
X189435821Y-143430208D02*
X189471535Y-143334494D01*
X189471535Y-143334494D02*
X189471535Y-143270685D01*
X189471535Y-143270685D02*
X189435821Y-143174970D01*
X189435821Y-143174970D02*
X189400107Y-143143066D01*
X189471535Y-142568780D02*
X189471535Y-142696399D01*
X189471535Y-142696399D02*
X189435821Y-142760208D01*
X189435821Y-142760208D02*
X189400107Y-142792113D01*
X189400107Y-142792113D02*
X189292964Y-142855923D01*
X189292964Y-142855923D02*
X189150107Y-142887827D01*
X189150107Y-142887827D02*
X188864392Y-142887827D01*
X188864392Y-142887827D02*
X188792964Y-142855923D01*
X188792964Y-142855923D02*
X188757250Y-142824018D01*
X188757250Y-142824018D02*
X188721535Y-142760208D01*
X188721535Y-142760208D02*
X188721535Y-142632589D01*
X188721535Y-142632589D02*
X188757250Y-142568780D01*
X188757250Y-142568780D02*
X188792964Y-142536875D01*
X188792964Y-142536875D02*
X188864392Y-142504970D01*
X188864392Y-142504970D02*
X189042964Y-142504970D01*
X189042964Y-142504970D02*
X189114392Y-142536875D01*
X189114392Y-142536875D02*
X189150107Y-142568780D01*
X189150107Y-142568780D02*
X189185821Y-142632589D01*
X189185821Y-142632589D02*
X189185821Y-142760208D01*
X189185821Y-142760208D02*
X189150107Y-142824018D01*
X189150107Y-142824018D02*
X189114392Y-142855923D01*
X189114392Y-142855923D02*
X189042964Y-142887827D01*
X189507250Y-141739256D02*
X188542964Y-142313542D01*
X189471535Y-141196875D02*
X189471535Y-141515923D01*
X189471535Y-141515923D02*
X189114392Y-141547827D01*
X189114392Y-141547827D02*
X189150107Y-141515923D01*
X189150107Y-141515923D02*
X189185821Y-141452113D01*
X189185821Y-141452113D02*
X189185821Y-141292589D01*
X189185821Y-141292589D02*
X189150107Y-141228780D01*
X189150107Y-141228780D02*
X189114392Y-141196875D01*
X189114392Y-141196875D02*
X189042964Y-141164970D01*
X189042964Y-141164970D02*
X188864392Y-141164970D01*
X188864392Y-141164970D02*
X188792964Y-141196875D01*
X188792964Y-141196875D02*
X188757250Y-141228780D01*
X188757250Y-141228780D02*
X188721535Y-141292589D01*
X188721535Y-141292589D02*
X188721535Y-141452113D01*
X188721535Y-141452113D02*
X188757250Y-141515923D01*
X188757250Y-141515923D02*
X188792964Y-141547827D01*
X193707250Y-146224018D02*
X193671535Y-146128304D01*
X193671535Y-146128304D02*
X193671535Y-145968780D01*
X193671535Y-145968780D02*
X193707250Y-145904971D01*
X193707250Y-145904971D02*
X193742964Y-145873066D01*
X193742964Y-145873066D02*
X193814392Y-145841161D01*
X193814392Y-145841161D02*
X193885821Y-145841161D01*
X193885821Y-145841161D02*
X193957250Y-145873066D01*
X193957250Y-145873066D02*
X193992964Y-145904971D01*
X193992964Y-145904971D02*
X194028678Y-145968780D01*
X194028678Y-145968780D02*
X194064392Y-146096399D01*
X194064392Y-146096399D02*
X194100107Y-146160209D01*
X194100107Y-146160209D02*
X194135821Y-146192114D01*
X194135821Y-146192114D02*
X194207250Y-146224018D01*
X194207250Y-146224018D02*
X194278678Y-146224018D01*
X194278678Y-146224018D02*
X194350107Y-146192114D01*
X194350107Y-146192114D02*
X194385821Y-146160209D01*
X194385821Y-146160209D02*
X194421535Y-146096399D01*
X194421535Y-146096399D02*
X194421535Y-145936876D01*
X194421535Y-145936876D02*
X194385821Y-145841161D01*
X193742964Y-145171162D02*
X193707250Y-145203066D01*
X193707250Y-145203066D02*
X193671535Y-145298781D01*
X193671535Y-145298781D02*
X193671535Y-145362590D01*
X193671535Y-145362590D02*
X193707250Y-145458304D01*
X193707250Y-145458304D02*
X193778678Y-145522114D01*
X193778678Y-145522114D02*
X193850107Y-145554019D01*
X193850107Y-145554019D02*
X193992964Y-145585923D01*
X193992964Y-145585923D02*
X194100107Y-145585923D01*
X194100107Y-145585923D02*
X194242964Y-145554019D01*
X194242964Y-145554019D02*
X194314392Y-145522114D01*
X194314392Y-145522114D02*
X194385821Y-145458304D01*
X194385821Y-145458304D02*
X194421535Y-145362590D01*
X194421535Y-145362590D02*
X194421535Y-145298781D01*
X194421535Y-145298781D02*
X194385821Y-145203066D01*
X194385821Y-145203066D02*
X194350107Y-145171162D01*
X193671535Y-144564971D02*
X193671535Y-144884019D01*
X193671535Y-144884019D02*
X194421535Y-144884019D01*
X194457250Y-143863066D02*
X193492964Y-144437352D01*
X193671535Y-143639733D02*
X194421535Y-143639733D01*
X194421535Y-143639733D02*
X194421535Y-143480209D01*
X194421535Y-143480209D02*
X194385821Y-143384495D01*
X194385821Y-143384495D02*
X194314392Y-143320685D01*
X194314392Y-143320685D02*
X194242964Y-143288780D01*
X194242964Y-143288780D02*
X194100107Y-143256876D01*
X194100107Y-143256876D02*
X193992964Y-143256876D01*
X193992964Y-143256876D02*
X193850107Y-143288780D01*
X193850107Y-143288780D02*
X193778678Y-143320685D01*
X193778678Y-143320685D02*
X193707250Y-143384495D01*
X193707250Y-143384495D02*
X193671535Y-143480209D01*
X193671535Y-143480209D02*
X193671535Y-143639733D01*
X194421535Y-142842114D02*
X194421535Y-142778304D01*
X194421535Y-142778304D02*
X194385821Y-142714495D01*
X194385821Y-142714495D02*
X194350107Y-142682590D01*
X194350107Y-142682590D02*
X194278678Y-142650685D01*
X194278678Y-142650685D02*
X194135821Y-142618780D01*
X194135821Y-142618780D02*
X193957250Y-142618780D01*
X193957250Y-142618780D02*
X193814392Y-142650685D01*
X193814392Y-142650685D02*
X193742964Y-142682590D01*
X193742964Y-142682590D02*
X193707250Y-142714495D01*
X193707250Y-142714495D02*
X193671535Y-142778304D01*
X193671535Y-142778304D02*
X193671535Y-142842114D01*
X193671535Y-142842114D02*
X193707250Y-142905923D01*
X193707250Y-142905923D02*
X193742964Y-142937828D01*
X193742964Y-142937828D02*
X193814392Y-142969733D01*
X193814392Y-142969733D02*
X193957250Y-143001637D01*
X193957250Y-143001637D02*
X194135821Y-143001637D01*
X194135821Y-143001637D02*
X194278678Y-142969733D01*
X194278678Y-142969733D02*
X194350107Y-142937828D01*
X194350107Y-142937828D02*
X194385821Y-142905923D01*
X194385821Y-142905923D02*
X194421535Y-142842114D01*
X194457250Y-141853066D02*
X193492964Y-142427352D01*
X194421535Y-141693542D02*
X194421535Y-141278780D01*
X194421535Y-141278780D02*
X194135821Y-141502114D01*
X194135821Y-141502114D02*
X194135821Y-141406399D01*
X194135821Y-141406399D02*
X194100107Y-141342590D01*
X194100107Y-141342590D02*
X194064392Y-141310685D01*
X194064392Y-141310685D02*
X193992964Y-141278780D01*
X193992964Y-141278780D02*
X193814392Y-141278780D01*
X193814392Y-141278780D02*
X193742964Y-141310685D01*
X193742964Y-141310685D02*
X193707250Y-141342590D01*
X193707250Y-141342590D02*
X193671535Y-141406399D01*
X193671535Y-141406399D02*
X193671535Y-141597828D01*
X193671535Y-141597828D02*
X193707250Y-141661637D01*
X193707250Y-141661637D02*
X193742964Y-141693542D01*
X178521535Y-152879018D02*
X178521535Y-153261875D01*
X178521535Y-153070447D02*
X179271535Y-153070447D01*
X179271535Y-153070447D02*
X179164392Y-153134256D01*
X179164392Y-153134256D02*
X179092964Y-153198066D01*
X179092964Y-153198066D02*
X179057250Y-153261875D01*
X179271535Y-152464257D02*
X179271535Y-152400447D01*
X179271535Y-152400447D02*
X179235821Y-152336638D01*
X179235821Y-152336638D02*
X179200107Y-152304733D01*
X179200107Y-152304733D02*
X179128678Y-152272828D01*
X179128678Y-152272828D02*
X178985821Y-152240923D01*
X178985821Y-152240923D02*
X178807250Y-152240923D01*
X178807250Y-152240923D02*
X178664392Y-152272828D01*
X178664392Y-152272828D02*
X178592964Y-152304733D01*
X178592964Y-152304733D02*
X178557250Y-152336638D01*
X178557250Y-152336638D02*
X178521535Y-152400447D01*
X178521535Y-152400447D02*
X178521535Y-152464257D01*
X178521535Y-152464257D02*
X178557250Y-152528066D01*
X178557250Y-152528066D02*
X178592964Y-152559971D01*
X178592964Y-152559971D02*
X178664392Y-152591876D01*
X178664392Y-152591876D02*
X178807250Y-152623780D01*
X178807250Y-152623780D02*
X178985821Y-152623780D01*
X178985821Y-152623780D02*
X179128678Y-152591876D01*
X179128678Y-152591876D02*
X179200107Y-152559971D01*
X179200107Y-152559971D02*
X179235821Y-152528066D01*
X179235821Y-152528066D02*
X179271535Y-152464257D01*
X179307250Y-151475209D02*
X178342964Y-152049495D01*
X178914392Y-151028542D02*
X178878678Y-150932828D01*
X178878678Y-150932828D02*
X178842964Y-150900923D01*
X178842964Y-150900923D02*
X178771535Y-150869019D01*
X178771535Y-150869019D02*
X178664392Y-150869019D01*
X178664392Y-150869019D02*
X178592964Y-150900923D01*
X178592964Y-150900923D02*
X178557250Y-150932828D01*
X178557250Y-150932828D02*
X178521535Y-150996638D01*
X178521535Y-150996638D02*
X178521535Y-151251876D01*
X178521535Y-151251876D02*
X179271535Y-151251876D01*
X179271535Y-151251876D02*
X179271535Y-151028542D01*
X179271535Y-151028542D02*
X179235821Y-150964733D01*
X179235821Y-150964733D02*
X179200107Y-150932828D01*
X179200107Y-150932828D02*
X179128678Y-150900923D01*
X179128678Y-150900923D02*
X179057250Y-150900923D01*
X179057250Y-150900923D02*
X178985821Y-150932828D01*
X178985821Y-150932828D02*
X178950107Y-150964733D01*
X178950107Y-150964733D02*
X178914392Y-151028542D01*
X178914392Y-151028542D02*
X178914392Y-151251876D01*
X179271535Y-150294733D02*
X179271535Y-150422352D01*
X179271535Y-150422352D02*
X179235821Y-150486161D01*
X179235821Y-150486161D02*
X179200107Y-150518066D01*
X179200107Y-150518066D02*
X179092964Y-150581876D01*
X179092964Y-150581876D02*
X178950107Y-150613780D01*
X178950107Y-150613780D02*
X178664392Y-150613780D01*
X178664392Y-150613780D02*
X178592964Y-150581876D01*
X178592964Y-150581876D02*
X178557250Y-150549971D01*
X178557250Y-150549971D02*
X178521535Y-150486161D01*
X178521535Y-150486161D02*
X178521535Y-150358542D01*
X178521535Y-150358542D02*
X178557250Y-150294733D01*
X178557250Y-150294733D02*
X178592964Y-150262828D01*
X178592964Y-150262828D02*
X178664392Y-150230923D01*
X178664392Y-150230923D02*
X178842964Y-150230923D01*
X178842964Y-150230923D02*
X178914392Y-150262828D01*
X178914392Y-150262828D02*
X178950107Y-150294733D01*
X178950107Y-150294733D02*
X178985821Y-150358542D01*
X178985821Y-150358542D02*
X178985821Y-150486161D01*
X178985821Y-150486161D02*
X178950107Y-150549971D01*
X178950107Y-150549971D02*
X178914392Y-150581876D01*
X178914392Y-150581876D02*
X178842964Y-150613780D01*
X178964392Y-143302589D02*
X178928678Y-143206875D01*
X178928678Y-143206875D02*
X178892964Y-143174970D01*
X178892964Y-143174970D02*
X178821535Y-143143066D01*
X178821535Y-143143066D02*
X178714392Y-143143066D01*
X178714392Y-143143066D02*
X178642964Y-143174970D01*
X178642964Y-143174970D02*
X178607250Y-143206875D01*
X178607250Y-143206875D02*
X178571535Y-143270685D01*
X178571535Y-143270685D02*
X178571535Y-143525923D01*
X178571535Y-143525923D02*
X179321535Y-143525923D01*
X179321535Y-143525923D02*
X179321535Y-143302589D01*
X179321535Y-143302589D02*
X179285821Y-143238780D01*
X179285821Y-143238780D02*
X179250107Y-143206875D01*
X179250107Y-143206875D02*
X179178678Y-143174970D01*
X179178678Y-143174970D02*
X179107250Y-143174970D01*
X179107250Y-143174970D02*
X179035821Y-143206875D01*
X179035821Y-143206875D02*
X179000107Y-143238780D01*
X179000107Y-143238780D02*
X178964392Y-143302589D01*
X178964392Y-143302589D02*
X178964392Y-143525923D01*
X179321535Y-142536875D02*
X179321535Y-142855923D01*
X179321535Y-142855923D02*
X178964392Y-142887827D01*
X178964392Y-142887827D02*
X179000107Y-142855923D01*
X179000107Y-142855923D02*
X179035821Y-142792113D01*
X179035821Y-142792113D02*
X179035821Y-142632589D01*
X179035821Y-142632589D02*
X179000107Y-142568780D01*
X179000107Y-142568780D02*
X178964392Y-142536875D01*
X178964392Y-142536875D02*
X178892964Y-142504970D01*
X178892964Y-142504970D02*
X178714392Y-142504970D01*
X178714392Y-142504970D02*
X178642964Y-142536875D01*
X178642964Y-142536875D02*
X178607250Y-142568780D01*
X178607250Y-142568780D02*
X178571535Y-142632589D01*
X178571535Y-142632589D02*
X178571535Y-142792113D01*
X178571535Y-142792113D02*
X178607250Y-142855923D01*
X178607250Y-142855923D02*
X178642964Y-142887827D01*
X179357250Y-141739256D02*
X178392964Y-142313542D01*
X178571535Y-141484018D02*
X178571535Y-141356399D01*
X178571535Y-141356399D02*
X178607250Y-141292589D01*
X178607250Y-141292589D02*
X178642964Y-141260685D01*
X178642964Y-141260685D02*
X178750107Y-141196875D01*
X178750107Y-141196875D02*
X178892964Y-141164970D01*
X178892964Y-141164970D02*
X179178678Y-141164970D01*
X179178678Y-141164970D02*
X179250107Y-141196875D01*
X179250107Y-141196875D02*
X179285821Y-141228780D01*
X179285821Y-141228780D02*
X179321535Y-141292589D01*
X179321535Y-141292589D02*
X179321535Y-141420208D01*
X179321535Y-141420208D02*
X179285821Y-141484018D01*
X179285821Y-141484018D02*
X179250107Y-141515923D01*
X179250107Y-141515923D02*
X179178678Y-141547827D01*
X179178678Y-141547827D02*
X179000107Y-141547827D01*
X179000107Y-141547827D02*
X178928678Y-141515923D01*
X178928678Y-141515923D02*
X178892964Y-141484018D01*
X178892964Y-141484018D02*
X178857250Y-141420208D01*
X178857250Y-141420208D02*
X178857250Y-141292589D01*
X178857250Y-141292589D02*
X178892964Y-141228780D01*
X178892964Y-141228780D02*
X178928678Y-141196875D01*
X178928678Y-141196875D02*
X179000107Y-141164970D01*
X181021535Y-152879018D02*
X181021535Y-153261875D01*
X181021535Y-153070447D02*
X181771535Y-153070447D01*
X181771535Y-153070447D02*
X181664392Y-153134256D01*
X181664392Y-153134256D02*
X181592964Y-153198066D01*
X181592964Y-153198066D02*
X181557250Y-153261875D01*
X181771535Y-152304733D02*
X181771535Y-152432352D01*
X181771535Y-152432352D02*
X181735821Y-152496161D01*
X181735821Y-152496161D02*
X181700107Y-152528066D01*
X181700107Y-152528066D02*
X181592964Y-152591876D01*
X181592964Y-152591876D02*
X181450107Y-152623780D01*
X181450107Y-152623780D02*
X181164392Y-152623780D01*
X181164392Y-152623780D02*
X181092964Y-152591876D01*
X181092964Y-152591876D02*
X181057250Y-152559971D01*
X181057250Y-152559971D02*
X181021535Y-152496161D01*
X181021535Y-152496161D02*
X181021535Y-152368542D01*
X181021535Y-152368542D02*
X181057250Y-152304733D01*
X181057250Y-152304733D02*
X181092964Y-152272828D01*
X181092964Y-152272828D02*
X181164392Y-152240923D01*
X181164392Y-152240923D02*
X181342964Y-152240923D01*
X181342964Y-152240923D02*
X181414392Y-152272828D01*
X181414392Y-152272828D02*
X181450107Y-152304733D01*
X181450107Y-152304733D02*
X181485821Y-152368542D01*
X181485821Y-152368542D02*
X181485821Y-152496161D01*
X181485821Y-152496161D02*
X181450107Y-152559971D01*
X181450107Y-152559971D02*
X181414392Y-152591876D01*
X181414392Y-152591876D02*
X181342964Y-152623780D01*
X181807250Y-151475209D02*
X180842964Y-152049495D01*
X181414392Y-151028542D02*
X181378678Y-150932828D01*
X181378678Y-150932828D02*
X181342964Y-150900923D01*
X181342964Y-150900923D02*
X181271535Y-150869019D01*
X181271535Y-150869019D02*
X181164392Y-150869019D01*
X181164392Y-150869019D02*
X181092964Y-150900923D01*
X181092964Y-150900923D02*
X181057250Y-150932828D01*
X181057250Y-150932828D02*
X181021535Y-150996638D01*
X181021535Y-150996638D02*
X181021535Y-151251876D01*
X181021535Y-151251876D02*
X181771535Y-151251876D01*
X181771535Y-151251876D02*
X181771535Y-151028542D01*
X181771535Y-151028542D02*
X181735821Y-150964733D01*
X181735821Y-150964733D02*
X181700107Y-150932828D01*
X181700107Y-150932828D02*
X181628678Y-150900923D01*
X181628678Y-150900923D02*
X181557250Y-150900923D01*
X181557250Y-150900923D02*
X181485821Y-150932828D01*
X181485821Y-150932828D02*
X181450107Y-150964733D01*
X181450107Y-150964733D02*
X181414392Y-151028542D01*
X181414392Y-151028542D02*
X181414392Y-151251876D01*
X181700107Y-150613780D02*
X181735821Y-150581876D01*
X181735821Y-150581876D02*
X181771535Y-150518066D01*
X181771535Y-150518066D02*
X181771535Y-150358542D01*
X181771535Y-150358542D02*
X181735821Y-150294733D01*
X181735821Y-150294733D02*
X181700107Y-150262828D01*
X181700107Y-150262828D02*
X181628678Y-150230923D01*
X181628678Y-150230923D02*
X181557250Y-150230923D01*
X181557250Y-150230923D02*
X181450107Y-150262828D01*
X181450107Y-150262828D02*
X181021535Y-150645685D01*
X181021535Y-150645685D02*
X181021535Y-150230923D01*
X209605821Y-142736875D02*
X209641535Y-142800685D01*
X209641535Y-142800685D02*
X209641535Y-142896399D01*
X209641535Y-142896399D02*
X209605821Y-142992113D01*
X209605821Y-142992113D02*
X209534392Y-143055923D01*
X209534392Y-143055923D02*
X209462964Y-143087828D01*
X209462964Y-143087828D02*
X209320107Y-143119732D01*
X209320107Y-143119732D02*
X209212964Y-143119732D01*
X209212964Y-143119732D02*
X209070107Y-143087828D01*
X209070107Y-143087828D02*
X208998678Y-143055923D01*
X208998678Y-143055923D02*
X208927250Y-142992113D01*
X208927250Y-142992113D02*
X208891535Y-142896399D01*
X208891535Y-142896399D02*
X208891535Y-142832590D01*
X208891535Y-142832590D02*
X208927250Y-142736875D01*
X208927250Y-142736875D02*
X208962964Y-142704971D01*
X208962964Y-142704971D02*
X209212964Y-142704971D01*
X209212964Y-142704971D02*
X209212964Y-142832590D01*
X208891535Y-142417828D02*
X209641535Y-142417828D01*
X209641535Y-142417828D02*
X208891535Y-142034971D01*
X208891535Y-142034971D02*
X209641535Y-142034971D01*
X208891535Y-141715923D02*
X209641535Y-141715923D01*
X209641535Y-141715923D02*
X209641535Y-141556399D01*
X209641535Y-141556399D02*
X209605821Y-141460685D01*
X209605821Y-141460685D02*
X209534392Y-141396875D01*
X209534392Y-141396875D02*
X209462964Y-141364970D01*
X209462964Y-141364970D02*
X209320107Y-141333066D01*
X209320107Y-141333066D02*
X209212964Y-141333066D01*
X209212964Y-141333066D02*
X209070107Y-141364970D01*
X209070107Y-141364970D02*
X208998678Y-141396875D01*
X208998678Y-141396875D02*
X208927250Y-141460685D01*
X208927250Y-141460685D02*
X208891535Y-141556399D01*
X208891535Y-141556399D02*
X208891535Y-141715923D01*
X184014392Y-143494018D02*
X184014392Y-143270684D01*
X183621535Y-143174970D02*
X183621535Y-143494018D01*
X183621535Y-143494018D02*
X184371535Y-143494018D01*
X184371535Y-143494018D02*
X184371535Y-143174970D01*
X184371535Y-142600685D02*
X184371535Y-142728304D01*
X184371535Y-142728304D02*
X184335821Y-142792113D01*
X184335821Y-142792113D02*
X184300107Y-142824018D01*
X184300107Y-142824018D02*
X184192964Y-142887828D01*
X184192964Y-142887828D02*
X184050107Y-142919732D01*
X184050107Y-142919732D02*
X183764392Y-142919732D01*
X183764392Y-142919732D02*
X183692964Y-142887828D01*
X183692964Y-142887828D02*
X183657250Y-142855923D01*
X183657250Y-142855923D02*
X183621535Y-142792113D01*
X183621535Y-142792113D02*
X183621535Y-142664494D01*
X183621535Y-142664494D02*
X183657250Y-142600685D01*
X183657250Y-142600685D02*
X183692964Y-142568780D01*
X183692964Y-142568780D02*
X183764392Y-142536875D01*
X183764392Y-142536875D02*
X183942964Y-142536875D01*
X183942964Y-142536875D02*
X184014392Y-142568780D01*
X184014392Y-142568780D02*
X184050107Y-142600685D01*
X184050107Y-142600685D02*
X184085821Y-142664494D01*
X184085821Y-142664494D02*
X184085821Y-142792113D01*
X184085821Y-142792113D02*
X184050107Y-142855923D01*
X184050107Y-142855923D02*
X184014392Y-142887828D01*
X184014392Y-142887828D02*
X183942964Y-142919732D01*
X184407250Y-141771161D02*
X183442964Y-142345447D01*
X184371535Y-141611637D02*
X184371535Y-141164971D01*
X184371535Y-141164971D02*
X183621535Y-141452113D01*
D10*
%TO.C,SW38*%
X155850000Y-152090000D02*
X155850000Y-148490000D01*
X156000000Y-152290000D02*
X156000000Y-148290000D01*
X156150000Y-152390000D02*
X156150000Y-148190000D01*
X156300000Y-152490000D02*
X156300000Y-148090000D01*
X156450000Y-152540000D02*
X156450000Y-148040000D01*
X156600000Y-152590000D02*
X156600000Y-148040000D01*
X156750000Y-152590000D02*
X156750000Y-147990000D01*
X156900000Y-152590000D02*
X156900000Y-147990000D01*
X157050000Y-152590000D02*
X157050000Y-147990000D01*
X157200000Y-152590000D02*
X157200000Y-147990000D01*
X157350000Y-152590000D02*
X157350000Y-147990000D01*
X157500000Y-152590000D02*
X157500000Y-147990000D01*
X157650000Y-152590000D02*
X157650000Y-147990000D01*
X157800000Y-152590000D02*
X157800000Y-147990000D01*
X157950000Y-152590000D02*
X157950000Y-147990000D01*
X158100000Y-152590000D02*
X158100000Y-147990000D01*
X158250000Y-152590000D02*
X158250000Y-147990000D01*
D12*
X158350000Y-152490000D02*
X158350000Y-147990000D01*
D10*
X158400000Y-152590000D02*
X158400000Y-147990000D01*
X158550000Y-152590000D02*
X158550000Y-147990000D01*
X158700000Y-152590000D02*
X158700000Y-147990000D01*
X158700000Y-152615000D02*
X156725000Y-152615000D01*
X158850000Y-152590000D02*
X158850000Y-148040000D01*
X159000000Y-152640000D02*
X159000000Y-147990000D01*
X159150000Y-152640000D02*
X159150000Y-147990000D01*
X159275000Y-147965000D02*
X156725000Y-147965000D01*
X159275000Y-147965000D02*
X160550000Y-148990000D01*
X159300000Y-152640000D02*
X159300000Y-148040000D01*
X159450000Y-152690000D02*
X159450000Y-148140000D01*
X159600000Y-152790000D02*
X159600000Y-148240000D01*
X159750000Y-152840000D02*
X159750000Y-148390000D01*
X159900000Y-152940000D02*
X159900000Y-148490000D01*
X160050000Y-153040000D02*
X160050000Y-148640000D01*
X160200000Y-153140000D02*
X160200000Y-148740000D01*
X160350000Y-153290000D02*
X160350000Y-148840000D01*
X160500000Y-153440000D02*
X160500000Y-148990000D01*
X160600000Y-153640000D02*
X160600000Y-149490000D01*
X160700000Y-153790000D02*
X160700000Y-149640000D01*
X160800000Y-153990000D02*
X160800000Y-149840000D01*
X160900000Y-154140000D02*
X160900000Y-149940000D01*
X161000000Y-154390000D02*
X161000000Y-149990000D01*
X161100000Y-154540000D02*
X161100000Y-150040000D01*
D12*
X161200000Y-150190000D02*
X158350000Y-152490000D01*
X161200000Y-154540000D02*
X161200000Y-150190000D01*
D10*
X161250000Y-154640000D02*
X161250000Y-150090000D01*
X161400000Y-154740000D02*
X161400000Y-150190000D01*
X161550000Y-154790000D02*
X161550000Y-150190000D01*
X161700000Y-154790000D02*
X161700000Y-150190000D01*
X161850000Y-154790000D02*
X161850000Y-150240000D01*
X162000000Y-154790000D02*
X162000000Y-150190000D01*
X162150000Y-154790000D02*
X162150000Y-150190000D01*
X162300000Y-154790000D02*
X162300000Y-150190000D01*
X162450000Y-154790000D02*
X162450000Y-150190000D01*
X162600000Y-154790000D02*
X162600000Y-150190000D01*
X162750000Y-154790000D02*
X162750000Y-150190000D01*
X162900000Y-154790000D02*
X162900000Y-150190000D01*
X163050000Y-154790000D02*
X163050000Y-150190000D01*
X163200000Y-154790000D02*
X163200000Y-150190000D01*
X163350000Y-154790000D02*
X163350000Y-150190000D01*
X163500000Y-154790000D02*
X163500000Y-150190000D01*
X163650000Y-154790000D02*
X163650000Y-150190000D01*
X163800000Y-154790000D02*
X163800000Y-150190000D01*
D12*
X163900000Y-150240000D02*
X161200000Y-154540000D01*
X163900000Y-154690000D02*
X163900000Y-150240000D01*
D10*
X163950000Y-154790000D02*
X163950000Y-150190000D01*
X164100000Y-154790000D02*
X164100000Y-150190000D01*
X164250000Y-154790000D02*
X164250000Y-150190000D01*
X164300000Y-150165000D02*
X161725000Y-150165000D01*
X164300000Y-150165000D02*
X165325000Y-151190000D01*
X164300000Y-154815000D02*
X161700000Y-154815000D01*
X164300000Y-154815000D02*
X165325000Y-153790000D01*
X164400000Y-154690000D02*
X164400000Y-150290000D01*
X164550000Y-154540000D02*
X164550000Y-150440000D01*
X164700000Y-154390000D02*
X164700000Y-150590000D01*
X164850000Y-154240000D02*
X164850000Y-150740000D01*
X164950000Y-154140000D02*
X164950000Y-150840000D01*
X165050000Y-154040000D02*
X165050000Y-150940000D01*
X165150000Y-153940000D02*
X165150000Y-151040000D01*
X165300000Y-151165000D02*
X165300000Y-153815000D01*
X156725000Y-147965000D02*
G75*
G03*
X155725000Y-148965000I-1J-999999D01*
G01*
X155725000Y-151615000D02*
G75*
G03*
X156725000Y-152615000I999999J-1D01*
G01*
X160837801Y-154111904D02*
G75*
G03*
X158700000Y-152615000I-2137802J-778098D01*
G01*
X160837802Y-154111904D02*
G75*
G03*
X161699005Y-154813790I899999J225000D01*
G01*
X160550000Y-148990000D02*
G75*
G03*
X161725000Y-150165000I1175002J2D01*
G01*
%TO.C,D10*%
X204985000Y-97200000D02*
X204985000Y-98700000D01*
X204985000Y-98700000D02*
X210385000Y-98700000D01*
X207185000Y-97450000D02*
X207185000Y-98450000D01*
X207285000Y-97950000D02*
X208185000Y-97450000D01*
X208185000Y-97450000D02*
X208185000Y-98450000D01*
X208185000Y-98450000D02*
X207285000Y-97950000D01*
X210385000Y-97200000D02*
X204985000Y-97200000D01*
X210385000Y-98700000D02*
X210385000Y-97200000D01*
%TO.C,SW10*%
X193955000Y-94940000D02*
X193955000Y-91340000D01*
X194105000Y-95140000D02*
X194105000Y-91140000D01*
X194255000Y-95240000D02*
X194255000Y-91040000D01*
X194405000Y-95340000D02*
X194405000Y-90940000D01*
X194555000Y-95390000D02*
X194555000Y-90890000D01*
X194705000Y-95440000D02*
X194705000Y-90890000D01*
X194855000Y-95440000D02*
X194855000Y-90840000D01*
X195005000Y-95440000D02*
X195005000Y-90840000D01*
X195155000Y-95440000D02*
X195155000Y-90840000D01*
X195305000Y-95440000D02*
X195305000Y-90840000D01*
X195455000Y-95440000D02*
X195455000Y-90840000D01*
X195605000Y-95440000D02*
X195605000Y-90840000D01*
X195755000Y-95440000D02*
X195755000Y-90840000D01*
X195905000Y-95440000D02*
X195905000Y-90840000D01*
X196055000Y-95440000D02*
X196055000Y-90840000D01*
X196205000Y-95440000D02*
X196205000Y-90840000D01*
X196355000Y-95440000D02*
X196355000Y-90840000D01*
D12*
X196455000Y-95340000D02*
X196455000Y-90840000D01*
D10*
X196505000Y-95440000D02*
X196505000Y-90840000D01*
X196655000Y-95440000D02*
X196655000Y-90840000D01*
X196805000Y-95440000D02*
X196805000Y-90840000D01*
X196805000Y-95465000D02*
X194830000Y-95465000D01*
X196955000Y-95440000D02*
X196955000Y-90890000D01*
X197105000Y-95490000D02*
X197105000Y-90840000D01*
X197255000Y-95490000D02*
X197255000Y-90840000D01*
X197380000Y-90815000D02*
X194830000Y-90815000D01*
X197380000Y-90815000D02*
X198655000Y-91840000D01*
X197405000Y-95490000D02*
X197405000Y-90890000D01*
X197555000Y-95540000D02*
X197555000Y-90990000D01*
X197705000Y-95640000D02*
X197705000Y-91090000D01*
X197855000Y-95690000D02*
X197855000Y-91240000D01*
X198005000Y-95790000D02*
X198005000Y-91340000D01*
X198155000Y-95890000D02*
X198155000Y-91490000D01*
X198305000Y-95990000D02*
X198305000Y-91590000D01*
X198455000Y-96140000D02*
X198455000Y-91690000D01*
X198605000Y-96290000D02*
X198605000Y-91840000D01*
X198705000Y-96490000D02*
X198705000Y-92340000D01*
X198805000Y-96640000D02*
X198805000Y-92490000D01*
X198905000Y-96840000D02*
X198905000Y-92690000D01*
X199005000Y-96990000D02*
X199005000Y-92790000D01*
X199105000Y-97240000D02*
X199105000Y-92840000D01*
X199205000Y-97390000D02*
X199205000Y-92890000D01*
D12*
X199305000Y-93040000D02*
X196455000Y-95340000D01*
X199305000Y-97390000D02*
X199305000Y-93040000D01*
D10*
X199355000Y-97490000D02*
X199355000Y-92940000D01*
X199505000Y-97590000D02*
X199505000Y-93040000D01*
X199655000Y-97640000D02*
X199655000Y-93040000D01*
X199805000Y-97640000D02*
X199805000Y-93040000D01*
X199955000Y-97640000D02*
X199955000Y-93090000D01*
X200105000Y-97640000D02*
X200105000Y-93040000D01*
X200255000Y-97640000D02*
X200255000Y-93040000D01*
X200405000Y-97640000D02*
X200405000Y-93040000D01*
X200555000Y-97640000D02*
X200555000Y-93040000D01*
X200705000Y-97640000D02*
X200705000Y-93040000D01*
X200855000Y-97640000D02*
X200855000Y-93040000D01*
X201005000Y-97640000D02*
X201005000Y-93040000D01*
X201155000Y-97640000D02*
X201155000Y-93040000D01*
X201305000Y-97640000D02*
X201305000Y-93040000D01*
X201455000Y-97640000D02*
X201455000Y-93040000D01*
X201605000Y-97640000D02*
X201605000Y-93040000D01*
X201755000Y-97640000D02*
X201755000Y-93040000D01*
X201905000Y-97640000D02*
X201905000Y-93040000D01*
D12*
X202005000Y-93090000D02*
X199305000Y-97390000D01*
X202005000Y-97540000D02*
X202005000Y-93090000D01*
D10*
X202055000Y-97640000D02*
X202055000Y-93040000D01*
X202205000Y-97640000D02*
X202205000Y-93040000D01*
X202355000Y-97640000D02*
X202355000Y-93040000D01*
X202405000Y-93015000D02*
X199830000Y-93015000D01*
X202405000Y-93015000D02*
X203430000Y-94040000D01*
X202405000Y-97665000D02*
X199805000Y-97665000D01*
X202405000Y-97665000D02*
X203430000Y-96640000D01*
X202505000Y-97540000D02*
X202505000Y-93140000D01*
X202655000Y-97390000D02*
X202655000Y-93290000D01*
X202805000Y-97240000D02*
X202805000Y-93440000D01*
X202955000Y-97090000D02*
X202955000Y-93590000D01*
X203055000Y-96990000D02*
X203055000Y-93690000D01*
X203155000Y-96890000D02*
X203155000Y-93790000D01*
X203255000Y-96790000D02*
X203255000Y-93890000D01*
X203405000Y-94015000D02*
X203405000Y-96665000D01*
X194830000Y-90815000D02*
G75*
G03*
X193830000Y-91815000I-1J-999999D01*
G01*
X193830000Y-94465000D02*
G75*
G03*
X194830000Y-95465000I999999J-1D01*
G01*
X198942801Y-96961904D02*
G75*
G03*
X196805000Y-95465000I-2137802J-778098D01*
G01*
X198942802Y-96961904D02*
G75*
G03*
X199804005Y-97663790I899999J225000D01*
G01*
X198655000Y-91840000D02*
G75*
G03*
X199830000Y-93015000I1175002J2D01*
G01*
%TO.C,D19*%
X171650000Y-116280000D02*
X171650000Y-117780000D01*
X171650000Y-117780000D02*
X177050000Y-117780000D01*
X173850000Y-116530000D02*
X173850000Y-117530000D01*
X173950000Y-117030000D02*
X174850000Y-116530000D01*
X174850000Y-116530000D02*
X174850000Y-117530000D01*
X174850000Y-117530000D02*
X173950000Y-117030000D01*
X177050000Y-116280000D02*
X171650000Y-116280000D01*
X177050000Y-117780000D02*
X177050000Y-116280000D01*
%TO.C,D17*%
X133570000Y-116290000D02*
X133570000Y-117790000D01*
X133570000Y-117790000D02*
X138970000Y-117790000D01*
X135770000Y-116540000D02*
X135770000Y-117540000D01*
X135870000Y-117040000D02*
X136770000Y-116540000D01*
X136770000Y-116540000D02*
X136770000Y-117540000D01*
X136770000Y-117540000D02*
X135870000Y-117040000D01*
X138970000Y-116290000D02*
X133570000Y-116290000D01*
X138970000Y-117790000D02*
X138970000Y-116290000D01*
%TO.C,SW6*%
X117755000Y-94940000D02*
X117755000Y-91340000D01*
X117905000Y-95140000D02*
X117905000Y-91140000D01*
X118055000Y-95240000D02*
X118055000Y-91040000D01*
X118205000Y-95340000D02*
X118205000Y-90940000D01*
X118355000Y-95390000D02*
X118355000Y-90890000D01*
X118505000Y-95440000D02*
X118505000Y-90890000D01*
X118655000Y-95440000D02*
X118655000Y-90840000D01*
X118805000Y-95440000D02*
X118805000Y-90840000D01*
X118955000Y-95440000D02*
X118955000Y-90840000D01*
X119105000Y-95440000D02*
X119105000Y-90840000D01*
X119255000Y-95440000D02*
X119255000Y-90840000D01*
X119405000Y-95440000D02*
X119405000Y-90840000D01*
X119555000Y-95440000D02*
X119555000Y-90840000D01*
X119705000Y-95440000D02*
X119705000Y-90840000D01*
X119855000Y-95440000D02*
X119855000Y-90840000D01*
X120005000Y-95440000D02*
X120005000Y-90840000D01*
X120155000Y-95440000D02*
X120155000Y-90840000D01*
D12*
X120255000Y-95340000D02*
X120255000Y-90840000D01*
D10*
X120305000Y-95440000D02*
X120305000Y-90840000D01*
X120455000Y-95440000D02*
X120455000Y-90840000D01*
X120605000Y-95440000D02*
X120605000Y-90840000D01*
X120605000Y-95465000D02*
X118630000Y-95465000D01*
X120755000Y-95440000D02*
X120755000Y-90890000D01*
X120905000Y-95490000D02*
X120905000Y-90840000D01*
X121055000Y-95490000D02*
X121055000Y-90840000D01*
X121180000Y-90815000D02*
X118630000Y-90815000D01*
X121180000Y-90815000D02*
X122455000Y-91840000D01*
X121205000Y-95490000D02*
X121205000Y-90890000D01*
X121355000Y-95540000D02*
X121355000Y-90990000D01*
X121505000Y-95640000D02*
X121505000Y-91090000D01*
X121655000Y-95690000D02*
X121655000Y-91240000D01*
X121805000Y-95790000D02*
X121805000Y-91340000D01*
X121955000Y-95890000D02*
X121955000Y-91490000D01*
X122105000Y-95990000D02*
X122105000Y-91590000D01*
X122255000Y-96140000D02*
X122255000Y-91690000D01*
X122405000Y-96290000D02*
X122405000Y-91840000D01*
X122505000Y-96490000D02*
X122505000Y-92340000D01*
X122605000Y-96640000D02*
X122605000Y-92490000D01*
X122705000Y-96840000D02*
X122705000Y-92690000D01*
X122805000Y-96990000D02*
X122805000Y-92790000D01*
X122905000Y-97240000D02*
X122905000Y-92840000D01*
X123005000Y-97390000D02*
X123005000Y-92890000D01*
D12*
X123105000Y-93040000D02*
X120255000Y-95340000D01*
X123105000Y-97390000D02*
X123105000Y-93040000D01*
D10*
X123155000Y-97490000D02*
X123155000Y-92940000D01*
X123305000Y-97590000D02*
X123305000Y-93040000D01*
X123455000Y-97640000D02*
X123455000Y-93040000D01*
X123605000Y-97640000D02*
X123605000Y-93040000D01*
X123755000Y-97640000D02*
X123755000Y-93090000D01*
X123905000Y-97640000D02*
X123905000Y-93040000D01*
X124055000Y-97640000D02*
X124055000Y-93040000D01*
X124205000Y-97640000D02*
X124205000Y-93040000D01*
X124355000Y-97640000D02*
X124355000Y-93040000D01*
X124505000Y-97640000D02*
X124505000Y-93040000D01*
X124655000Y-97640000D02*
X124655000Y-93040000D01*
X124805000Y-97640000D02*
X124805000Y-93040000D01*
X124955000Y-97640000D02*
X124955000Y-93040000D01*
X125105000Y-97640000D02*
X125105000Y-93040000D01*
X125255000Y-97640000D02*
X125255000Y-93040000D01*
X125405000Y-97640000D02*
X125405000Y-93040000D01*
X125555000Y-97640000D02*
X125555000Y-93040000D01*
X125705000Y-97640000D02*
X125705000Y-93040000D01*
D12*
X125805000Y-93090000D02*
X123105000Y-97390000D01*
X125805000Y-97540000D02*
X125805000Y-93090000D01*
D10*
X125855000Y-97640000D02*
X125855000Y-93040000D01*
X126005000Y-97640000D02*
X126005000Y-93040000D01*
X126155000Y-97640000D02*
X126155000Y-93040000D01*
X126205000Y-93015000D02*
X123630000Y-93015000D01*
X126205000Y-93015000D02*
X127230000Y-94040000D01*
X126205000Y-97665000D02*
X123605000Y-97665000D01*
X126205000Y-97665000D02*
X127230000Y-96640000D01*
X126305000Y-97540000D02*
X126305000Y-93140000D01*
X126455000Y-97390000D02*
X126455000Y-93290000D01*
X126605000Y-97240000D02*
X126605000Y-93440000D01*
X126755000Y-97090000D02*
X126755000Y-93590000D01*
X126855000Y-96990000D02*
X126855000Y-93690000D01*
X126955000Y-96890000D02*
X126955000Y-93790000D01*
X127055000Y-96790000D02*
X127055000Y-93890000D01*
X127205000Y-94015000D02*
X127205000Y-96665000D01*
X118630000Y-90815000D02*
G75*
G03*
X117630000Y-91815000I-1J-999999D01*
G01*
X117630000Y-94465000D02*
G75*
G03*
X118630000Y-95465000I999999J-1D01*
G01*
X122742801Y-96961904D02*
G75*
G03*
X120605000Y-95465000I-2137802J-778098D01*
G01*
X122742802Y-96961904D02*
G75*
G03*
X123604005Y-97663790I899999J225000D01*
G01*
X122455000Y-91840000D02*
G75*
G03*
X123630000Y-93015000I1175002J2D01*
G01*
%TO.C,D20*%
X197850000Y-116300000D02*
X197850000Y-117800000D01*
X197850000Y-117800000D02*
X203250000Y-117800000D01*
X200050000Y-116550000D02*
X200050000Y-117550000D01*
X200150000Y-117050000D02*
X201050000Y-116550000D01*
X201050000Y-116550000D02*
X201050000Y-117550000D01*
X201050000Y-117550000D02*
X200150000Y-117050000D01*
X203250000Y-116300000D02*
X197850000Y-116300000D01*
X203250000Y-117800000D02*
X203250000Y-116300000D01*
%TO.C,SW9*%
X174905000Y-94940000D02*
X174905000Y-91340000D01*
X175055000Y-95140000D02*
X175055000Y-91140000D01*
X175205000Y-95240000D02*
X175205000Y-91040000D01*
X175355000Y-95340000D02*
X175355000Y-90940000D01*
X175505000Y-95390000D02*
X175505000Y-90890000D01*
X175655000Y-95440000D02*
X175655000Y-90890000D01*
X175805000Y-95440000D02*
X175805000Y-90840000D01*
X175955000Y-95440000D02*
X175955000Y-90840000D01*
X176105000Y-95440000D02*
X176105000Y-90840000D01*
X176255000Y-95440000D02*
X176255000Y-90840000D01*
X176405000Y-95440000D02*
X176405000Y-90840000D01*
X176555000Y-95440000D02*
X176555000Y-90840000D01*
X176705000Y-95440000D02*
X176705000Y-90840000D01*
X176855000Y-95440000D02*
X176855000Y-90840000D01*
X177005000Y-95440000D02*
X177005000Y-90840000D01*
X177155000Y-95440000D02*
X177155000Y-90840000D01*
X177305000Y-95440000D02*
X177305000Y-90840000D01*
D12*
X177405000Y-95340000D02*
X177405000Y-90840000D01*
D10*
X177455000Y-95440000D02*
X177455000Y-90840000D01*
X177605000Y-95440000D02*
X177605000Y-90840000D01*
X177755000Y-95440000D02*
X177755000Y-90840000D01*
X177755000Y-95465000D02*
X175780000Y-95465000D01*
X177905000Y-95440000D02*
X177905000Y-90890000D01*
X178055000Y-95490000D02*
X178055000Y-90840000D01*
X178205000Y-95490000D02*
X178205000Y-90840000D01*
X178330000Y-90815000D02*
X175780000Y-90815000D01*
X178330000Y-90815000D02*
X179605000Y-91840000D01*
X178355000Y-95490000D02*
X178355000Y-90890000D01*
X178505000Y-95540000D02*
X178505000Y-90990000D01*
X178655000Y-95640000D02*
X178655000Y-91090000D01*
X178805000Y-95690000D02*
X178805000Y-91240000D01*
X178955000Y-95790000D02*
X178955000Y-91340000D01*
X179105000Y-95890000D02*
X179105000Y-91490000D01*
X179255000Y-95990000D02*
X179255000Y-91590000D01*
X179405000Y-96140000D02*
X179405000Y-91690000D01*
X179555000Y-96290000D02*
X179555000Y-91840000D01*
X179655000Y-96490000D02*
X179655000Y-92340000D01*
X179755000Y-96640000D02*
X179755000Y-92490000D01*
X179855000Y-96840000D02*
X179855000Y-92690000D01*
X179955000Y-96990000D02*
X179955000Y-92790000D01*
X180055000Y-97240000D02*
X180055000Y-92840000D01*
X180155000Y-97390000D02*
X180155000Y-92890000D01*
D12*
X180255000Y-93040000D02*
X177405000Y-95340000D01*
X180255000Y-97390000D02*
X180255000Y-93040000D01*
D10*
X180305000Y-97490000D02*
X180305000Y-92940000D01*
X180455000Y-97590000D02*
X180455000Y-93040000D01*
X180605000Y-97640000D02*
X180605000Y-93040000D01*
X180755000Y-97640000D02*
X180755000Y-93040000D01*
X180905000Y-97640000D02*
X180905000Y-93090000D01*
X181055000Y-97640000D02*
X181055000Y-93040000D01*
X181205000Y-97640000D02*
X181205000Y-93040000D01*
X181355000Y-97640000D02*
X181355000Y-93040000D01*
X181505000Y-97640000D02*
X181505000Y-93040000D01*
X181655000Y-97640000D02*
X181655000Y-93040000D01*
X181805000Y-97640000D02*
X181805000Y-93040000D01*
X181955000Y-97640000D02*
X181955000Y-93040000D01*
X182105000Y-97640000D02*
X182105000Y-93040000D01*
X182255000Y-97640000D02*
X182255000Y-93040000D01*
X182405000Y-97640000D02*
X182405000Y-93040000D01*
X182555000Y-97640000D02*
X182555000Y-93040000D01*
X182705000Y-97640000D02*
X182705000Y-93040000D01*
X182855000Y-97640000D02*
X182855000Y-93040000D01*
D12*
X182955000Y-93090000D02*
X180255000Y-97390000D01*
X182955000Y-97540000D02*
X182955000Y-93090000D01*
D10*
X183005000Y-97640000D02*
X183005000Y-93040000D01*
X183155000Y-97640000D02*
X183155000Y-93040000D01*
X183305000Y-97640000D02*
X183305000Y-93040000D01*
X183355000Y-93015000D02*
X180780000Y-93015000D01*
X183355000Y-93015000D02*
X184380000Y-94040000D01*
X183355000Y-97665000D02*
X180755000Y-97665000D01*
X183355000Y-97665000D02*
X184380000Y-96640000D01*
X183455000Y-97540000D02*
X183455000Y-93140000D01*
X183605000Y-97390000D02*
X183605000Y-93290000D01*
X183755000Y-97240000D02*
X183755000Y-93440000D01*
X183905000Y-97090000D02*
X183905000Y-93590000D01*
X184005000Y-96990000D02*
X184005000Y-93690000D01*
X184105000Y-96890000D02*
X184105000Y-93790000D01*
X184205000Y-96790000D02*
X184205000Y-93890000D01*
X184355000Y-94015000D02*
X184355000Y-96665000D01*
X175780000Y-90815000D02*
G75*
G03*
X174780000Y-91815000I-1J-999999D01*
G01*
X174780000Y-94465000D02*
G75*
G03*
X175780000Y-95465000I999999J-1D01*
G01*
X179892801Y-96961904D02*
G75*
G03*
X177755000Y-95465000I-2137802J-778098D01*
G01*
X179892802Y-96961904D02*
G75*
G03*
X180754005Y-97663790I899999J225000D01*
G01*
X179605000Y-91840000D02*
G75*
G03*
X180780000Y-93015000I1175002J2D01*
G01*
%TO.C,D6*%
X117190000Y-97360000D02*
X117190000Y-98860000D01*
X117190000Y-98860000D02*
X122590000Y-98860000D01*
X119390000Y-97610000D02*
X119390000Y-98610000D01*
X119490000Y-98110000D02*
X120390000Y-97610000D01*
X120390000Y-97610000D02*
X120390000Y-98610000D01*
X120390000Y-98610000D02*
X119490000Y-98110000D01*
X122590000Y-97360000D02*
X117190000Y-97360000D01*
X122590000Y-98860000D02*
X122590000Y-97360000D01*
%TO.C,SW37*%
X136800000Y-152090000D02*
X136800000Y-148490000D01*
X136950000Y-152290000D02*
X136950000Y-148290000D01*
X137100000Y-152390000D02*
X137100000Y-148190000D01*
X137250000Y-152490000D02*
X137250000Y-148090000D01*
X137400000Y-152540000D02*
X137400000Y-148040000D01*
X137550000Y-152590000D02*
X137550000Y-148040000D01*
X137700000Y-152590000D02*
X137700000Y-147990000D01*
X137850000Y-152590000D02*
X137850000Y-147990000D01*
X138000000Y-152590000D02*
X138000000Y-147990000D01*
X138150000Y-152590000D02*
X138150000Y-147990000D01*
X138300000Y-152590000D02*
X138300000Y-147990000D01*
X138450000Y-152590000D02*
X138450000Y-147990000D01*
X138600000Y-152590000D02*
X138600000Y-147990000D01*
X138750000Y-152590000D02*
X138750000Y-147990000D01*
X138900000Y-152590000D02*
X138900000Y-147990000D01*
X139050000Y-152590000D02*
X139050000Y-147990000D01*
X139200000Y-152590000D02*
X139200000Y-147990000D01*
D12*
X139300000Y-152490000D02*
X139300000Y-147990000D01*
D10*
X139350000Y-152590000D02*
X139350000Y-147990000D01*
X139500000Y-152590000D02*
X139500000Y-147990000D01*
X139650000Y-152590000D02*
X139650000Y-147990000D01*
X139650000Y-152615000D02*
X137675000Y-152615000D01*
X139800000Y-152590000D02*
X139800000Y-148040000D01*
X139950000Y-152640000D02*
X139950000Y-147990000D01*
X140100000Y-152640000D02*
X140100000Y-147990000D01*
X140225000Y-147965000D02*
X137675000Y-147965000D01*
X140225000Y-147965000D02*
X141500000Y-148990000D01*
X140250000Y-152640000D02*
X140250000Y-148040000D01*
X140400000Y-152690000D02*
X140400000Y-148140000D01*
X140550000Y-152790000D02*
X140550000Y-148240000D01*
X140700000Y-152840000D02*
X140700000Y-148390000D01*
X140850000Y-152940000D02*
X140850000Y-148490000D01*
X141000000Y-153040000D02*
X141000000Y-148640000D01*
X141150000Y-153140000D02*
X141150000Y-148740000D01*
X141300000Y-153290000D02*
X141300000Y-148840000D01*
X141450000Y-153440000D02*
X141450000Y-148990000D01*
X141550000Y-153640000D02*
X141550000Y-149490000D01*
X141650000Y-153790000D02*
X141650000Y-149640000D01*
X141750000Y-153990000D02*
X141750000Y-149840000D01*
X141850000Y-154140000D02*
X141850000Y-149940000D01*
X141950000Y-154390000D02*
X141950000Y-149990000D01*
X142050000Y-154540000D02*
X142050000Y-150040000D01*
D12*
X142150000Y-150190000D02*
X139300000Y-152490000D01*
X142150000Y-154540000D02*
X142150000Y-150190000D01*
D10*
X142200000Y-154640000D02*
X142200000Y-150090000D01*
X142350000Y-154740000D02*
X142350000Y-150190000D01*
X142500000Y-154790000D02*
X142500000Y-150190000D01*
X142650000Y-154790000D02*
X142650000Y-150190000D01*
X142800000Y-154790000D02*
X142800000Y-150240000D01*
X142950000Y-154790000D02*
X142950000Y-150190000D01*
X143100000Y-154790000D02*
X143100000Y-150190000D01*
X143250000Y-154790000D02*
X143250000Y-150190000D01*
X143400000Y-154790000D02*
X143400000Y-150190000D01*
X143550000Y-154790000D02*
X143550000Y-150190000D01*
X143700000Y-154790000D02*
X143700000Y-150190000D01*
X143850000Y-154790000D02*
X143850000Y-150190000D01*
X144000000Y-154790000D02*
X144000000Y-150190000D01*
X144150000Y-154790000D02*
X144150000Y-150190000D01*
X144300000Y-154790000D02*
X144300000Y-150190000D01*
X144450000Y-154790000D02*
X144450000Y-150190000D01*
X144600000Y-154790000D02*
X144600000Y-150190000D01*
X144750000Y-154790000D02*
X144750000Y-150190000D01*
D12*
X144850000Y-150240000D02*
X142150000Y-154540000D01*
X144850000Y-154690000D02*
X144850000Y-150240000D01*
D10*
X144900000Y-154790000D02*
X144900000Y-150190000D01*
X145050000Y-154790000D02*
X145050000Y-150190000D01*
X145200000Y-154790000D02*
X145200000Y-150190000D01*
X145250000Y-150165000D02*
X142675000Y-150165000D01*
X145250000Y-150165000D02*
X146275000Y-151190000D01*
X145250000Y-154815000D02*
X142650000Y-154815000D01*
X145250000Y-154815000D02*
X146275000Y-153790000D01*
X145350000Y-154690000D02*
X145350000Y-150290000D01*
X145500000Y-154540000D02*
X145500000Y-150440000D01*
X145650000Y-154390000D02*
X145650000Y-150590000D01*
X145800000Y-154240000D02*
X145800000Y-150740000D01*
X145900000Y-154140000D02*
X145900000Y-150840000D01*
X146000000Y-154040000D02*
X146000000Y-150940000D01*
X146100000Y-153940000D02*
X146100000Y-151040000D01*
X146250000Y-151165000D02*
X146250000Y-153815000D01*
X137675000Y-147965000D02*
G75*
G03*
X136675000Y-148965000I-1J-999999D01*
G01*
X136675000Y-151615000D02*
G75*
G03*
X137675000Y-152615000I999999J-1D01*
G01*
X141787801Y-154111904D02*
G75*
G03*
X139650000Y-152615000I-2137802J-778098D01*
G01*
X141787802Y-154111904D02*
G75*
G03*
X142649005Y-154813790I899999J225000D01*
G01*
X141500000Y-148990000D02*
G75*
G03*
X142675000Y-150165000I1175002J2D01*
G01*
%TO.C,SW7*%
X136805000Y-94940000D02*
X136805000Y-91340000D01*
X136955000Y-95140000D02*
X136955000Y-91140000D01*
X137105000Y-95240000D02*
X137105000Y-91040000D01*
X137255000Y-95340000D02*
X137255000Y-90940000D01*
X137405000Y-95390000D02*
X137405000Y-90890000D01*
X137555000Y-95440000D02*
X137555000Y-90890000D01*
X137705000Y-95440000D02*
X137705000Y-90840000D01*
X137855000Y-95440000D02*
X137855000Y-90840000D01*
X138005000Y-95440000D02*
X138005000Y-90840000D01*
X138155000Y-95440000D02*
X138155000Y-90840000D01*
X138305000Y-95440000D02*
X138305000Y-90840000D01*
X138455000Y-95440000D02*
X138455000Y-90840000D01*
X138605000Y-95440000D02*
X138605000Y-90840000D01*
X138755000Y-95440000D02*
X138755000Y-90840000D01*
X138905000Y-95440000D02*
X138905000Y-90840000D01*
X139055000Y-95440000D02*
X139055000Y-90840000D01*
X139205000Y-95440000D02*
X139205000Y-90840000D01*
D12*
X139305000Y-95340000D02*
X139305000Y-90840000D01*
D10*
X139355000Y-95440000D02*
X139355000Y-90840000D01*
X139505000Y-95440000D02*
X139505000Y-90840000D01*
X139655000Y-95440000D02*
X139655000Y-90840000D01*
X139655000Y-95465000D02*
X137680000Y-95465000D01*
X139805000Y-95440000D02*
X139805000Y-90890000D01*
X139955000Y-95490000D02*
X139955000Y-90840000D01*
X140105000Y-95490000D02*
X140105000Y-90840000D01*
X140230000Y-90815000D02*
X137680000Y-90815000D01*
X140230000Y-90815000D02*
X141505000Y-91840000D01*
X140255000Y-95490000D02*
X140255000Y-90890000D01*
X140405000Y-95540000D02*
X140405000Y-90990000D01*
X140555000Y-95640000D02*
X140555000Y-91090000D01*
X140705000Y-95690000D02*
X140705000Y-91240000D01*
X140855000Y-95790000D02*
X140855000Y-91340000D01*
X141005000Y-95890000D02*
X141005000Y-91490000D01*
X141155000Y-95990000D02*
X141155000Y-91590000D01*
X141305000Y-96140000D02*
X141305000Y-91690000D01*
X141455000Y-96290000D02*
X141455000Y-91840000D01*
X141555000Y-96490000D02*
X141555000Y-92340000D01*
X141655000Y-96640000D02*
X141655000Y-92490000D01*
X141755000Y-96840000D02*
X141755000Y-92690000D01*
X141855000Y-96990000D02*
X141855000Y-92790000D01*
X141955000Y-97240000D02*
X141955000Y-92840000D01*
X142055000Y-97390000D02*
X142055000Y-92890000D01*
D12*
X142155000Y-93040000D02*
X139305000Y-95340000D01*
X142155000Y-97390000D02*
X142155000Y-93040000D01*
D10*
X142205000Y-97490000D02*
X142205000Y-92940000D01*
X142355000Y-97590000D02*
X142355000Y-93040000D01*
X142505000Y-97640000D02*
X142505000Y-93040000D01*
X142655000Y-97640000D02*
X142655000Y-93040000D01*
X142805000Y-97640000D02*
X142805000Y-93090000D01*
X142955000Y-97640000D02*
X142955000Y-93040000D01*
X143105000Y-97640000D02*
X143105000Y-93040000D01*
X143255000Y-97640000D02*
X143255000Y-93040000D01*
X143405000Y-97640000D02*
X143405000Y-93040000D01*
X143555000Y-97640000D02*
X143555000Y-93040000D01*
X143705000Y-97640000D02*
X143705000Y-93040000D01*
X143855000Y-97640000D02*
X143855000Y-93040000D01*
X144005000Y-97640000D02*
X144005000Y-93040000D01*
X144155000Y-97640000D02*
X144155000Y-93040000D01*
X144305000Y-97640000D02*
X144305000Y-93040000D01*
X144455000Y-97640000D02*
X144455000Y-93040000D01*
X144605000Y-97640000D02*
X144605000Y-93040000D01*
X144755000Y-97640000D02*
X144755000Y-93040000D01*
D12*
X144855000Y-93090000D02*
X142155000Y-97390000D01*
X144855000Y-97540000D02*
X144855000Y-93090000D01*
D10*
X144905000Y-97640000D02*
X144905000Y-93040000D01*
X145055000Y-97640000D02*
X145055000Y-93040000D01*
X145205000Y-97640000D02*
X145205000Y-93040000D01*
X145255000Y-93015000D02*
X142680000Y-93015000D01*
X145255000Y-93015000D02*
X146280000Y-94040000D01*
X145255000Y-97665000D02*
X142655000Y-97665000D01*
X145255000Y-97665000D02*
X146280000Y-96640000D01*
X145355000Y-97540000D02*
X145355000Y-93140000D01*
X145505000Y-97390000D02*
X145505000Y-93290000D01*
X145655000Y-97240000D02*
X145655000Y-93440000D01*
X145805000Y-97090000D02*
X145805000Y-93590000D01*
X145905000Y-96990000D02*
X145905000Y-93690000D01*
X146005000Y-96890000D02*
X146005000Y-93790000D01*
X146105000Y-96790000D02*
X146105000Y-93890000D01*
X146255000Y-94015000D02*
X146255000Y-96665000D01*
X137680000Y-90815000D02*
G75*
G03*
X136680000Y-91815000I-1J-999999D01*
G01*
X136680000Y-94465000D02*
G75*
G03*
X137680000Y-95465000I999999J-1D01*
G01*
X141792801Y-96961904D02*
G75*
G03*
X139655000Y-95465000I-2137802J-778098D01*
G01*
X141792802Y-96961904D02*
G75*
G03*
X142654005Y-97663790I899999J225000D01*
G01*
X141505000Y-91840000D02*
G75*
G03*
X142680000Y-93015000I1175002J2D01*
G01*
%TO.C,SW36*%
X113000000Y-152090000D02*
X113000000Y-148490000D01*
X113150000Y-152290000D02*
X113150000Y-148290000D01*
X113300000Y-152390000D02*
X113300000Y-148190000D01*
X113450000Y-152490000D02*
X113450000Y-148090000D01*
X113600000Y-152540000D02*
X113600000Y-148040000D01*
X113750000Y-152590000D02*
X113750000Y-148040000D01*
X113900000Y-152590000D02*
X113900000Y-147990000D01*
X114050000Y-152590000D02*
X114050000Y-147990000D01*
X114200000Y-152590000D02*
X114200000Y-147990000D01*
X114350000Y-152590000D02*
X114350000Y-147990000D01*
X114500000Y-152590000D02*
X114500000Y-147990000D01*
X114650000Y-152590000D02*
X114650000Y-147990000D01*
X114800000Y-152590000D02*
X114800000Y-147990000D01*
X114950000Y-152590000D02*
X114950000Y-147990000D01*
X115100000Y-152590000D02*
X115100000Y-147990000D01*
X115250000Y-152590000D02*
X115250000Y-147990000D01*
X115400000Y-152590000D02*
X115400000Y-147990000D01*
D12*
X115500000Y-152490000D02*
X115500000Y-147990000D01*
D10*
X115550000Y-152590000D02*
X115550000Y-147990000D01*
X115700000Y-152590000D02*
X115700000Y-147990000D01*
X115850000Y-152590000D02*
X115850000Y-147990000D01*
X115850000Y-152615000D02*
X113875000Y-152615000D01*
X116000000Y-152590000D02*
X116000000Y-148040000D01*
X116150000Y-152640000D02*
X116150000Y-147990000D01*
X116300000Y-152640000D02*
X116300000Y-147990000D01*
X116425000Y-147965000D02*
X113875000Y-147965000D01*
X116425000Y-147965000D02*
X117700000Y-148990000D01*
X116450000Y-152640000D02*
X116450000Y-148040000D01*
X116600000Y-152690000D02*
X116600000Y-148140000D01*
X116750000Y-152790000D02*
X116750000Y-148240000D01*
X116900000Y-152840000D02*
X116900000Y-148390000D01*
X117050000Y-152940000D02*
X117050000Y-148490000D01*
X117200000Y-153040000D02*
X117200000Y-148640000D01*
X117350000Y-153140000D02*
X117350000Y-148740000D01*
X117500000Y-153290000D02*
X117500000Y-148840000D01*
X117650000Y-153440000D02*
X117650000Y-148990000D01*
X117750000Y-153640000D02*
X117750000Y-149490000D01*
X117850000Y-153790000D02*
X117850000Y-149640000D01*
X117950000Y-153990000D02*
X117950000Y-149840000D01*
X118050000Y-154140000D02*
X118050000Y-149940000D01*
X118150000Y-154390000D02*
X118150000Y-149990000D01*
X118250000Y-154540000D02*
X118250000Y-150040000D01*
D12*
X118350000Y-150190000D02*
X115500000Y-152490000D01*
X118350000Y-154540000D02*
X118350000Y-150190000D01*
D10*
X118400000Y-154640000D02*
X118400000Y-150090000D01*
X118550000Y-154740000D02*
X118550000Y-150190000D01*
X118700000Y-154790000D02*
X118700000Y-150190000D01*
X118850000Y-154790000D02*
X118850000Y-150190000D01*
X119000000Y-154790000D02*
X119000000Y-150240000D01*
X119150000Y-154790000D02*
X119150000Y-150190000D01*
X119300000Y-154790000D02*
X119300000Y-150190000D01*
X119450000Y-154790000D02*
X119450000Y-150190000D01*
X119600000Y-154790000D02*
X119600000Y-150190000D01*
X119750000Y-154790000D02*
X119750000Y-150190000D01*
X119900000Y-154790000D02*
X119900000Y-150190000D01*
X120050000Y-154790000D02*
X120050000Y-150190000D01*
X120200000Y-154790000D02*
X120200000Y-150190000D01*
X120350000Y-154790000D02*
X120350000Y-150190000D01*
X120500000Y-154790000D02*
X120500000Y-150190000D01*
X120650000Y-154790000D02*
X120650000Y-150190000D01*
X120800000Y-154790000D02*
X120800000Y-150190000D01*
X120950000Y-154790000D02*
X120950000Y-150190000D01*
D12*
X121050000Y-150240000D02*
X118350000Y-154540000D01*
X121050000Y-154690000D02*
X121050000Y-150240000D01*
D10*
X121100000Y-154790000D02*
X121100000Y-150190000D01*
X121250000Y-154790000D02*
X121250000Y-150190000D01*
X121400000Y-154790000D02*
X121400000Y-150190000D01*
X121450000Y-150165000D02*
X118875000Y-150165000D01*
X121450000Y-150165000D02*
X122475000Y-151190000D01*
X121450000Y-154815000D02*
X118850000Y-154815000D01*
X121450000Y-154815000D02*
X122475000Y-153790000D01*
X121550000Y-154690000D02*
X121550000Y-150290000D01*
X121700000Y-154540000D02*
X121700000Y-150440000D01*
X121850000Y-154390000D02*
X121850000Y-150590000D01*
X122000000Y-154240000D02*
X122000000Y-150740000D01*
X122100000Y-154140000D02*
X122100000Y-150840000D01*
X122200000Y-154040000D02*
X122200000Y-150940000D01*
X122300000Y-153940000D02*
X122300000Y-151040000D01*
X122450000Y-151165000D02*
X122450000Y-153815000D01*
X113875000Y-147965000D02*
G75*
G03*
X112875000Y-148965000I-1J-999999D01*
G01*
X112875000Y-151615000D02*
G75*
G03*
X113875000Y-152615000I999999J-1D01*
G01*
X117987801Y-154111904D02*
G75*
G03*
X115850000Y-152615000I-2137802J-778098D01*
G01*
X117987802Y-154111904D02*
G75*
G03*
X118849005Y-154813790I899999J225000D01*
G01*
X117700000Y-148990000D02*
G75*
G03*
X118875000Y-150165000I1175002J2D01*
G01*
%TO.C,D26*%
X112290000Y-135300000D02*
X112290000Y-136800000D01*
X112290000Y-136800000D02*
X117690000Y-136800000D01*
X114490000Y-135550000D02*
X114490000Y-136550000D01*
X114590000Y-136050000D02*
X115490000Y-135550000D01*
X115490000Y-135550000D02*
X115490000Y-136550000D01*
X115490000Y-136550000D02*
X114590000Y-136050000D01*
X117690000Y-135300000D02*
X112290000Y-135300000D01*
X117690000Y-136800000D02*
X117690000Y-135300000D01*
%TO.C,SW41*%
X205160000Y-111520000D02*
X205160000Y-105520000D01*
X205410000Y-111520000D02*
X205160000Y-111520000D01*
X208660000Y-111520000D02*
X208410000Y-111520000D01*
X205160000Y-105520000D02*
X205410000Y-105520000D01*
X208410000Y-105520000D02*
X208660000Y-105520000D01*
X208660000Y-105520000D02*
X208660000Y-111520000D01*
%TO.C,D18*%
X152620000Y-116280000D02*
X152620000Y-117780000D01*
X152620000Y-117780000D02*
X158020000Y-117780000D01*
X154820000Y-116530000D02*
X154820000Y-117530000D01*
X154920000Y-117030000D02*
X155820000Y-116530000D01*
X155820000Y-116530000D02*
X155820000Y-117530000D01*
X155820000Y-117530000D02*
X154920000Y-117030000D01*
X158020000Y-116280000D02*
X152620000Y-116280000D01*
X158020000Y-117780000D02*
X158020000Y-116280000D01*
%TO.C,SW20*%
X186820000Y-114000000D02*
X186820000Y-110400000D01*
X186970000Y-114200000D02*
X186970000Y-110200000D01*
X187120000Y-114300000D02*
X187120000Y-110100000D01*
X187270000Y-114400000D02*
X187270000Y-110000000D01*
X187420000Y-114450000D02*
X187420000Y-109950000D01*
X187570000Y-114500000D02*
X187570000Y-109950000D01*
X187720000Y-114500000D02*
X187720000Y-109900000D01*
X187870000Y-114500000D02*
X187870000Y-109900000D01*
X188020000Y-114500000D02*
X188020000Y-109900000D01*
X188170000Y-114500000D02*
X188170000Y-109900000D01*
X188320000Y-114500000D02*
X188320000Y-109900000D01*
X188470000Y-114500000D02*
X188470000Y-109900000D01*
X188620000Y-114500000D02*
X188620000Y-109900000D01*
X188770000Y-114500000D02*
X188770000Y-109900000D01*
X188920000Y-114500000D02*
X188920000Y-109900000D01*
X189070000Y-114500000D02*
X189070000Y-109900000D01*
X189220000Y-114500000D02*
X189220000Y-109900000D01*
D12*
X189320000Y-114400000D02*
X189320000Y-109900000D01*
D10*
X189370000Y-114500000D02*
X189370000Y-109900000D01*
X189520000Y-114500000D02*
X189520000Y-109900000D01*
X189670000Y-114500000D02*
X189670000Y-109900000D01*
X189670000Y-114525000D02*
X187695000Y-114525000D01*
X189820000Y-114500000D02*
X189820000Y-109950000D01*
X189970000Y-114550000D02*
X189970000Y-109900000D01*
X190120000Y-114550000D02*
X190120000Y-109900000D01*
X190245000Y-109875000D02*
X187695000Y-109875000D01*
X190245000Y-109875000D02*
X191520000Y-110900000D01*
X190270000Y-114550000D02*
X190270000Y-109950000D01*
X190420000Y-114600000D02*
X190420000Y-110050000D01*
X190570000Y-114700000D02*
X190570000Y-110150000D01*
X190720000Y-114750000D02*
X190720000Y-110300000D01*
X190870000Y-114850000D02*
X190870000Y-110400000D01*
X191020000Y-114950000D02*
X191020000Y-110550000D01*
X191170000Y-115050000D02*
X191170000Y-110650000D01*
X191320000Y-115200000D02*
X191320000Y-110750000D01*
X191470000Y-115350000D02*
X191470000Y-110900000D01*
X191570000Y-115550000D02*
X191570000Y-111400000D01*
X191670000Y-115700000D02*
X191670000Y-111550000D01*
X191770000Y-115900000D02*
X191770000Y-111750000D01*
X191870000Y-116050000D02*
X191870000Y-111850000D01*
X191970000Y-116300000D02*
X191970000Y-111900000D01*
X192070000Y-116450000D02*
X192070000Y-111950000D01*
D12*
X192170000Y-112100000D02*
X189320000Y-114400000D01*
X192170000Y-116450000D02*
X192170000Y-112100000D01*
D10*
X192220000Y-116550000D02*
X192220000Y-112000000D01*
X192370000Y-116650000D02*
X192370000Y-112100000D01*
X192520000Y-116700000D02*
X192520000Y-112100000D01*
X192670000Y-116700000D02*
X192670000Y-112100000D01*
X192820000Y-116700000D02*
X192820000Y-112150000D01*
X192970000Y-116700000D02*
X192970000Y-112100000D01*
X193120000Y-116700000D02*
X193120000Y-112100000D01*
X193270000Y-116700000D02*
X193270000Y-112100000D01*
X193420000Y-116700000D02*
X193420000Y-112100000D01*
X193570000Y-116700000D02*
X193570000Y-112100000D01*
X193720000Y-116700000D02*
X193720000Y-112100000D01*
X193870000Y-116700000D02*
X193870000Y-112100000D01*
X194020000Y-116700000D02*
X194020000Y-112100000D01*
X194170000Y-116700000D02*
X194170000Y-112100000D01*
X194320000Y-116700000D02*
X194320000Y-112100000D01*
X194470000Y-116700000D02*
X194470000Y-112100000D01*
X194620000Y-116700000D02*
X194620000Y-112100000D01*
X194770000Y-116700000D02*
X194770000Y-112100000D01*
D12*
X194870000Y-112150000D02*
X192170000Y-116450000D01*
X194870000Y-116600000D02*
X194870000Y-112150000D01*
D10*
X194920000Y-116700000D02*
X194920000Y-112100000D01*
X195070000Y-116700000D02*
X195070000Y-112100000D01*
X195220000Y-116700000D02*
X195220000Y-112100000D01*
X195270000Y-112075000D02*
X192695000Y-112075000D01*
X195270000Y-112075000D02*
X196295000Y-113100000D01*
X195270000Y-116725000D02*
X192670000Y-116725000D01*
X195270000Y-116725000D02*
X196295000Y-115700000D01*
X195370000Y-116600000D02*
X195370000Y-112200000D01*
X195520000Y-116450000D02*
X195520000Y-112350000D01*
X195670000Y-116300000D02*
X195670000Y-112500000D01*
X195820000Y-116150000D02*
X195820000Y-112650000D01*
X195920000Y-116050000D02*
X195920000Y-112750000D01*
X196020000Y-115950000D02*
X196020000Y-112850000D01*
X196120000Y-115850000D02*
X196120000Y-112950000D01*
X196270000Y-113075000D02*
X196270000Y-115725000D01*
X187695000Y-109875000D02*
G75*
G03*
X186695000Y-110875000I-1J-999999D01*
G01*
X186695000Y-113525000D02*
G75*
G03*
X187695000Y-114525000I999999J-1D01*
G01*
X191807801Y-116021904D02*
G75*
G03*
X189670000Y-114525000I-2137802J-778098D01*
G01*
X191807802Y-116021904D02*
G75*
G03*
X192669005Y-116723790I899999J225000D01*
G01*
X191520000Y-110900000D02*
G75*
G03*
X192695000Y-112075000I1175002J2D01*
G01*
%TO.C,SW26*%
X113000000Y-133050000D02*
X113000000Y-129450000D01*
X113150000Y-133250000D02*
X113150000Y-129250000D01*
X113300000Y-133350000D02*
X113300000Y-129150000D01*
X113450000Y-133450000D02*
X113450000Y-129050000D01*
X113600000Y-133500000D02*
X113600000Y-129000000D01*
X113750000Y-133550000D02*
X113750000Y-129000000D01*
X113900000Y-133550000D02*
X113900000Y-128950000D01*
X114050000Y-133550000D02*
X114050000Y-128950000D01*
X114200000Y-133550000D02*
X114200000Y-128950000D01*
X114350000Y-133550000D02*
X114350000Y-128950000D01*
X114500000Y-133550000D02*
X114500000Y-128950000D01*
X114650000Y-133550000D02*
X114650000Y-128950000D01*
X114800000Y-133550000D02*
X114800000Y-128950000D01*
X114950000Y-133550000D02*
X114950000Y-128950000D01*
X115100000Y-133550000D02*
X115100000Y-128950000D01*
X115250000Y-133550000D02*
X115250000Y-128950000D01*
X115400000Y-133550000D02*
X115400000Y-128950000D01*
D12*
X115500000Y-133450000D02*
X115500000Y-128950000D01*
D10*
X115550000Y-133550000D02*
X115550000Y-128950000D01*
X115700000Y-133550000D02*
X115700000Y-128950000D01*
X115850000Y-133550000D02*
X115850000Y-128950000D01*
X115850000Y-133575000D02*
X113875000Y-133575000D01*
X116000000Y-133550000D02*
X116000000Y-129000000D01*
X116150000Y-133600000D02*
X116150000Y-128950000D01*
X116300000Y-133600000D02*
X116300000Y-128950000D01*
X116425000Y-128925000D02*
X113875000Y-128925000D01*
X116425000Y-128925000D02*
X117700000Y-129950000D01*
X116450000Y-133600000D02*
X116450000Y-129000000D01*
X116600000Y-133650000D02*
X116600000Y-129100000D01*
X116750000Y-133750000D02*
X116750000Y-129200000D01*
X116900000Y-133800000D02*
X116900000Y-129350000D01*
X117050000Y-133900000D02*
X117050000Y-129450000D01*
X117200000Y-134000000D02*
X117200000Y-129600000D01*
X117350000Y-134100000D02*
X117350000Y-129700000D01*
X117500000Y-134250000D02*
X117500000Y-129800000D01*
X117650000Y-134400000D02*
X117650000Y-129950000D01*
X117750000Y-134600000D02*
X117750000Y-130450000D01*
X117850000Y-134750000D02*
X117850000Y-130600000D01*
X117950000Y-134950000D02*
X117950000Y-130800000D01*
X118050000Y-135100000D02*
X118050000Y-130900000D01*
X118150000Y-135350000D02*
X118150000Y-130950000D01*
X118250000Y-135500000D02*
X118250000Y-131000000D01*
D12*
X118350000Y-131150000D02*
X115500000Y-133450000D01*
X118350000Y-135500000D02*
X118350000Y-131150000D01*
D10*
X118400000Y-135600000D02*
X118400000Y-131050000D01*
X118550000Y-135700000D02*
X118550000Y-131150000D01*
X118700000Y-135750000D02*
X118700000Y-131150000D01*
X118850000Y-135750000D02*
X118850000Y-131150000D01*
X119000000Y-135750000D02*
X119000000Y-131200000D01*
X119150000Y-135750000D02*
X119150000Y-131150000D01*
X119300000Y-135750000D02*
X119300000Y-131150000D01*
X119450000Y-135750000D02*
X119450000Y-131150000D01*
X119600000Y-135750000D02*
X119600000Y-131150000D01*
X119750000Y-135750000D02*
X119750000Y-131150000D01*
X119900000Y-135750000D02*
X119900000Y-131150000D01*
X120050000Y-135750000D02*
X120050000Y-131150000D01*
X120200000Y-135750000D02*
X120200000Y-131150000D01*
X120350000Y-135750000D02*
X120350000Y-131150000D01*
X120500000Y-135750000D02*
X120500000Y-131150000D01*
X120650000Y-135750000D02*
X120650000Y-131150000D01*
X120800000Y-135750000D02*
X120800000Y-131150000D01*
X120950000Y-135750000D02*
X120950000Y-131150000D01*
D12*
X121050000Y-131200000D02*
X118350000Y-135500000D01*
X121050000Y-135650000D02*
X121050000Y-131200000D01*
D10*
X121100000Y-135750000D02*
X121100000Y-131150000D01*
X121250000Y-135750000D02*
X121250000Y-131150000D01*
X121400000Y-135750000D02*
X121400000Y-131150000D01*
X121450000Y-131125000D02*
X118875000Y-131125000D01*
X121450000Y-131125000D02*
X122475000Y-132150000D01*
X121450000Y-135775000D02*
X118850000Y-135775000D01*
X121450000Y-135775000D02*
X122475000Y-134750000D01*
X121550000Y-135650000D02*
X121550000Y-131250000D01*
X121700000Y-135500000D02*
X121700000Y-131400000D01*
X121850000Y-135350000D02*
X121850000Y-131550000D01*
X122000000Y-135200000D02*
X122000000Y-131700000D01*
X122100000Y-135100000D02*
X122100000Y-131800000D01*
X122200000Y-135000000D02*
X122200000Y-131900000D01*
X122300000Y-134900000D02*
X122300000Y-132000000D01*
X122450000Y-132125000D02*
X122450000Y-134775000D01*
X113875000Y-128925000D02*
G75*
G03*
X112875000Y-129925000I-1J-999999D01*
G01*
X112875000Y-132575000D02*
G75*
G03*
X113875000Y-133575000I999999J-1D01*
G01*
X117987801Y-135071904D02*
G75*
G03*
X115850000Y-133575000I-2137802J-778098D01*
G01*
X117987802Y-135071904D02*
G75*
G03*
X118849005Y-135773790I899999J225000D01*
G01*
X117700000Y-129950000D02*
G75*
G03*
X118875000Y-131125000I1175002J2D01*
G01*
%TO.C,D35*%
X109890000Y-97270000D02*
X109890000Y-98770000D01*
X109890000Y-98770000D02*
X115290000Y-98770000D01*
X112090000Y-97520000D02*
X112090000Y-98520000D01*
X112190000Y-98020000D02*
X113090000Y-97520000D01*
X113090000Y-97520000D02*
X113090000Y-98520000D01*
X113090000Y-98520000D02*
X112190000Y-98020000D01*
X115290000Y-97270000D02*
X109890000Y-97270000D01*
X115290000Y-98770000D02*
X115290000Y-97270000D01*
%TO.C,SW19*%
X160620000Y-113990000D02*
X160620000Y-110390000D01*
X160770000Y-114190000D02*
X160770000Y-110190000D01*
X160920000Y-114290000D02*
X160920000Y-110090000D01*
X161070000Y-114390000D02*
X161070000Y-109990000D01*
X161220000Y-114440000D02*
X161220000Y-109940000D01*
X161370000Y-114490000D02*
X161370000Y-109940000D01*
X161520000Y-114490000D02*
X161520000Y-109890000D01*
X161670000Y-114490000D02*
X161670000Y-109890000D01*
X161820000Y-114490000D02*
X161820000Y-109890000D01*
X161970000Y-114490000D02*
X161970000Y-109890000D01*
X162120000Y-114490000D02*
X162120000Y-109890000D01*
X162270000Y-114490000D02*
X162270000Y-109890000D01*
X162420000Y-114490000D02*
X162420000Y-109890000D01*
X162570000Y-114490000D02*
X162570000Y-109890000D01*
X162720000Y-114490000D02*
X162720000Y-109890000D01*
X162870000Y-114490000D02*
X162870000Y-109890000D01*
X163020000Y-114490000D02*
X163020000Y-109890000D01*
D12*
X163120000Y-114390000D02*
X163120000Y-109890000D01*
D10*
X163170000Y-114490000D02*
X163170000Y-109890000D01*
X163320000Y-114490000D02*
X163320000Y-109890000D01*
X163470000Y-114490000D02*
X163470000Y-109890000D01*
X163470000Y-114515000D02*
X161495000Y-114515000D01*
X163620000Y-114490000D02*
X163620000Y-109940000D01*
X163770000Y-114540000D02*
X163770000Y-109890000D01*
X163920000Y-114540000D02*
X163920000Y-109890000D01*
X164045000Y-109865000D02*
X161495000Y-109865000D01*
X164045000Y-109865000D02*
X165320000Y-110890000D01*
X164070000Y-114540000D02*
X164070000Y-109940000D01*
X164220000Y-114590000D02*
X164220000Y-110040000D01*
X164370000Y-114690000D02*
X164370000Y-110140000D01*
X164520000Y-114740000D02*
X164520000Y-110290000D01*
X164670000Y-114840000D02*
X164670000Y-110390000D01*
X164820000Y-114940000D02*
X164820000Y-110540000D01*
X164970000Y-115040000D02*
X164970000Y-110640000D01*
X165120000Y-115190000D02*
X165120000Y-110740000D01*
X165270000Y-115340000D02*
X165270000Y-110890000D01*
X165370000Y-115540000D02*
X165370000Y-111390000D01*
X165470000Y-115690000D02*
X165470000Y-111540000D01*
X165570000Y-115890000D02*
X165570000Y-111740000D01*
X165670000Y-116040000D02*
X165670000Y-111840000D01*
X165770000Y-116290000D02*
X165770000Y-111890000D01*
X165870000Y-116440000D02*
X165870000Y-111940000D01*
D12*
X165970000Y-112090000D02*
X163120000Y-114390000D01*
X165970000Y-116440000D02*
X165970000Y-112090000D01*
D10*
X166020000Y-116540000D02*
X166020000Y-111990000D01*
X166170000Y-116640000D02*
X166170000Y-112090000D01*
X166320000Y-116690000D02*
X166320000Y-112090000D01*
X166470000Y-116690000D02*
X166470000Y-112090000D01*
X166620000Y-116690000D02*
X166620000Y-112140000D01*
X166770000Y-116690000D02*
X166770000Y-112090000D01*
X166920000Y-116690000D02*
X166920000Y-112090000D01*
X167070000Y-116690000D02*
X167070000Y-112090000D01*
X167220000Y-116690000D02*
X167220000Y-112090000D01*
X167370000Y-116690000D02*
X167370000Y-112090000D01*
X167520000Y-116690000D02*
X167520000Y-112090000D01*
X167670000Y-116690000D02*
X167670000Y-112090000D01*
X167820000Y-116690000D02*
X167820000Y-112090000D01*
X167970000Y-116690000D02*
X167970000Y-112090000D01*
X168120000Y-116690000D02*
X168120000Y-112090000D01*
X168270000Y-116690000D02*
X168270000Y-112090000D01*
X168420000Y-116690000D02*
X168420000Y-112090000D01*
X168570000Y-116690000D02*
X168570000Y-112090000D01*
D12*
X168670000Y-112140000D02*
X165970000Y-116440000D01*
X168670000Y-116590000D02*
X168670000Y-112140000D01*
D10*
X168720000Y-116690000D02*
X168720000Y-112090000D01*
X168870000Y-116690000D02*
X168870000Y-112090000D01*
X169020000Y-116690000D02*
X169020000Y-112090000D01*
X169070000Y-112065000D02*
X166495000Y-112065000D01*
X169070000Y-112065000D02*
X170095000Y-113090000D01*
X169070000Y-116715000D02*
X166470000Y-116715000D01*
X169070000Y-116715000D02*
X170095000Y-115690000D01*
X169170000Y-116590000D02*
X169170000Y-112190000D01*
X169320000Y-116440000D02*
X169320000Y-112340000D01*
X169470000Y-116290000D02*
X169470000Y-112490000D01*
X169620000Y-116140000D02*
X169620000Y-112640000D01*
X169720000Y-116040000D02*
X169720000Y-112740000D01*
X169820000Y-115940000D02*
X169820000Y-112840000D01*
X169920000Y-115840000D02*
X169920000Y-112940000D01*
X170070000Y-113065000D02*
X170070000Y-115715000D01*
X161495000Y-109865000D02*
G75*
G03*
X160495000Y-110865000I-1J-999999D01*
G01*
X160495000Y-113515000D02*
G75*
G03*
X161495000Y-114515000I999999J-1D01*
G01*
X165607801Y-116011904D02*
G75*
G03*
X163470000Y-114515000I-2137802J-778098D01*
G01*
X165607802Y-116011904D02*
G75*
G03*
X166469005Y-116713790I899999J225000D01*
G01*
X165320000Y-110890000D02*
G75*
G03*
X166495000Y-112065000I1175002J2D01*
G01*
%TO.C,D29*%
X181240000Y-135310000D02*
X181240000Y-136810000D01*
X181240000Y-136810000D02*
X186640000Y-136810000D01*
X183440000Y-135560000D02*
X183440000Y-136560000D01*
X183540000Y-136060000D02*
X184440000Y-135560000D01*
X184440000Y-135560000D02*
X184440000Y-136560000D01*
X184440000Y-136560000D02*
X183540000Y-136060000D01*
X186640000Y-135310000D02*
X181240000Y-135310000D01*
X186640000Y-136810000D02*
X186640000Y-135310000D01*
%TO.C,D38*%
X166960000Y-154440000D02*
X166960000Y-155940000D01*
X166960000Y-155940000D02*
X172360000Y-155940000D01*
X169160000Y-154690000D02*
X169160000Y-155690000D01*
X169260000Y-155190000D02*
X170160000Y-154690000D01*
X170160000Y-154690000D02*
X170160000Y-155690000D01*
X170160000Y-155690000D02*
X169260000Y-155190000D01*
X172360000Y-154440000D02*
X166960000Y-154440000D01*
X172360000Y-155940000D02*
X172360000Y-154440000D01*
%TO.C,D9*%
X186015000Y-97270000D02*
X186015000Y-98770000D01*
X186015000Y-98770000D02*
X191415000Y-98770000D01*
X188215000Y-97520000D02*
X188215000Y-98520000D01*
X188315000Y-98020000D02*
X189215000Y-97520000D01*
X189215000Y-97520000D02*
X189215000Y-98520000D01*
X189215000Y-98520000D02*
X188315000Y-98020000D01*
X191415000Y-97270000D02*
X186015000Y-97270000D01*
X191415000Y-98770000D02*
X191415000Y-97270000D01*
%TO.C,D8*%
X154220000Y-97310000D02*
X154220000Y-98810000D01*
X154220000Y-98810000D02*
X159620000Y-98810000D01*
X156420000Y-97560000D02*
X156420000Y-98560000D01*
X156520000Y-98060000D02*
X157420000Y-97560000D01*
X157420000Y-97560000D02*
X157420000Y-98560000D01*
X157420000Y-98560000D02*
X156520000Y-98060000D01*
X159620000Y-97310000D02*
X154220000Y-97310000D01*
X159620000Y-98810000D02*
X159620000Y-97310000D01*
%TO.C,D27*%
X142615000Y-135260000D02*
X142615000Y-136760000D01*
X142615000Y-136760000D02*
X148015000Y-136760000D01*
X144815000Y-135510000D02*
X144815000Y-136510000D01*
X144915000Y-136010000D02*
X145815000Y-135510000D01*
X145815000Y-135510000D02*
X145815000Y-136510000D01*
X145815000Y-136510000D02*
X144915000Y-136010000D01*
X148015000Y-135260000D02*
X142615000Y-135260000D01*
X148015000Y-136760000D02*
X148015000Y-135260000D01*
%TO.C,SW27*%
X132050000Y-133050000D02*
X132050000Y-129450000D01*
X132200000Y-133250000D02*
X132200000Y-129250000D01*
X132350000Y-133350000D02*
X132350000Y-129150000D01*
X132500000Y-133450000D02*
X132500000Y-129050000D01*
X132650000Y-133500000D02*
X132650000Y-129000000D01*
X132800000Y-133550000D02*
X132800000Y-129000000D01*
X132950000Y-133550000D02*
X132950000Y-128950000D01*
X133100000Y-133550000D02*
X133100000Y-128950000D01*
X133250000Y-133550000D02*
X133250000Y-128950000D01*
X133400000Y-133550000D02*
X133400000Y-128950000D01*
X133550000Y-133550000D02*
X133550000Y-128950000D01*
X133700000Y-133550000D02*
X133700000Y-128950000D01*
X133850000Y-133550000D02*
X133850000Y-128950000D01*
X134000000Y-133550000D02*
X134000000Y-128950000D01*
X134150000Y-133550000D02*
X134150000Y-128950000D01*
X134300000Y-133550000D02*
X134300000Y-128950000D01*
X134450000Y-133550000D02*
X134450000Y-128950000D01*
D12*
X134550000Y-133450000D02*
X134550000Y-128950000D01*
D10*
X134600000Y-133550000D02*
X134600000Y-128950000D01*
X134750000Y-133550000D02*
X134750000Y-128950000D01*
X134900000Y-133550000D02*
X134900000Y-128950000D01*
X134900000Y-133575000D02*
X132925000Y-133575000D01*
X135050000Y-133550000D02*
X135050000Y-129000000D01*
X135200000Y-133600000D02*
X135200000Y-128950000D01*
X135350000Y-133600000D02*
X135350000Y-128950000D01*
X135475000Y-128925000D02*
X132925000Y-128925000D01*
X135475000Y-128925000D02*
X136750000Y-129950000D01*
X135500000Y-133600000D02*
X135500000Y-129000000D01*
X135650000Y-133650000D02*
X135650000Y-129100000D01*
X135800000Y-133750000D02*
X135800000Y-129200000D01*
X135950000Y-133800000D02*
X135950000Y-129350000D01*
X136100000Y-133900000D02*
X136100000Y-129450000D01*
X136250000Y-134000000D02*
X136250000Y-129600000D01*
X136400000Y-134100000D02*
X136400000Y-129700000D01*
X136550000Y-134250000D02*
X136550000Y-129800000D01*
X136700000Y-134400000D02*
X136700000Y-129950000D01*
X136800000Y-134600000D02*
X136800000Y-130450000D01*
X136900000Y-134750000D02*
X136900000Y-130600000D01*
X137000000Y-134950000D02*
X137000000Y-130800000D01*
X137100000Y-135100000D02*
X137100000Y-130900000D01*
X137200000Y-135350000D02*
X137200000Y-130950000D01*
X137300000Y-135500000D02*
X137300000Y-131000000D01*
D12*
X137400000Y-131150000D02*
X134550000Y-133450000D01*
X137400000Y-135500000D02*
X137400000Y-131150000D01*
D10*
X137450000Y-135600000D02*
X137450000Y-131050000D01*
X137600000Y-135700000D02*
X137600000Y-131150000D01*
X137750000Y-135750000D02*
X137750000Y-131150000D01*
X137900000Y-135750000D02*
X137900000Y-131150000D01*
X138050000Y-135750000D02*
X138050000Y-131200000D01*
X138200000Y-135750000D02*
X138200000Y-131150000D01*
X138350000Y-135750000D02*
X138350000Y-131150000D01*
X138500000Y-135750000D02*
X138500000Y-131150000D01*
X138650000Y-135750000D02*
X138650000Y-131150000D01*
X138800000Y-135750000D02*
X138800000Y-131150000D01*
X138950000Y-135750000D02*
X138950000Y-131150000D01*
X139100000Y-135750000D02*
X139100000Y-131150000D01*
X139250000Y-135750000D02*
X139250000Y-131150000D01*
X139400000Y-135750000D02*
X139400000Y-131150000D01*
X139550000Y-135750000D02*
X139550000Y-131150000D01*
X139700000Y-135750000D02*
X139700000Y-131150000D01*
X139850000Y-135750000D02*
X139850000Y-131150000D01*
X140000000Y-135750000D02*
X140000000Y-131150000D01*
D12*
X140100000Y-131200000D02*
X137400000Y-135500000D01*
X140100000Y-135650000D02*
X140100000Y-131200000D01*
D10*
X140150000Y-135750000D02*
X140150000Y-131150000D01*
X140300000Y-135750000D02*
X140300000Y-131150000D01*
X140450000Y-135750000D02*
X140450000Y-131150000D01*
X140500000Y-131125000D02*
X137925000Y-131125000D01*
X140500000Y-131125000D02*
X141525000Y-132150000D01*
X140500000Y-135775000D02*
X137900000Y-135775000D01*
X140500000Y-135775000D02*
X141525000Y-134750000D01*
X140600000Y-135650000D02*
X140600000Y-131250000D01*
X140750000Y-135500000D02*
X140750000Y-131400000D01*
X140900000Y-135350000D02*
X140900000Y-131550000D01*
X141050000Y-135200000D02*
X141050000Y-131700000D01*
X141150000Y-135100000D02*
X141150000Y-131800000D01*
X141250000Y-135000000D02*
X141250000Y-131900000D01*
X141350000Y-134900000D02*
X141350000Y-132000000D01*
X141500000Y-132125000D02*
X141500000Y-134775000D01*
X132925000Y-128925000D02*
G75*
G03*
X131925000Y-129925000I-1J-999999D01*
G01*
X131925000Y-132575000D02*
G75*
G03*
X132925000Y-133575000I999999J-1D01*
G01*
X137037801Y-135071904D02*
G75*
G03*
X134900000Y-133575000I-2137802J-778098D01*
G01*
X137037802Y-135071904D02*
G75*
G03*
X137899005Y-135773790I899999J225000D01*
G01*
X136750000Y-129950000D02*
G75*
G03*
X137925000Y-131125000I1175002J2D01*
G01*
%TO.C,D36*%
X124190000Y-154250000D02*
X124190000Y-155750000D01*
X124190000Y-155750000D02*
X129590000Y-155750000D01*
X126390000Y-154500000D02*
X126390000Y-155500000D01*
X126490000Y-155000000D02*
X127390000Y-154500000D01*
X127390000Y-154500000D02*
X127390000Y-155500000D01*
X127390000Y-155500000D02*
X126490000Y-155000000D01*
X129590000Y-154250000D02*
X124190000Y-154250000D01*
X129590000Y-155750000D02*
X129590000Y-154250000D01*
%TO.C,SW16*%
X103470000Y-113990000D02*
X103470000Y-110390000D01*
X103620000Y-114190000D02*
X103620000Y-110190000D01*
X103770000Y-114290000D02*
X103770000Y-110090000D01*
X103920000Y-114390000D02*
X103920000Y-109990000D01*
X104070000Y-114440000D02*
X104070000Y-109940000D01*
X104220000Y-114490000D02*
X104220000Y-109940000D01*
X104370000Y-114490000D02*
X104370000Y-109890000D01*
X104520000Y-114490000D02*
X104520000Y-109890000D01*
X104670000Y-114490000D02*
X104670000Y-109890000D01*
X104820000Y-114490000D02*
X104820000Y-109890000D01*
X104970000Y-114490000D02*
X104970000Y-109890000D01*
X105120000Y-114490000D02*
X105120000Y-109890000D01*
X105270000Y-114490000D02*
X105270000Y-109890000D01*
X105420000Y-114490000D02*
X105420000Y-109890000D01*
X105570000Y-114490000D02*
X105570000Y-109890000D01*
X105720000Y-114490000D02*
X105720000Y-109890000D01*
X105870000Y-114490000D02*
X105870000Y-109890000D01*
D12*
X105970000Y-114390000D02*
X105970000Y-109890000D01*
D10*
X106020000Y-114490000D02*
X106020000Y-109890000D01*
X106170000Y-114490000D02*
X106170000Y-109890000D01*
X106320000Y-114490000D02*
X106320000Y-109890000D01*
X106320000Y-114515000D02*
X104345000Y-114515000D01*
X106470000Y-114490000D02*
X106470000Y-109940000D01*
X106620000Y-114540000D02*
X106620000Y-109890000D01*
X106770000Y-114540000D02*
X106770000Y-109890000D01*
X106895000Y-109865000D02*
X104345000Y-109865000D01*
X106895000Y-109865000D02*
X108170000Y-110890000D01*
X106920000Y-114540000D02*
X106920000Y-109940000D01*
X107070000Y-114590000D02*
X107070000Y-110040000D01*
X107220000Y-114690000D02*
X107220000Y-110140000D01*
X107370000Y-114740000D02*
X107370000Y-110290000D01*
X107520000Y-114840000D02*
X107520000Y-110390000D01*
X107670000Y-114940000D02*
X107670000Y-110540000D01*
X107820000Y-115040000D02*
X107820000Y-110640000D01*
X107970000Y-115190000D02*
X107970000Y-110740000D01*
X108120000Y-115340000D02*
X108120000Y-110890000D01*
X108220000Y-115540000D02*
X108220000Y-111390000D01*
X108320000Y-115690000D02*
X108320000Y-111540000D01*
X108420000Y-115890000D02*
X108420000Y-111740000D01*
X108520000Y-116040000D02*
X108520000Y-111840000D01*
X108620000Y-116290000D02*
X108620000Y-111890000D01*
X108720000Y-116440000D02*
X108720000Y-111940000D01*
D12*
X108820000Y-112090000D02*
X105970000Y-114390000D01*
X108820000Y-116440000D02*
X108820000Y-112090000D01*
D10*
X108870000Y-116540000D02*
X108870000Y-111990000D01*
X109020000Y-116640000D02*
X109020000Y-112090000D01*
X109170000Y-116690000D02*
X109170000Y-112090000D01*
X109320000Y-116690000D02*
X109320000Y-112090000D01*
X109470000Y-116690000D02*
X109470000Y-112140000D01*
X109620000Y-116690000D02*
X109620000Y-112090000D01*
X109770000Y-116690000D02*
X109770000Y-112090000D01*
X109920000Y-116690000D02*
X109920000Y-112090000D01*
X110070000Y-116690000D02*
X110070000Y-112090000D01*
X110220000Y-116690000D02*
X110220000Y-112090000D01*
X110370000Y-116690000D02*
X110370000Y-112090000D01*
X110520000Y-116690000D02*
X110520000Y-112090000D01*
X110670000Y-116690000D02*
X110670000Y-112090000D01*
X110820000Y-116690000D02*
X110820000Y-112090000D01*
X110970000Y-116690000D02*
X110970000Y-112090000D01*
X111120000Y-116690000D02*
X111120000Y-112090000D01*
X111270000Y-116690000D02*
X111270000Y-112090000D01*
X111420000Y-116690000D02*
X111420000Y-112090000D01*
D12*
X111520000Y-112140000D02*
X108820000Y-116440000D01*
X111520000Y-116590000D02*
X111520000Y-112140000D01*
D10*
X111570000Y-116690000D02*
X111570000Y-112090000D01*
X111720000Y-116690000D02*
X111720000Y-112090000D01*
X111870000Y-116690000D02*
X111870000Y-112090000D01*
X111920000Y-112065000D02*
X109345000Y-112065000D01*
X111920000Y-112065000D02*
X112945000Y-113090000D01*
X111920000Y-116715000D02*
X109320000Y-116715000D01*
X111920000Y-116715000D02*
X112945000Y-115690000D01*
X112020000Y-116590000D02*
X112020000Y-112190000D01*
X112170000Y-116440000D02*
X112170000Y-112340000D01*
X112320000Y-116290000D02*
X112320000Y-112490000D01*
X112470000Y-116140000D02*
X112470000Y-112640000D01*
X112570000Y-116040000D02*
X112570000Y-112740000D01*
X112670000Y-115940000D02*
X112670000Y-112840000D01*
X112770000Y-115840000D02*
X112770000Y-112940000D01*
X112920000Y-113065000D02*
X112920000Y-115715000D01*
X104345000Y-109865000D02*
G75*
G03*
X103345000Y-110865000I-1J-999999D01*
G01*
X103345000Y-113515000D02*
G75*
G03*
X104345000Y-114515000I999999J-1D01*
G01*
X108457801Y-116011904D02*
G75*
G03*
X106320000Y-114515000I-2137802J-778098D01*
G01*
X108457802Y-116011904D02*
G75*
G03*
X109319005Y-116713790I899999J225000D01*
G01*
X108170000Y-110890000D02*
G75*
G03*
X109345000Y-112065000I1175002J2D01*
G01*
%TO.C,D16*%
X114500000Y-116260000D02*
X114500000Y-117760000D01*
X114500000Y-117760000D02*
X119900000Y-117760000D01*
X116700000Y-116510000D02*
X116700000Y-117510000D01*
X116800000Y-117010000D02*
X117700000Y-116510000D01*
X117700000Y-116510000D02*
X117700000Y-117510000D01*
X117700000Y-117510000D02*
X116800000Y-117010000D01*
X119900000Y-116260000D02*
X114500000Y-116260000D01*
X119900000Y-117760000D02*
X119900000Y-116260000D01*
%TO.C,D37*%
X147900000Y-154440000D02*
X147900000Y-155940000D01*
X147900000Y-155940000D02*
X153300000Y-155940000D01*
X150100000Y-154690000D02*
X150100000Y-155690000D01*
X150200000Y-155190000D02*
X151100000Y-154690000D01*
X151100000Y-154690000D02*
X151100000Y-155690000D01*
X151100000Y-155690000D02*
X150200000Y-155190000D01*
X153300000Y-154440000D02*
X147900000Y-154440000D01*
X153300000Y-155940000D02*
X153300000Y-154440000D01*
%TO.C,D30*%
X202660000Y-135380000D02*
X202660000Y-136880000D01*
X202660000Y-136880000D02*
X208060000Y-136880000D01*
X204860000Y-135630000D02*
X204860000Y-136630000D01*
X204960000Y-136130000D02*
X205860000Y-135630000D01*
X205860000Y-135630000D02*
X205860000Y-136630000D01*
X205860000Y-136630000D02*
X204960000Y-136130000D01*
X208060000Y-135380000D02*
X202660000Y-135380000D01*
X208060000Y-136880000D02*
X208060000Y-135380000D01*
%TO.C,SW29*%
X170150000Y-133050000D02*
X170150000Y-129450000D01*
X170300000Y-133250000D02*
X170300000Y-129250000D01*
X170450000Y-133350000D02*
X170450000Y-129150000D01*
X170600000Y-133450000D02*
X170600000Y-129050000D01*
X170750000Y-133500000D02*
X170750000Y-129000000D01*
X170900000Y-133550000D02*
X170900000Y-129000000D01*
X171050000Y-133550000D02*
X171050000Y-128950000D01*
X171200000Y-133550000D02*
X171200000Y-128950000D01*
X171350000Y-133550000D02*
X171350000Y-128950000D01*
X171500000Y-133550000D02*
X171500000Y-128950000D01*
X171650000Y-133550000D02*
X171650000Y-128950000D01*
X171800000Y-133550000D02*
X171800000Y-128950000D01*
X171950000Y-133550000D02*
X171950000Y-128950000D01*
X172100000Y-133550000D02*
X172100000Y-128950000D01*
X172250000Y-133550000D02*
X172250000Y-128950000D01*
X172400000Y-133550000D02*
X172400000Y-128950000D01*
X172550000Y-133550000D02*
X172550000Y-128950000D01*
D12*
X172650000Y-133450000D02*
X172650000Y-128950000D01*
D10*
X172700000Y-133550000D02*
X172700000Y-128950000D01*
X172850000Y-133550000D02*
X172850000Y-128950000D01*
X173000000Y-133550000D02*
X173000000Y-128950000D01*
X173000000Y-133575000D02*
X171025000Y-133575000D01*
X173150000Y-133550000D02*
X173150000Y-129000000D01*
X173300000Y-133600000D02*
X173300000Y-128950000D01*
X173450000Y-133600000D02*
X173450000Y-128950000D01*
X173575000Y-128925000D02*
X171025000Y-128925000D01*
X173575000Y-128925000D02*
X174850000Y-129950000D01*
X173600000Y-133600000D02*
X173600000Y-129000000D01*
X173750000Y-133650000D02*
X173750000Y-129100000D01*
X173900000Y-133750000D02*
X173900000Y-129200000D01*
X174050000Y-133800000D02*
X174050000Y-129350000D01*
X174200000Y-133900000D02*
X174200000Y-129450000D01*
X174350000Y-134000000D02*
X174350000Y-129600000D01*
X174500000Y-134100000D02*
X174500000Y-129700000D01*
X174650000Y-134250000D02*
X174650000Y-129800000D01*
X174800000Y-134400000D02*
X174800000Y-129950000D01*
X174900000Y-134600000D02*
X174900000Y-130450000D01*
X175000000Y-134750000D02*
X175000000Y-130600000D01*
X175100000Y-134950000D02*
X175100000Y-130800000D01*
X175200000Y-135100000D02*
X175200000Y-130900000D01*
X175300000Y-135350000D02*
X175300000Y-130950000D01*
X175400000Y-135500000D02*
X175400000Y-131000000D01*
D12*
X175500000Y-131150000D02*
X172650000Y-133450000D01*
X175500000Y-135500000D02*
X175500000Y-131150000D01*
D10*
X175550000Y-135600000D02*
X175550000Y-131050000D01*
X175700000Y-135700000D02*
X175700000Y-131150000D01*
X175850000Y-135750000D02*
X175850000Y-131150000D01*
X176000000Y-135750000D02*
X176000000Y-131150000D01*
X176150000Y-135750000D02*
X176150000Y-131200000D01*
X176300000Y-135750000D02*
X176300000Y-131150000D01*
X176450000Y-135750000D02*
X176450000Y-131150000D01*
X176600000Y-135750000D02*
X176600000Y-131150000D01*
X176750000Y-135750000D02*
X176750000Y-131150000D01*
X176900000Y-135750000D02*
X176900000Y-131150000D01*
X177050000Y-135750000D02*
X177050000Y-131150000D01*
X177200000Y-135750000D02*
X177200000Y-131150000D01*
X177350000Y-135750000D02*
X177350000Y-131150000D01*
X177500000Y-135750000D02*
X177500000Y-131150000D01*
X177650000Y-135750000D02*
X177650000Y-131150000D01*
X177800000Y-135750000D02*
X177800000Y-131150000D01*
X177950000Y-135750000D02*
X177950000Y-131150000D01*
X178100000Y-135750000D02*
X178100000Y-131150000D01*
D12*
X178200000Y-131200000D02*
X175500000Y-135500000D01*
X178200000Y-135650000D02*
X178200000Y-131200000D01*
D10*
X178250000Y-135750000D02*
X178250000Y-131150000D01*
X178400000Y-135750000D02*
X178400000Y-131150000D01*
X178550000Y-135750000D02*
X178550000Y-131150000D01*
X178600000Y-131125000D02*
X176025000Y-131125000D01*
X178600000Y-131125000D02*
X179625000Y-132150000D01*
X178600000Y-135775000D02*
X176000000Y-135775000D01*
X178600000Y-135775000D02*
X179625000Y-134750000D01*
X178700000Y-135650000D02*
X178700000Y-131250000D01*
X178850000Y-135500000D02*
X178850000Y-131400000D01*
X179000000Y-135350000D02*
X179000000Y-131550000D01*
X179150000Y-135200000D02*
X179150000Y-131700000D01*
X179250000Y-135100000D02*
X179250000Y-131800000D01*
X179350000Y-135000000D02*
X179350000Y-131900000D01*
X179450000Y-134900000D02*
X179450000Y-132000000D01*
X179600000Y-132125000D02*
X179600000Y-134775000D01*
X171025000Y-128925000D02*
G75*
G03*
X170025000Y-129925000I-1J-999999D01*
G01*
X170025000Y-132575000D02*
G75*
G03*
X171025000Y-133575000I999999J-1D01*
G01*
X175137801Y-135071904D02*
G75*
G03*
X173000000Y-133575000I-2137802J-778098D01*
G01*
X175137802Y-135071904D02*
G75*
G03*
X175999005Y-135773790I899999J225000D01*
G01*
X174850000Y-129950000D02*
G75*
G03*
X176025000Y-131125000I1175002J2D01*
G01*
%TO.C,SW8*%
X155855000Y-94940000D02*
X155855000Y-91340000D01*
X156005000Y-95140000D02*
X156005000Y-91140000D01*
X156155000Y-95240000D02*
X156155000Y-91040000D01*
X156305000Y-95340000D02*
X156305000Y-90940000D01*
X156455000Y-95390000D02*
X156455000Y-90890000D01*
X156605000Y-95440000D02*
X156605000Y-90890000D01*
X156755000Y-95440000D02*
X156755000Y-90840000D01*
X156905000Y-95440000D02*
X156905000Y-90840000D01*
X157055000Y-95440000D02*
X157055000Y-90840000D01*
X157205000Y-95440000D02*
X157205000Y-90840000D01*
X157355000Y-95440000D02*
X157355000Y-90840000D01*
X157505000Y-95440000D02*
X157505000Y-90840000D01*
X157655000Y-95440000D02*
X157655000Y-90840000D01*
X157805000Y-95440000D02*
X157805000Y-90840000D01*
X157955000Y-95440000D02*
X157955000Y-90840000D01*
X158105000Y-95440000D02*
X158105000Y-90840000D01*
X158255000Y-95440000D02*
X158255000Y-90840000D01*
D12*
X158355000Y-95340000D02*
X158355000Y-90840000D01*
D10*
X158405000Y-95440000D02*
X158405000Y-90840000D01*
X158555000Y-95440000D02*
X158555000Y-90840000D01*
X158705000Y-95440000D02*
X158705000Y-90840000D01*
X158705000Y-95465000D02*
X156730000Y-95465000D01*
X158855000Y-95440000D02*
X158855000Y-90890000D01*
X159005000Y-95490000D02*
X159005000Y-90840000D01*
X159155000Y-95490000D02*
X159155000Y-90840000D01*
X159280000Y-90815000D02*
X156730000Y-90815000D01*
X159280000Y-90815000D02*
X160555000Y-91840000D01*
X159305000Y-95490000D02*
X159305000Y-90890000D01*
X159455000Y-95540000D02*
X159455000Y-90990000D01*
X159605000Y-95640000D02*
X159605000Y-91090000D01*
X159755000Y-95690000D02*
X159755000Y-91240000D01*
X159905000Y-95790000D02*
X159905000Y-91340000D01*
X160055000Y-95890000D02*
X160055000Y-91490000D01*
X160205000Y-95990000D02*
X160205000Y-91590000D01*
X160355000Y-96140000D02*
X160355000Y-91690000D01*
X160505000Y-96290000D02*
X160505000Y-91840000D01*
X160605000Y-96490000D02*
X160605000Y-92340000D01*
X160705000Y-96640000D02*
X160705000Y-92490000D01*
X160805000Y-96840000D02*
X160805000Y-92690000D01*
X160905000Y-96990000D02*
X160905000Y-92790000D01*
X161005000Y-97240000D02*
X161005000Y-92840000D01*
X161105000Y-97390000D02*
X161105000Y-92890000D01*
D12*
X161205000Y-93040000D02*
X158355000Y-95340000D01*
X161205000Y-97390000D02*
X161205000Y-93040000D01*
D10*
X161255000Y-97490000D02*
X161255000Y-92940000D01*
X161405000Y-97590000D02*
X161405000Y-93040000D01*
X161555000Y-97640000D02*
X161555000Y-93040000D01*
X161705000Y-97640000D02*
X161705000Y-93040000D01*
X161855000Y-97640000D02*
X161855000Y-93090000D01*
X162005000Y-97640000D02*
X162005000Y-93040000D01*
X162155000Y-97640000D02*
X162155000Y-93040000D01*
X162305000Y-97640000D02*
X162305000Y-93040000D01*
X162455000Y-97640000D02*
X162455000Y-93040000D01*
X162605000Y-97640000D02*
X162605000Y-93040000D01*
X162755000Y-97640000D02*
X162755000Y-93040000D01*
X162905000Y-97640000D02*
X162905000Y-93040000D01*
X163055000Y-97640000D02*
X163055000Y-93040000D01*
X163205000Y-97640000D02*
X163205000Y-93040000D01*
X163355000Y-97640000D02*
X163355000Y-93040000D01*
X163505000Y-97640000D02*
X163505000Y-93040000D01*
X163655000Y-97640000D02*
X163655000Y-93040000D01*
X163805000Y-97640000D02*
X163805000Y-93040000D01*
D12*
X163905000Y-93090000D02*
X161205000Y-97390000D01*
X163905000Y-97540000D02*
X163905000Y-93090000D01*
D10*
X163955000Y-97640000D02*
X163955000Y-93040000D01*
X164105000Y-97640000D02*
X164105000Y-93040000D01*
X164255000Y-97640000D02*
X164255000Y-93040000D01*
X164305000Y-93015000D02*
X161730000Y-93015000D01*
X164305000Y-93015000D02*
X165330000Y-94040000D01*
X164305000Y-97665000D02*
X161705000Y-97665000D01*
X164305000Y-97665000D02*
X165330000Y-96640000D01*
X164405000Y-97540000D02*
X164405000Y-93140000D01*
X164555000Y-97390000D02*
X164555000Y-93290000D01*
X164705000Y-97240000D02*
X164705000Y-93440000D01*
X164855000Y-97090000D02*
X164855000Y-93590000D01*
X164955000Y-96990000D02*
X164955000Y-93690000D01*
X165055000Y-96890000D02*
X165055000Y-93790000D01*
X165155000Y-96790000D02*
X165155000Y-93890000D01*
X165305000Y-94015000D02*
X165305000Y-96665000D01*
X156730000Y-90815000D02*
G75*
G03*
X155730000Y-91815000I-1J-999999D01*
G01*
X155730000Y-94465000D02*
G75*
G03*
X156730000Y-95465000I999999J-1D01*
G01*
X160842801Y-96961904D02*
G75*
G03*
X158705000Y-95465000I-2137802J-778098D01*
G01*
X160842802Y-96961904D02*
G75*
G03*
X161704005Y-97663790I899999J225000D01*
G01*
X160555000Y-91840000D02*
G75*
G03*
X161730000Y-93015000I1175002J2D01*
G01*
%TO.C,SW30*%
X191570000Y-133030000D02*
X191570000Y-129430000D01*
X191720000Y-133230000D02*
X191720000Y-129230000D01*
X191870000Y-133330000D02*
X191870000Y-129130000D01*
X192020000Y-133430000D02*
X192020000Y-129030000D01*
X192170000Y-133480000D02*
X192170000Y-128980000D01*
X192320000Y-133530000D02*
X192320000Y-128980000D01*
X192470000Y-133530000D02*
X192470000Y-128930000D01*
X192620000Y-133530000D02*
X192620000Y-128930000D01*
X192770000Y-133530000D02*
X192770000Y-128930000D01*
X192920000Y-133530000D02*
X192920000Y-128930000D01*
X193070000Y-133530000D02*
X193070000Y-128930000D01*
X193220000Y-133530000D02*
X193220000Y-128930000D01*
X193370000Y-133530000D02*
X193370000Y-128930000D01*
X193520000Y-133530000D02*
X193520000Y-128930000D01*
X193670000Y-133530000D02*
X193670000Y-128930000D01*
X193820000Y-133530000D02*
X193820000Y-128930000D01*
X193970000Y-133530000D02*
X193970000Y-128930000D01*
D12*
X194070000Y-133430000D02*
X194070000Y-128930000D01*
D10*
X194120000Y-133530000D02*
X194120000Y-128930000D01*
X194270000Y-133530000D02*
X194270000Y-128930000D01*
X194420000Y-133530000D02*
X194420000Y-128930000D01*
X194420000Y-133555000D02*
X192445000Y-133555000D01*
X194570000Y-133530000D02*
X194570000Y-128980000D01*
X194720000Y-133580000D02*
X194720000Y-128930000D01*
X194870000Y-133580000D02*
X194870000Y-128930000D01*
X194995000Y-128905000D02*
X192445000Y-128905000D01*
X194995000Y-128905000D02*
X196270000Y-129930000D01*
X195020000Y-133580000D02*
X195020000Y-128980000D01*
X195170000Y-133630000D02*
X195170000Y-129080000D01*
X195320000Y-133730000D02*
X195320000Y-129180000D01*
X195470000Y-133780000D02*
X195470000Y-129330000D01*
X195620000Y-133880000D02*
X195620000Y-129430000D01*
X195770000Y-133980000D02*
X195770000Y-129580000D01*
X195920000Y-134080000D02*
X195920000Y-129680000D01*
X196070000Y-134230000D02*
X196070000Y-129780000D01*
X196220000Y-134380000D02*
X196220000Y-129930000D01*
X196320000Y-134580000D02*
X196320000Y-130430000D01*
X196420000Y-134730000D02*
X196420000Y-130580000D01*
X196520000Y-134930000D02*
X196520000Y-130780000D01*
X196620000Y-135080000D02*
X196620000Y-130880000D01*
X196720000Y-135330000D02*
X196720000Y-130930000D01*
X196820000Y-135480000D02*
X196820000Y-130980000D01*
D12*
X196920000Y-131130000D02*
X194070000Y-133430000D01*
X196920000Y-135480000D02*
X196920000Y-131130000D01*
D10*
X196970000Y-135580000D02*
X196970000Y-131030000D01*
X197120000Y-135680000D02*
X197120000Y-131130000D01*
X197270000Y-135730000D02*
X197270000Y-131130000D01*
X197420000Y-135730000D02*
X197420000Y-131130000D01*
X197570000Y-135730000D02*
X197570000Y-131180000D01*
X197720000Y-135730000D02*
X197720000Y-131130000D01*
X197870000Y-135730000D02*
X197870000Y-131130000D01*
X198020000Y-135730000D02*
X198020000Y-131130000D01*
X198170000Y-135730000D02*
X198170000Y-131130000D01*
X198320000Y-135730000D02*
X198320000Y-131130000D01*
X198470000Y-135730000D02*
X198470000Y-131130000D01*
X198620000Y-135730000D02*
X198620000Y-131130000D01*
X198770000Y-135730000D02*
X198770000Y-131130000D01*
X198920000Y-135730000D02*
X198920000Y-131130000D01*
X199070000Y-135730000D02*
X199070000Y-131130000D01*
X199220000Y-135730000D02*
X199220000Y-131130000D01*
X199370000Y-135730000D02*
X199370000Y-131130000D01*
X199520000Y-135730000D02*
X199520000Y-131130000D01*
D12*
X199620000Y-131180000D02*
X196920000Y-135480000D01*
X199620000Y-135630000D02*
X199620000Y-131180000D01*
D10*
X199670000Y-135730000D02*
X199670000Y-131130000D01*
X199820000Y-135730000D02*
X199820000Y-131130000D01*
X199970000Y-135730000D02*
X199970000Y-131130000D01*
X200020000Y-131105000D02*
X197445000Y-131105000D01*
X200020000Y-131105000D02*
X201045000Y-132130000D01*
X200020000Y-135755000D02*
X197420000Y-135755000D01*
X200020000Y-135755000D02*
X201045000Y-134730000D01*
X200120000Y-135630000D02*
X200120000Y-131230000D01*
X200270000Y-135480000D02*
X200270000Y-131380000D01*
X200420000Y-135330000D02*
X200420000Y-131530000D01*
X200570000Y-135180000D02*
X200570000Y-131680000D01*
X200670000Y-135080000D02*
X200670000Y-131780000D01*
X200770000Y-134980000D02*
X200770000Y-131880000D01*
X200870000Y-134880000D02*
X200870000Y-131980000D01*
X201020000Y-132105000D02*
X201020000Y-134755000D01*
X192445000Y-128905000D02*
G75*
G03*
X191445000Y-129905000I-1J-999999D01*
G01*
X191445000Y-132555000D02*
G75*
G03*
X192445000Y-133555000I999999J-1D01*
G01*
X196557801Y-135051904D02*
G75*
G03*
X194420000Y-133555000I-2137802J-778098D01*
G01*
X196557802Y-135051904D02*
G75*
G03*
X197419005Y-135753790I899999J225000D01*
G01*
X196270000Y-129930000D02*
G75*
G03*
X197445000Y-131105000I1175002J2D01*
G01*
%TO.C,SW35*%
X98710000Y-94960000D02*
X98710000Y-91360000D01*
X98860000Y-95160000D02*
X98860000Y-91160000D01*
X99010000Y-95260000D02*
X99010000Y-91060000D01*
X99160000Y-95360000D02*
X99160000Y-90960000D01*
X99310000Y-95410000D02*
X99310000Y-90910000D01*
X99460000Y-95460000D02*
X99460000Y-90910000D01*
X99610000Y-95460000D02*
X99610000Y-90860000D01*
X99760000Y-95460000D02*
X99760000Y-90860000D01*
X99910000Y-95460000D02*
X99910000Y-90860000D01*
X100060000Y-95460000D02*
X100060000Y-90860000D01*
X100210000Y-95460000D02*
X100210000Y-90860000D01*
X100360000Y-95460000D02*
X100360000Y-90860000D01*
X100510000Y-95460000D02*
X100510000Y-90860000D01*
X100660000Y-95460000D02*
X100660000Y-90860000D01*
X100810000Y-95460000D02*
X100810000Y-90860000D01*
X100960000Y-95460000D02*
X100960000Y-90860000D01*
X101110000Y-95460000D02*
X101110000Y-90860000D01*
D12*
X101210000Y-95360000D02*
X101210000Y-90860000D01*
D10*
X101260000Y-95460000D02*
X101260000Y-90860000D01*
X101410000Y-95460000D02*
X101410000Y-90860000D01*
X101560000Y-95460000D02*
X101560000Y-90860000D01*
X101560000Y-95485000D02*
X99585000Y-95485000D01*
X101710000Y-95460000D02*
X101710000Y-90910000D01*
X101860000Y-95510000D02*
X101860000Y-90860000D01*
X102010000Y-95510000D02*
X102010000Y-90860000D01*
X102135000Y-90835000D02*
X99585000Y-90835000D01*
X102135000Y-90835000D02*
X103410000Y-91860000D01*
X102160000Y-95510000D02*
X102160000Y-90910000D01*
X102310000Y-95560000D02*
X102310000Y-91010000D01*
X102460000Y-95660000D02*
X102460000Y-91110000D01*
X102610000Y-95710000D02*
X102610000Y-91260000D01*
X102760000Y-95810000D02*
X102760000Y-91360000D01*
X102910000Y-95910000D02*
X102910000Y-91510000D01*
X103060000Y-96010000D02*
X103060000Y-91610000D01*
X103210000Y-96160000D02*
X103210000Y-91710000D01*
X103360000Y-96310000D02*
X103360000Y-91860000D01*
X103460000Y-96510000D02*
X103460000Y-92360000D01*
X103560000Y-96660000D02*
X103560000Y-92510000D01*
X103660000Y-96860000D02*
X103660000Y-92710000D01*
X103760000Y-97010000D02*
X103760000Y-92810000D01*
X103860000Y-97260000D02*
X103860000Y-92860000D01*
X103960000Y-97410000D02*
X103960000Y-92910000D01*
D12*
X104060000Y-93060000D02*
X101210000Y-95360000D01*
X104060000Y-97410000D02*
X104060000Y-93060000D01*
D10*
X104110000Y-97510000D02*
X104110000Y-92960000D01*
X104260000Y-97610000D02*
X104260000Y-93060000D01*
X104410000Y-97660000D02*
X104410000Y-93060000D01*
X104560000Y-97660000D02*
X104560000Y-93060000D01*
X104710000Y-97660000D02*
X104710000Y-93110000D01*
X104860000Y-97660000D02*
X104860000Y-93060000D01*
X105010000Y-97660000D02*
X105010000Y-93060000D01*
X105160000Y-97660000D02*
X105160000Y-93060000D01*
X105310000Y-97660000D02*
X105310000Y-93060000D01*
X105460000Y-97660000D02*
X105460000Y-93060000D01*
X105610000Y-97660000D02*
X105610000Y-93060000D01*
X105760000Y-97660000D02*
X105760000Y-93060000D01*
X105910000Y-97660000D02*
X105910000Y-93060000D01*
X106060000Y-97660000D02*
X106060000Y-93060000D01*
X106210000Y-97660000D02*
X106210000Y-93060000D01*
X106360000Y-97660000D02*
X106360000Y-93060000D01*
X106510000Y-97660000D02*
X106510000Y-93060000D01*
X106660000Y-97660000D02*
X106660000Y-93060000D01*
D12*
X106760000Y-93110000D02*
X104060000Y-97410000D01*
X106760000Y-97560000D02*
X106760000Y-93110000D01*
D10*
X106810000Y-97660000D02*
X106810000Y-93060000D01*
X106960000Y-97660000D02*
X106960000Y-93060000D01*
X107110000Y-97660000D02*
X107110000Y-93060000D01*
X107160000Y-93035000D02*
X104585000Y-93035000D01*
X107160000Y-93035000D02*
X108185000Y-94060000D01*
X107160000Y-97685000D02*
X104560000Y-97685000D01*
X107160000Y-97685000D02*
X108185000Y-96660000D01*
X107260000Y-97560000D02*
X107260000Y-93160000D01*
X107410000Y-97410000D02*
X107410000Y-93310000D01*
X107560000Y-97260000D02*
X107560000Y-93460000D01*
X107710000Y-97110000D02*
X107710000Y-93610000D01*
X107810000Y-97010000D02*
X107810000Y-93710000D01*
X107910000Y-96910000D02*
X107910000Y-93810000D01*
X108010000Y-96810000D02*
X108010000Y-93910000D01*
X108160000Y-94035000D02*
X108160000Y-96685000D01*
X99585000Y-90835000D02*
G75*
G03*
X98585000Y-91835000I-1J-999999D01*
G01*
X98585000Y-94485000D02*
G75*
G03*
X99585000Y-95485000I999999J-1D01*
G01*
X103697801Y-96981904D02*
G75*
G03*
X101560000Y-95485000I-2137802J-778098D01*
G01*
X103697802Y-96981904D02*
G75*
G03*
X104559005Y-97683790I899999J225000D01*
G01*
X103410000Y-91860000D02*
G75*
G03*
X104585000Y-93035000I1175002J2D01*
G01*
%TO.C,SW18*%
X141570000Y-113990000D02*
X141570000Y-110390000D01*
X141720000Y-114190000D02*
X141720000Y-110190000D01*
X141870000Y-114290000D02*
X141870000Y-110090000D01*
X142020000Y-114390000D02*
X142020000Y-109990000D01*
X142170000Y-114440000D02*
X142170000Y-109940000D01*
X142320000Y-114490000D02*
X142320000Y-109940000D01*
X142470000Y-114490000D02*
X142470000Y-109890000D01*
X142620000Y-114490000D02*
X142620000Y-109890000D01*
X142770000Y-114490000D02*
X142770000Y-109890000D01*
X142920000Y-114490000D02*
X142920000Y-109890000D01*
X143070000Y-114490000D02*
X143070000Y-109890000D01*
X143220000Y-114490000D02*
X143220000Y-109890000D01*
X143370000Y-114490000D02*
X143370000Y-109890000D01*
X143520000Y-114490000D02*
X143520000Y-109890000D01*
X143670000Y-114490000D02*
X143670000Y-109890000D01*
X143820000Y-114490000D02*
X143820000Y-109890000D01*
X143970000Y-114490000D02*
X143970000Y-109890000D01*
D12*
X144070000Y-114390000D02*
X144070000Y-109890000D01*
D10*
X144120000Y-114490000D02*
X144120000Y-109890000D01*
X144270000Y-114490000D02*
X144270000Y-109890000D01*
X144420000Y-114490000D02*
X144420000Y-109890000D01*
X144420000Y-114515000D02*
X142445000Y-114515000D01*
X144570000Y-114490000D02*
X144570000Y-109940000D01*
X144720000Y-114540000D02*
X144720000Y-109890000D01*
X144870000Y-114540000D02*
X144870000Y-109890000D01*
X144995000Y-109865000D02*
X142445000Y-109865000D01*
X144995000Y-109865000D02*
X146270000Y-110890000D01*
X145020000Y-114540000D02*
X145020000Y-109940000D01*
X145170000Y-114590000D02*
X145170000Y-110040000D01*
X145320000Y-114690000D02*
X145320000Y-110140000D01*
X145470000Y-114740000D02*
X145470000Y-110290000D01*
X145620000Y-114840000D02*
X145620000Y-110390000D01*
X145770000Y-114940000D02*
X145770000Y-110540000D01*
X145920000Y-115040000D02*
X145920000Y-110640000D01*
X146070000Y-115190000D02*
X146070000Y-110740000D01*
X146220000Y-115340000D02*
X146220000Y-110890000D01*
X146320000Y-115540000D02*
X146320000Y-111390000D01*
X146420000Y-115690000D02*
X146420000Y-111540000D01*
X146520000Y-115890000D02*
X146520000Y-111740000D01*
X146620000Y-116040000D02*
X146620000Y-111840000D01*
X146720000Y-116290000D02*
X146720000Y-111890000D01*
X146820000Y-116440000D02*
X146820000Y-111940000D01*
D12*
X146920000Y-112090000D02*
X144070000Y-114390000D01*
X146920000Y-116440000D02*
X146920000Y-112090000D01*
D10*
X146970000Y-116540000D02*
X146970000Y-111990000D01*
X147120000Y-116640000D02*
X147120000Y-112090000D01*
X147270000Y-116690000D02*
X147270000Y-112090000D01*
X147420000Y-116690000D02*
X147420000Y-112090000D01*
X147570000Y-116690000D02*
X147570000Y-112140000D01*
X147720000Y-116690000D02*
X147720000Y-112090000D01*
X147870000Y-116690000D02*
X147870000Y-112090000D01*
X148020000Y-116690000D02*
X148020000Y-112090000D01*
X148170000Y-116690000D02*
X148170000Y-112090000D01*
X148320000Y-116690000D02*
X148320000Y-112090000D01*
X148470000Y-116690000D02*
X148470000Y-112090000D01*
X148620000Y-116690000D02*
X148620000Y-112090000D01*
X148770000Y-116690000D02*
X148770000Y-112090000D01*
X148920000Y-116690000D02*
X148920000Y-112090000D01*
X149070000Y-116690000D02*
X149070000Y-112090000D01*
X149220000Y-116690000D02*
X149220000Y-112090000D01*
X149370000Y-116690000D02*
X149370000Y-112090000D01*
X149520000Y-116690000D02*
X149520000Y-112090000D01*
D12*
X149620000Y-112140000D02*
X146920000Y-116440000D01*
X149620000Y-116590000D02*
X149620000Y-112140000D01*
D10*
X149670000Y-116690000D02*
X149670000Y-112090000D01*
X149820000Y-116690000D02*
X149820000Y-112090000D01*
X149970000Y-116690000D02*
X149970000Y-112090000D01*
X150020000Y-112065000D02*
X147445000Y-112065000D01*
X150020000Y-112065000D02*
X151045000Y-113090000D01*
X150020000Y-116715000D02*
X147420000Y-116715000D01*
X150020000Y-116715000D02*
X151045000Y-115690000D01*
X150120000Y-116590000D02*
X150120000Y-112190000D01*
X150270000Y-116440000D02*
X150270000Y-112340000D01*
X150420000Y-116290000D02*
X150420000Y-112490000D01*
X150570000Y-116140000D02*
X150570000Y-112640000D01*
X150670000Y-116040000D02*
X150670000Y-112740000D01*
X150770000Y-115940000D02*
X150770000Y-112840000D01*
X150870000Y-115840000D02*
X150870000Y-112940000D01*
X151020000Y-113065000D02*
X151020000Y-115715000D01*
X142445000Y-109865000D02*
G75*
G03*
X141445000Y-110865000I-1J-999999D01*
G01*
X141445000Y-113515000D02*
G75*
G03*
X142445000Y-114515000I999999J-1D01*
G01*
X146557801Y-116011904D02*
G75*
G03*
X144420000Y-114515000I-2137802J-778098D01*
G01*
X146557802Y-116011904D02*
G75*
G03*
X147419005Y-116713790I899999J225000D01*
G01*
X146270000Y-110890000D02*
G75*
G03*
X147445000Y-112065000I1175002J2D01*
G01*
%TO.C,D28*%
X148880000Y-135370000D02*
X148880000Y-136870000D01*
X148880000Y-136870000D02*
X154280000Y-136870000D01*
X151080000Y-135620000D02*
X151080000Y-136620000D01*
X151180000Y-136120000D02*
X152080000Y-135620000D01*
X152080000Y-135620000D02*
X152080000Y-136620000D01*
X152080000Y-136620000D02*
X151180000Y-136120000D01*
X154280000Y-135370000D02*
X148880000Y-135370000D01*
X154280000Y-136870000D02*
X154280000Y-135370000D01*
%TO.C,SW28*%
X151100000Y-133050000D02*
X151100000Y-129450000D01*
X151250000Y-133250000D02*
X151250000Y-129250000D01*
X151400000Y-133350000D02*
X151400000Y-129150000D01*
X151550000Y-133450000D02*
X151550000Y-129050000D01*
X151700000Y-133500000D02*
X151700000Y-129000000D01*
X151850000Y-133550000D02*
X151850000Y-129000000D01*
X152000000Y-133550000D02*
X152000000Y-128950000D01*
X152150000Y-133550000D02*
X152150000Y-128950000D01*
X152300000Y-133550000D02*
X152300000Y-128950000D01*
X152450000Y-133550000D02*
X152450000Y-128950000D01*
X152600000Y-133550000D02*
X152600000Y-128950000D01*
X152750000Y-133550000D02*
X152750000Y-128950000D01*
X152900000Y-133550000D02*
X152900000Y-128950000D01*
X153050000Y-133550000D02*
X153050000Y-128950000D01*
X153200000Y-133550000D02*
X153200000Y-128950000D01*
X153350000Y-133550000D02*
X153350000Y-128950000D01*
X153500000Y-133550000D02*
X153500000Y-128950000D01*
D12*
X153600000Y-133450000D02*
X153600000Y-128950000D01*
D10*
X153650000Y-133550000D02*
X153650000Y-128950000D01*
X153800000Y-133550000D02*
X153800000Y-128950000D01*
X153950000Y-133550000D02*
X153950000Y-128950000D01*
X153950000Y-133575000D02*
X151975000Y-133575000D01*
X154100000Y-133550000D02*
X154100000Y-129000000D01*
X154250000Y-133600000D02*
X154250000Y-128950000D01*
X154400000Y-133600000D02*
X154400000Y-128950000D01*
X154525000Y-128925000D02*
X151975000Y-128925000D01*
X154525000Y-128925000D02*
X155800000Y-129950000D01*
X154550000Y-133600000D02*
X154550000Y-129000000D01*
X154700000Y-133650000D02*
X154700000Y-129100000D01*
X154850000Y-133750000D02*
X154850000Y-129200000D01*
X155000000Y-133800000D02*
X155000000Y-129350000D01*
X155150000Y-133900000D02*
X155150000Y-129450000D01*
X155300000Y-134000000D02*
X155300000Y-129600000D01*
X155450000Y-134100000D02*
X155450000Y-129700000D01*
X155600000Y-134250000D02*
X155600000Y-129800000D01*
X155750000Y-134400000D02*
X155750000Y-129950000D01*
X155850000Y-134600000D02*
X155850000Y-130450000D01*
X155950000Y-134750000D02*
X155950000Y-130600000D01*
X156050000Y-134950000D02*
X156050000Y-130800000D01*
X156150000Y-135100000D02*
X156150000Y-130900000D01*
X156250000Y-135350000D02*
X156250000Y-130950000D01*
X156350000Y-135500000D02*
X156350000Y-131000000D01*
D12*
X156450000Y-131150000D02*
X153600000Y-133450000D01*
X156450000Y-135500000D02*
X156450000Y-131150000D01*
D10*
X156500000Y-135600000D02*
X156500000Y-131050000D01*
X156650000Y-135700000D02*
X156650000Y-131150000D01*
X156800000Y-135750000D02*
X156800000Y-131150000D01*
X156950000Y-135750000D02*
X156950000Y-131150000D01*
X157100000Y-135750000D02*
X157100000Y-131200000D01*
X157250000Y-135750000D02*
X157250000Y-131150000D01*
X157400000Y-135750000D02*
X157400000Y-131150000D01*
X157550000Y-135750000D02*
X157550000Y-131150000D01*
X157700000Y-135750000D02*
X157700000Y-131150000D01*
X157850000Y-135750000D02*
X157850000Y-131150000D01*
X158000000Y-135750000D02*
X158000000Y-131150000D01*
X158150000Y-135750000D02*
X158150000Y-131150000D01*
X158300000Y-135750000D02*
X158300000Y-131150000D01*
X158450000Y-135750000D02*
X158450000Y-131150000D01*
X158600000Y-135750000D02*
X158600000Y-131150000D01*
X158750000Y-135750000D02*
X158750000Y-131150000D01*
X158900000Y-135750000D02*
X158900000Y-131150000D01*
X159050000Y-135750000D02*
X159050000Y-131150000D01*
D12*
X159150000Y-131200000D02*
X156450000Y-135500000D01*
X159150000Y-135650000D02*
X159150000Y-131200000D01*
D10*
X159200000Y-135750000D02*
X159200000Y-131150000D01*
X159350000Y-135750000D02*
X159350000Y-131150000D01*
X159500000Y-135750000D02*
X159500000Y-131150000D01*
X159550000Y-131125000D02*
X156975000Y-131125000D01*
X159550000Y-131125000D02*
X160575000Y-132150000D01*
X159550000Y-135775000D02*
X156950000Y-135775000D01*
X159550000Y-135775000D02*
X160575000Y-134750000D01*
X159650000Y-135650000D02*
X159650000Y-131250000D01*
X159800000Y-135500000D02*
X159800000Y-131400000D01*
X159950000Y-135350000D02*
X159950000Y-131550000D01*
X160100000Y-135200000D02*
X160100000Y-131700000D01*
X160200000Y-135100000D02*
X160200000Y-131800000D01*
X160300000Y-135000000D02*
X160300000Y-131900000D01*
X160400000Y-134900000D02*
X160400000Y-132000000D01*
X160550000Y-132125000D02*
X160550000Y-134775000D01*
X151975000Y-128925000D02*
G75*
G03*
X150975000Y-129925000I-1J-999999D01*
G01*
X150975000Y-132575000D02*
G75*
G03*
X151975000Y-133575000I999999J-1D01*
G01*
X156087801Y-135071904D02*
G75*
G03*
X153950000Y-133575000I-2137802J-778098D01*
G01*
X156087802Y-135071904D02*
G75*
G03*
X156949005Y-135773790I899999J225000D01*
G01*
X155800000Y-129950000D02*
G75*
G03*
X156975000Y-131125000I1175002J2D01*
G01*
%TO.C,D7*%
X147915000Y-97330000D02*
X147915000Y-98830000D01*
X147915000Y-98830000D02*
X153315000Y-98830000D01*
X150115000Y-97580000D02*
X150115000Y-98580000D01*
X150215000Y-98080000D02*
X151115000Y-97580000D01*
X151115000Y-97580000D02*
X151115000Y-98580000D01*
X151115000Y-98580000D02*
X150215000Y-98080000D01*
X153315000Y-97330000D02*
X147915000Y-97330000D01*
X153315000Y-98830000D02*
X153315000Y-97330000D01*
%TO.C,SW17*%
X122520000Y-113990000D02*
X122520000Y-110390000D01*
X122670000Y-114190000D02*
X122670000Y-110190000D01*
X122820000Y-114290000D02*
X122820000Y-110090000D01*
X122970000Y-114390000D02*
X122970000Y-109990000D01*
X123120000Y-114440000D02*
X123120000Y-109940000D01*
X123270000Y-114490000D02*
X123270000Y-109940000D01*
X123420000Y-114490000D02*
X123420000Y-109890000D01*
X123570000Y-114490000D02*
X123570000Y-109890000D01*
X123720000Y-114490000D02*
X123720000Y-109890000D01*
X123870000Y-114490000D02*
X123870000Y-109890000D01*
X124020000Y-114490000D02*
X124020000Y-109890000D01*
X124170000Y-114490000D02*
X124170000Y-109890000D01*
X124320000Y-114490000D02*
X124320000Y-109890000D01*
X124470000Y-114490000D02*
X124470000Y-109890000D01*
X124620000Y-114490000D02*
X124620000Y-109890000D01*
X124770000Y-114490000D02*
X124770000Y-109890000D01*
X124920000Y-114490000D02*
X124920000Y-109890000D01*
D12*
X125020000Y-114390000D02*
X125020000Y-109890000D01*
D10*
X125070000Y-114490000D02*
X125070000Y-109890000D01*
X125220000Y-114490000D02*
X125220000Y-109890000D01*
X125370000Y-114490000D02*
X125370000Y-109890000D01*
X125370000Y-114515000D02*
X123395000Y-114515000D01*
X125520000Y-114490000D02*
X125520000Y-109940000D01*
X125670000Y-114540000D02*
X125670000Y-109890000D01*
X125820000Y-114540000D02*
X125820000Y-109890000D01*
X125945000Y-109865000D02*
X123395000Y-109865000D01*
X125945000Y-109865000D02*
X127220000Y-110890000D01*
X125970000Y-114540000D02*
X125970000Y-109940000D01*
X126120000Y-114590000D02*
X126120000Y-110040000D01*
X126270000Y-114690000D02*
X126270000Y-110140000D01*
X126420000Y-114740000D02*
X126420000Y-110290000D01*
X126570000Y-114840000D02*
X126570000Y-110390000D01*
X126720000Y-114940000D02*
X126720000Y-110540000D01*
X126870000Y-115040000D02*
X126870000Y-110640000D01*
X127020000Y-115190000D02*
X127020000Y-110740000D01*
X127170000Y-115340000D02*
X127170000Y-110890000D01*
X127270000Y-115540000D02*
X127270000Y-111390000D01*
X127370000Y-115690000D02*
X127370000Y-111540000D01*
X127470000Y-115890000D02*
X127470000Y-111740000D01*
X127570000Y-116040000D02*
X127570000Y-111840000D01*
X127670000Y-116290000D02*
X127670000Y-111890000D01*
X127770000Y-116440000D02*
X127770000Y-111940000D01*
D12*
X127870000Y-112090000D02*
X125020000Y-114390000D01*
X127870000Y-116440000D02*
X127870000Y-112090000D01*
D10*
X127920000Y-116540000D02*
X127920000Y-111990000D01*
X128070000Y-116640000D02*
X128070000Y-112090000D01*
X128220000Y-116690000D02*
X128220000Y-112090000D01*
X128370000Y-116690000D02*
X128370000Y-112090000D01*
X128520000Y-116690000D02*
X128520000Y-112140000D01*
X128670000Y-116690000D02*
X128670000Y-112090000D01*
X128820000Y-116690000D02*
X128820000Y-112090000D01*
X128970000Y-116690000D02*
X128970000Y-112090000D01*
X129120000Y-116690000D02*
X129120000Y-112090000D01*
X129270000Y-116690000D02*
X129270000Y-112090000D01*
X129420000Y-116690000D02*
X129420000Y-112090000D01*
X129570000Y-116690000D02*
X129570000Y-112090000D01*
X129720000Y-116690000D02*
X129720000Y-112090000D01*
X129870000Y-116690000D02*
X129870000Y-112090000D01*
X130020000Y-116690000D02*
X130020000Y-112090000D01*
X130170000Y-116690000D02*
X130170000Y-112090000D01*
X130320000Y-116690000D02*
X130320000Y-112090000D01*
X130470000Y-116690000D02*
X130470000Y-112090000D01*
D12*
X130570000Y-112140000D02*
X127870000Y-116440000D01*
X130570000Y-116590000D02*
X130570000Y-112140000D01*
D10*
X130620000Y-116690000D02*
X130620000Y-112090000D01*
X130770000Y-116690000D02*
X130770000Y-112090000D01*
X130920000Y-116690000D02*
X130920000Y-112090000D01*
X130970000Y-112065000D02*
X128395000Y-112065000D01*
X130970000Y-112065000D02*
X131995000Y-113090000D01*
X130970000Y-116715000D02*
X128370000Y-116715000D01*
X130970000Y-116715000D02*
X131995000Y-115690000D01*
X131070000Y-116590000D02*
X131070000Y-112190000D01*
X131220000Y-116440000D02*
X131220000Y-112340000D01*
X131370000Y-116290000D02*
X131370000Y-112490000D01*
X131520000Y-116140000D02*
X131520000Y-112640000D01*
X131620000Y-116040000D02*
X131620000Y-112740000D01*
X131720000Y-115940000D02*
X131720000Y-112840000D01*
X131820000Y-115840000D02*
X131820000Y-112940000D01*
X131970000Y-113065000D02*
X131970000Y-115715000D01*
X123395000Y-109865000D02*
G75*
G03*
X122395000Y-110865000I-1J-999999D01*
G01*
X122395000Y-113515000D02*
G75*
G03*
X123395000Y-114515000I999999J-1D01*
G01*
X127507801Y-116011904D02*
G75*
G03*
X125370000Y-114515000I-2137802J-778098D01*
G01*
X127507802Y-116011904D02*
G75*
G03*
X128369005Y-116713790I899999J225000D01*
G01*
X127220000Y-110890000D02*
G75*
G03*
X128395000Y-112065000I1175002J2D01*
G01*
D12*
%TO.C,C1*%
X182274000Y-104112000D02*
X182274000Y-112748000D01*
X179226000Y-104112000D02*
X182274000Y-104112000D01*
X182274000Y-112748000D02*
X179226000Y-112748000D01*
X179226000Y-112748000D02*
X179226000Y-104112000D01*
D10*
%TO.C,BT1*%
X103830000Y-146910000D02*
G75*
G03*
X103830000Y-134910000I0J6000000D01*
G01*
%TO.C,U2*%
X177562000Y-156151400D02*
X177562000Y-155151400D01*
X178612000Y-156151400D02*
X177562000Y-156151400D01*
X210612000Y-156151400D02*
X209612000Y-156151400D01*
X210612000Y-156151400D02*
X210612000Y-155151400D01*
X177562000Y-138351400D02*
X177562000Y-139361400D01*
X178562000Y-138351400D02*
X177562000Y-138351400D01*
X210612000Y-138351400D02*
X210612000Y-139301400D01*
X210612000Y-138351400D02*
X209612000Y-138351400D01*
%TD*%
D13*
%TO.C,U2*%
X206790000Y-139640000D03*
X204250000Y-139640000D03*
X201710000Y-139640000D03*
X199170000Y-139640000D03*
X196630000Y-139640000D03*
X194090000Y-139640000D03*
X191550000Y-139640000D03*
X189010000Y-139640000D03*
X186470000Y-139640000D03*
X183930000Y-139640000D03*
X181390000Y-139640000D03*
X178850000Y-139640000D03*
X178850000Y-154860000D03*
X181390000Y-154860000D03*
X183930000Y-154860000D03*
X186470000Y-154860000D03*
X189010000Y-154860000D03*
X191550000Y-154860000D03*
X194090000Y-154860000D03*
X196630000Y-154860000D03*
X199170000Y-154860000D03*
X201710000Y-154860000D03*
X204250000Y-154860000D03*
X206790000Y-154860000D03*
D14*
X209330000Y-154860000D03*
D13*
X209330000Y-139640000D03*
%TD*%
M02*
