M48
; DRILL file {KiCad 7.0.8} date 2024 November 17, Sunday 17:07:34
; FORMAT={-:-/ absolute / metric / decimal}
; #@! TF.CreationDate,2024-11-17T17:07:34+09:00
; #@! TF.GenerationSoftware,Kicad,Pcbnew,7.0.8
; #@! TF.FileFunction,Plated,1,2,PTH
FMAT,2
METRIC
; #@! TA.AperFunction,Plated,PTH,ComponentDrill
T1C0.300
; #@! TA.AperFunction,Plated,PTH,ViaDrill
T2C0.400
; #@! TA.AperFunction,Plated,PTH,ComponentDrill
T3C0.500
; #@! TA.AperFunction,Plated,PTH,ComponentDrill
T4C0.813
; #@! TA.AperFunction,Plated,PTH,ComponentDrill
T5C1.000
; #@! TA.AperFunction,Plated,PTH,ComponentDrill
T6C1.300
; #@! TA.AperFunction,Plated,PTH,ComponentDrill
T7C1.850
%
G90
G05
T2
X96.93Y-104.51
X97.57Y-103.01
X105.54Y-126.34
X109.37Y-133.88
X110.8Y-101.36
X111.85Y-147.79
X113.25Y-139.14
X113.56Y-103.02
X115.32Y-120.15
X118.14Y-101.36
X127.98Y-142.59
X130.9Y-143.43
X134.44Y-120.19
X143.57Y-140.0
X148.81Y-101.54
X149.67Y-143.96
X149.84Y-139.95
X153.54Y-120.22
X155.19Y-101.72
X172.55Y-120.25
X176.86Y-104.51
X180.37Y-147.28
X180.64Y-118.69
X182.16Y-137.8
X186.56Y-149.67
X186.8Y-101.63
X189.05Y-144.22
X191.53Y-147.29
X194.01Y-143.4
X198.86Y-120.39
X200.59Y-135.8
X203.43Y-137.74
X205.98Y-101.73
X206.91Y-118.49
T4
X178.85Y-139.64
X178.85Y-154.86
X181.39Y-139.64
X181.39Y-154.86
X183.93Y-139.64
X183.93Y-154.86
X186.47Y-139.64
X186.47Y-154.86
X189.01Y-139.64
X189.01Y-154.86
X191.55Y-139.64
X191.55Y-154.86
X194.09Y-139.64
X194.09Y-154.86
X196.63Y-139.64
X196.63Y-154.86
X199.17Y-139.64
X199.17Y-154.86
X201.71Y-139.64
X201.71Y-154.86
X204.25Y-139.64
X204.25Y-154.86
X206.79Y-139.64
X206.79Y-154.86
X209.33Y-139.64
X209.33Y-154.86
T6
X206.91Y-105.27
X206.91Y-111.77
T7
X103.83Y-132.46
X103.83Y-149.36
T1
G00X111.76Y-84.46
M15
G01X111.06Y-84.46
M16
G05
G00X116.52Y-103.49
M15
G01X115.82Y-103.49
M16
G05
G00X126.05Y-122.55
M15
G01X125.35Y-122.55
M16
G05
G00X126.05Y-141.59
M15
G01X125.35Y-141.59
M16
G05
G00X130.805Y-84.44
M15
G01X130.105Y-84.44
M16
G05
G00X135.57Y-103.49
M15
G01X134.87Y-103.49
M16
G05
G00X145.1Y-122.55
M15
G01X144.4Y-122.55
M16
G05
G00X149.85Y-141.59
M15
G01X149.15Y-141.59
M16
G05
G00X149.855Y-84.44
M15
G01X149.155Y-84.44
M16
G05
G00X154.62Y-103.49
M15
G01X153.92Y-103.49
M16
G05
G00X164.15Y-122.55
M15
G01X163.45Y-122.55
M16
G05
G00X168.9Y-141.59
M15
G01X168.2Y-141.59
M16
G05
G00X168.905Y-84.44
M15
G01X168.205Y-84.44
M16
G05
G00X173.67Y-103.49
M15
G01X172.97Y-103.49
M16
G05
G00X183.2Y-122.55
M15
G01X182.5Y-122.55
M16
G05
G00X187.955Y-84.44
M15
G01X187.255Y-84.44
M16
G05
G00X199.87Y-103.5
M15
G01X199.17Y-103.5
M16
G05
G00X204.62Y-122.53
M15
G01X203.92Y-122.53
M16
G05
T3
G00X208.0Y-81.81
M15
G01X208.0Y-82.11
M16
G05
G00X208.0Y-84.31
M15
G01X208.0Y-84.61
M16
G05
G00X208.0Y-86.81
M15
G01X208.0Y-87.11
M16
G05
T5
G00X98.26Y-118.88
M15
G01X98.76Y-118.88
M16
G05
G00X101.26Y-118.88
M15
G01X101.76Y-118.88
M16
G05
G00X105.26Y-118.88
M15
G01X105.76Y-118.88
M16
G05
G00X106.76Y-123.08
M15
G01X107.26Y-123.08
M16
G05
T0
M30
