%TF.GenerationSoftware,KiCad,Pcbnew,7.0.8*%
%TF.CreationDate,2024-11-17T17:07:27+09:00*%
%TF.ProjectId,cool937r,636f6f6c-3933-4377-922e-6b696361645f,rev?*%
%TF.SameCoordinates,Original*%
%TF.FileFunction,Copper,L1,Top*%
%TF.FilePolarity,Positive*%
%FSLAX46Y46*%
G04 Gerber Fmt 4.6, Leading zero omitted, Abs format (unit mm)*
G04 Created by KiCad (PCBNEW 7.0.8) date 2024-11-17 17:07:27*
%MOMM*%
%LPD*%
G01*
G04 APERTURE LIST*
%TA.AperFunction,ComponentPad*%
%ADD10O,2.200000X1.500000*%
%TD*%
%TA.AperFunction,ComponentPad*%
%ADD11O,2.500000X1.700000*%
%TD*%
%TA.AperFunction,SMDPad,CuDef*%
%ADD12R,1.300000X0.950000*%
%TD*%
%TA.AperFunction,ComponentPad*%
%ADD13O,1.000000X1.300000*%
%TD*%
%TA.AperFunction,ComponentPad*%
%ADD14C,2.000000*%
%TD*%
%TA.AperFunction,ComponentPad*%
%ADD15C,2.850000*%
%TD*%
%TA.AperFunction,ComponentPad*%
%ADD16C,1.524000*%
%TD*%
%TA.AperFunction,ComponentPad*%
%ADD17R,1.524000X1.524000*%
%TD*%
%TA.AperFunction,ViaPad*%
%ADD18C,0.800000*%
%TD*%
%TA.AperFunction,Conductor*%
%ADD19C,0.250000*%
%TD*%
G04 APERTURE END LIST*
D10*
%TO.P,SW38,*%
%TO.N,*%
X168550000Y-141590000D03*
%TD*%
D11*
%TO.P,J1,A*%
%TO.N,unconnected-(J1-PadA)*%
X107010000Y-123080000D03*
%TO.P,J1,B*%
%TO.N,data*%
X98510000Y-118880000D03*
%TO.P,J1,C*%
%TO.N,GND*%
X101510000Y-118880000D03*
%TO.P,J1,D*%
%TO.N,VCC*%
X105510000Y-118880000D03*
%TD*%
D12*
%TO.P,D10,1,K*%
%TO.N,row0*%
X205910000Y-97950000D03*
%TO.P,D10,2,A*%
%TO.N,Net-(D10-A)*%
X209460000Y-97950000D03*
%TD*%
%TO.P,D19,1,K*%
%TO.N,row1*%
X172575000Y-117030000D03*
%TO.P,D19,2,A*%
%TO.N,Net-(D19-A)*%
X176125000Y-117030000D03*
%TD*%
%TO.P,D17,1,K*%
%TO.N,row1*%
X134495000Y-117040000D03*
%TO.P,D17,2,A*%
%TO.N,Net-(D17-A)*%
X138045000Y-117040000D03*
%TD*%
D10*
%TO.P,SW6,*%
%TO.N,*%
X130455000Y-84440000D03*
%TD*%
D12*
%TO.P,D20,1,K*%
%TO.N,row1*%
X198775000Y-117050000D03*
%TO.P,D20,2,A*%
%TO.N,Net-(D20-A)*%
X202325000Y-117050000D03*
%TD*%
D10*
%TO.P,SW9,*%
%TO.N,*%
X187605000Y-84440000D03*
%TD*%
D12*
%TO.P,D6,1,K*%
%TO.N,row0*%
X118115000Y-98110000D03*
%TO.P,D6,2,A*%
%TO.N,Net-(D6-A)*%
X121665000Y-98110000D03*
%TD*%
D13*
%TO.P,SW42,1,1*%
%TO.N,Net-(U2-BAT)*%
X208000000Y-81960000D03*
%TO.P,SW42,2,2*%
%TO.N,BAT+*%
X208000000Y-84460000D03*
%TO.P,SW42,3*%
%TO.N,N/C*%
X208000000Y-86960000D03*
%TD*%
D10*
%TO.P,SW37,*%
%TO.N,*%
X149500000Y-141590000D03*
%TD*%
%TO.P,SW7,*%
%TO.N,*%
X149505000Y-84440000D03*
%TD*%
%TO.P,SW36,*%
%TO.N,*%
X125700000Y-141590000D03*
%TD*%
D12*
%TO.P,D26,1,K*%
%TO.N,row2*%
X113215000Y-136050000D03*
%TO.P,D26,2,A*%
%TO.N,Net-(D26-A)*%
X116765000Y-136050000D03*
%TD*%
D14*
%TO.P,SW41,1,1*%
%TO.N,Net-(U2-BOOT(RST))*%
X206910000Y-105270000D03*
%TO.P,SW41,2,2*%
%TO.N,GND*%
X206910000Y-111770000D03*
%TD*%
D12*
%TO.P,D18,1,K*%
%TO.N,row1*%
X153545000Y-117030000D03*
%TO.P,D18,2,A*%
%TO.N,Net-(D18-A)*%
X157095000Y-117030000D03*
%TD*%
D10*
%TO.P,SW20,*%
%TO.N,*%
X199520000Y-103500000D03*
%TD*%
%TO.P,SW26,*%
%TO.N,*%
X125700000Y-122550000D03*
%TD*%
D12*
%TO.P,D35,1,K*%
%TO.N,row0*%
X110815000Y-98020000D03*
%TO.P,D35,2,A*%
%TO.N,Net-(D35-A)*%
X114365000Y-98020000D03*
%TD*%
D10*
%TO.P,SW19,*%
%TO.N,*%
X173320000Y-103490000D03*
%TD*%
D12*
%TO.P,D29,1,K*%
%TO.N,row2*%
X182165000Y-136060000D03*
%TO.P,D29,2,A*%
%TO.N,Net-(D29-A)*%
X185715000Y-136060000D03*
%TD*%
%TO.P,D38,1,K*%
%TO.N,row3*%
X167885000Y-155190000D03*
%TO.P,D38,2,A*%
%TO.N,Net-(D38-A)*%
X171435000Y-155190000D03*
%TD*%
%TO.P,D9,1,K*%
%TO.N,row0*%
X186940000Y-98020000D03*
%TO.P,D9,2,A*%
%TO.N,Net-(D9-A)*%
X190490000Y-98020000D03*
%TD*%
%TO.P,D8,1,K*%
%TO.N,row0*%
X155145000Y-98060000D03*
%TO.P,D8,2,A*%
%TO.N,Net-(D8-A)*%
X158695000Y-98060000D03*
%TD*%
%TO.P,D27,1,K*%
%TO.N,row2*%
X143540000Y-136010000D03*
%TO.P,D27,2,A*%
%TO.N,Net-(D27-A)*%
X147090000Y-136010000D03*
%TD*%
D10*
%TO.P,SW27,*%
%TO.N,*%
X144750000Y-122550000D03*
%TD*%
D12*
%TO.P,D36,1,K*%
%TO.N,row3*%
X125115000Y-155000000D03*
%TO.P,D36,2,A*%
%TO.N,Net-(D36-A)*%
X128665000Y-155000000D03*
%TD*%
D10*
%TO.P,SW16,*%
%TO.N,*%
X116170000Y-103490000D03*
%TD*%
D12*
%TO.P,D16,1,K*%
%TO.N,row1*%
X115425000Y-117010000D03*
%TO.P,D16,2,A*%
%TO.N,Net-(D16-A)*%
X118975000Y-117010000D03*
%TD*%
%TO.P,D37,1,K*%
%TO.N,row3*%
X148825000Y-155190000D03*
%TO.P,D37,2,A*%
%TO.N,Net-(D37-A)*%
X152375000Y-155190000D03*
%TD*%
%TO.P,D30,1,K*%
%TO.N,row2*%
X203585000Y-136130000D03*
%TO.P,D30,2,A*%
%TO.N,Net-(D30-A)*%
X207135000Y-136130000D03*
%TD*%
D10*
%TO.P,SW29,*%
%TO.N,*%
X182850000Y-122550000D03*
%TD*%
%TO.P,SW8,*%
%TO.N,*%
X168555000Y-84440000D03*
%TD*%
%TO.P,SW30,*%
%TO.N,*%
X204270000Y-122530000D03*
%TD*%
%TO.P,SW35,*%
%TO.N,*%
X111410000Y-84460000D03*
%TD*%
%TO.P,SW18,*%
%TO.N,*%
X154270000Y-103490000D03*
%TD*%
D12*
%TO.P,D28,1,K*%
%TO.N,row2*%
X149805000Y-136120000D03*
%TO.P,D28,2,A*%
%TO.N,Net-(D28-A)*%
X153355000Y-136120000D03*
%TD*%
D10*
%TO.P,SW28,*%
%TO.N,*%
X163800000Y-122550000D03*
%TD*%
D12*
%TO.P,D7,1,K*%
%TO.N,row0*%
X148840000Y-98080000D03*
%TO.P,D7,2,A*%
%TO.N,Net-(D7-A)*%
X152390000Y-98080000D03*
%TD*%
D10*
%TO.P,SW17,*%
%TO.N,*%
X135220000Y-103490000D03*
%TD*%
D15*
%TO.P,BT1,1,+*%
%TO.N,BAT+*%
X103830000Y-132460000D03*
X103830000Y-149360000D03*
%TD*%
D16*
%TO.P,U2,1,PIN1*%
%TO.N,data*%
X206790000Y-139640000D03*
%TO.P,U2,2,PIN2*%
%TO.N,unconnected-(U2-PIN2-Pad2)*%
X204250000Y-139640000D03*
%TO.P,U2,3,GND*%
%TO.N,GND*%
X201710000Y-139640000D03*
%TO.P,U2,4,GND*%
X199170000Y-139640000D03*
%TO.P,U2,5,PIN5*%
%TO.N,row0*%
X196630000Y-139640000D03*
%TO.P,U2,6,PIN6*%
%TO.N,row1*%
X194090000Y-139640000D03*
%TO.P,U2,7,PIN7*%
%TO.N,unconnected-(U2-PIN7-Pad7)*%
X191550000Y-139640000D03*
%TO.P,U2,8,PIN8*%
%TO.N,unconnected-(U2-PIN8-Pad8)*%
X189010000Y-139640000D03*
%TO.P,U2,9,PIN9*%
%TO.N,unconnected-(U2-PIN9-Pad9)*%
X186470000Y-139640000D03*
%TO.P,U2,10,PIN10*%
%TO.N,unconnected-(U2-PIN10-Pad10)*%
X183930000Y-139640000D03*
%TO.P,U2,11,PIN11*%
%TO.N,col4*%
X181390000Y-139640000D03*
%TO.P,U2,12,PIN12*%
%TO.N,unconnected-(U2-PIN12-Pad12)*%
X178850000Y-139640000D03*
%TO.P,U2,13,PIN13*%
%TO.N,unconnected-(U2-PIN13-Pad13)*%
X178850000Y-154860000D03*
%TO.P,U2,14,PIN14*%
%TO.N,row3*%
X181390000Y-154860000D03*
%TO.P,U2,15,PIN15*%
%TO.N,row2*%
X183930000Y-154860000D03*
%TO.P,U2,16,PIN16*%
%TO.N,col5*%
X186470000Y-154860000D03*
%TO.P,U2,17,PIN17*%
%TO.N,col6*%
X189010000Y-154860000D03*
%TO.P,U2,18,PIN18*%
%TO.N,col8*%
X191550000Y-154860000D03*
%TO.P,U2,19,PIN19*%
%TO.N,col7*%
X194090000Y-154860000D03*
%TO.P,U2,20,PIN20*%
%TO.N,col9*%
X196630000Y-154860000D03*
%TO.P,U2,21,+4.3V*%
%TO.N,unconnected-(U2-+4.3V-Pad21)*%
X199170000Y-154860000D03*
%TO.P,U2,22,BOOT(RST)*%
%TO.N,Net-(U2-BOOT(RST))*%
X201710000Y-154860000D03*
%TO.P,U2,23,GND*%
%TO.N,GND*%
X204250000Y-154860000D03*
%TO.P,U2,24,+5V*%
%TO.N,VCC*%
X206790000Y-154860000D03*
D17*
%TO.P,U2,25,BAT*%
%TO.N,Net-(U2-BAT)*%
X209330000Y-154860000D03*
D16*
%TO.P,U2,26*%
%TO.N,N/C*%
X209330000Y-139640000D03*
%TD*%
D18*
%TO.N,BAT+*%
X96930000Y-104510000D03*
X176860000Y-104510000D03*
%TO.N,GND*%
X206910000Y-118490000D03*
X180640000Y-118690000D03*
%TO.N,row0*%
X186800000Y-101630000D03*
X110800000Y-101360000D03*
X205980000Y-101730000D03*
X155190000Y-101720000D03*
X148810000Y-101540000D03*
X118140000Y-101360000D03*
%TO.N,row1*%
X115320000Y-120150000D03*
X198860000Y-120390000D03*
X153540000Y-120220000D03*
X134440000Y-120190000D03*
X172550000Y-120250000D03*
%TO.N,row2*%
X113250000Y-139140000D03*
X182160000Y-137800000D03*
X143570000Y-140000000D03*
X149840000Y-139950000D03*
X203430000Y-137740000D03*
%TO.N,col4*%
X97570000Y-103010000D03*
X113560000Y-103020000D03*
X127980000Y-142590000D03*
%TO.N,col5*%
X111850000Y-147790000D03*
X186560000Y-149670000D03*
%TO.N,col6*%
X189050000Y-144220000D03*
X130900000Y-143430000D03*
%TO.N,col7*%
X149670000Y-143960000D03*
X194010000Y-143400000D03*
%TO.N,col8*%
X180370000Y-147280000D03*
X191530000Y-147290000D03*
%TO.N,VCC*%
X109370000Y-133880000D03*
X200590000Y-135800000D03*
%TO.N,data*%
X105540000Y-126340000D03*
%TD*%
D19*
%TO.N,BAT+*%
X176805000Y-104565000D02*
X176860000Y-104510000D01*
X103830000Y-149360000D02*
X103830000Y-132460000D01*
X96930000Y-104510000D02*
X96985000Y-104565000D01*
X96985000Y-104565000D02*
X176805000Y-104565000D01*
%TO.N,GND*%
X206710000Y-118690000D02*
X206910000Y-118490000D01*
X115520380Y-118690000D02*
X114585380Y-117755000D01*
X114585380Y-117755000D02*
X102635000Y-117755000D01*
X180640000Y-118690000D02*
X206710000Y-118690000D01*
X102635000Y-117755000D02*
X101510000Y-118880000D01*
X180640000Y-118690000D02*
X115520380Y-118690000D01*
%TO.N,row0*%
X155190000Y-101720000D02*
X155277271Y-101632729D01*
X118140000Y-101360000D02*
X118412729Y-101632729D01*
X186800000Y-101630000D02*
X205880000Y-101630000D01*
X110800000Y-101360000D02*
X118140000Y-101360000D01*
X148717271Y-101632729D02*
X148810000Y-101540000D01*
X186797271Y-101632729D02*
X186800000Y-101630000D01*
X155277271Y-101632729D02*
X186797271Y-101632729D01*
X148810000Y-101540000D02*
X155010000Y-101540000D01*
X155010000Y-101540000D02*
X155190000Y-101720000D01*
X118412729Y-101632729D02*
X148717271Y-101632729D01*
X205880000Y-101630000D02*
X205980000Y-101730000D01*
%TO.N,row1*%
X134440000Y-120190000D02*
X115360000Y-120190000D01*
X153570000Y-120250000D02*
X153540000Y-120220000D01*
X198860000Y-120390000D02*
X172690000Y-120390000D01*
X134470000Y-120220000D02*
X134440000Y-120190000D01*
X153540000Y-120220000D02*
X134470000Y-120220000D01*
X172690000Y-120390000D02*
X172550000Y-120250000D01*
X115360000Y-120190000D02*
X115320000Y-120150000D01*
X172550000Y-120250000D02*
X153570000Y-120250000D01*
%TO.N,row2*%
X203370000Y-137800000D02*
X203430000Y-137740000D01*
X149790000Y-140000000D02*
X149840000Y-139950000D01*
X149892729Y-140002729D02*
X175397271Y-140002729D01*
X143567271Y-140002729D02*
X143570000Y-140000000D01*
X143570000Y-140000000D02*
X149790000Y-140000000D01*
X175397271Y-140002729D02*
X177600000Y-137800000D01*
X113250000Y-139140000D02*
X114112729Y-140002729D01*
X114112729Y-140002729D02*
X143567271Y-140002729D01*
X149840000Y-139950000D02*
X149892729Y-140002729D01*
X177600000Y-137800000D02*
X182160000Y-137800000D01*
X182160000Y-137800000D02*
X203370000Y-137800000D01*
%TO.N,col4*%
X181390000Y-139640000D02*
X178365000Y-142665000D01*
X167415000Y-142665000D02*
X165202729Y-140452729D01*
X113560000Y-103020000D02*
X97580000Y-103020000D01*
X178365000Y-142665000D02*
X167415000Y-142665000D01*
X165202729Y-140452729D02*
X152922271Y-140452729D01*
X152922271Y-140452729D02*
X150710000Y-142665000D01*
X128055000Y-142665000D02*
X127980000Y-142590000D01*
X150710000Y-142665000D02*
X128055000Y-142665000D01*
X97580000Y-103020000D02*
X97570000Y-103010000D01*
%TO.N,col5*%
X141491650Y-150180000D02*
X139726650Y-148415000D01*
X120995864Y-149810000D02*
X117321650Y-149810000D01*
X122390864Y-148415000D02*
X120995864Y-149810000D01*
X111975000Y-147915000D02*
X111850000Y-147790000D01*
X115426650Y-147915000D02*
X111975000Y-147915000D01*
X146195000Y-148415000D02*
X144430000Y-150180000D01*
X139726650Y-148415000D02*
X122390864Y-148415000D01*
X158776650Y-148415000D02*
X146195000Y-148415000D01*
X117321650Y-149810000D02*
X115426650Y-147915000D01*
X144430000Y-150180000D02*
X141491650Y-150180000D01*
X186560000Y-149670000D02*
X160031650Y-149670000D01*
X160031650Y-149670000D02*
X158776650Y-148415000D01*
%TO.N,col6*%
X164875000Y-143715000D02*
X165380000Y-144220000D01*
X146885000Y-143430000D02*
X130900000Y-143430000D01*
X189050000Y-144220000D02*
X165380000Y-144220000D01*
X150940305Y-143715000D02*
X149935305Y-144720000D01*
X149935305Y-144720000D02*
X148175000Y-144720000D01*
X164875000Y-143715000D02*
X150940305Y-143715000D01*
X148175000Y-144720000D02*
X146885000Y-143430000D01*
%TO.N,col7*%
X150611396Y-143400000D02*
X150230000Y-143400000D01*
X194010000Y-143400000D02*
X167513604Y-143400000D01*
X167513604Y-143400000D02*
X165016333Y-140902729D01*
X153108667Y-140902729D02*
X150611396Y-143400000D01*
X150230000Y-143400000D02*
X149670000Y-143960000D01*
X165016333Y-140902729D02*
X153108667Y-140902729D01*
%TO.N,col8*%
X191520000Y-147280000D02*
X191530000Y-147290000D01*
X180370000Y-147280000D02*
X191520000Y-147280000D01*
%TO.N,VCC*%
X200590000Y-135800000D02*
X198470000Y-135800000D01*
X178076650Y-135325000D02*
X173935000Y-135325000D01*
X117624620Y-135325000D02*
X116179620Y-133880000D01*
X120926650Y-135325000D02*
X117624620Y-135325000D01*
X159622727Y-134737273D02*
X159035000Y-135325000D01*
X116179620Y-133880000D02*
X109370000Y-133880000D01*
X173935000Y-135325000D02*
X173347273Y-134737273D01*
X140481650Y-134820000D02*
X139976650Y-135325000D01*
X135800133Y-135325000D02*
X135175133Y-134700000D01*
X153560000Y-134820000D02*
X140481650Y-134820000D01*
X135175133Y-134700000D02*
X121551650Y-134700000D01*
X159035000Y-135325000D02*
X154065000Y-135325000D01*
X178161650Y-135240000D02*
X178076650Y-135325000D01*
X197910000Y-135240000D02*
X178161650Y-135240000D01*
X121551650Y-134700000D02*
X120926650Y-135325000D01*
X198470000Y-135800000D02*
X197910000Y-135240000D01*
X154065000Y-135325000D02*
X153560000Y-134820000D01*
X139976650Y-135325000D02*
X135800133Y-135325000D01*
X173347273Y-134737273D02*
X159622727Y-134737273D01*
%TO.N,data*%
X207840000Y-124630000D02*
X208110000Y-124900000D01*
X207815000Y-124655000D02*
X207840000Y-124630000D01*
X115440000Y-124655000D02*
X207815000Y-124655000D01*
X105540000Y-126340000D02*
X105560000Y-126360000D01*
X105560000Y-126360000D02*
X113735000Y-126360000D01*
X208110000Y-138320000D02*
X206790000Y-139640000D01*
X208110000Y-124900000D02*
X208110000Y-138320000D01*
X113735000Y-126360000D02*
X115440000Y-124655000D01*
%TD*%
M02*
