M48
; DRILL file {KiCad 7.0.8} date 2024 November 17, Sunday 17:07:34
; FORMAT={-:-/ absolute / metric / decimal}
; #@! TF.CreationDate,2024-11-17T17:07:34+09:00
; #@! TF.GenerationSoftware,Kicad,Pcbnew,7.0.8
; #@! TF.FileFunction,NonPlated,1,2,NPTH
FMAT,2
METRIC
; #@! TA.AperFunction,NonPlated,NPTH,ComponentDrill
T1C1.200
; #@! TA.AperFunction,NonPlated,NPTH,ComponentDrill
T2C1.900
; #@! TA.AperFunction,NonPlated,NPTH,ComponentDrill
T3C3.000
; #@! TA.AperFunction,NonPlated,NPTH,ComponentDrill
T4C5.000
%
G90
G05
T1
X96.71Y-120.98
X103.71Y-120.98
T2
X100.36Y-89.46
X105.12Y-108.49
X111.36Y-89.46
X114.65Y-127.55
X114.65Y-146.59
X116.12Y-108.49
X119.405Y-89.44
X124.17Y-108.49
X125.65Y-127.55
X125.65Y-146.59
X130.405Y-89.44
X133.7Y-127.55
X135.17Y-108.49
X138.45Y-146.59
X138.455Y-89.44
X143.22Y-108.49
X144.7Y-127.55
X149.45Y-146.59
X149.455Y-89.44
X152.75Y-127.55
X154.22Y-108.49
X157.5Y-146.59
X157.505Y-89.44
X162.27Y-108.49
X163.75Y-127.55
X168.5Y-146.59
X168.505Y-89.44
X171.8Y-127.55
X173.27Y-108.49
X176.555Y-89.44
X182.8Y-127.55
X187.555Y-89.44
X188.47Y-108.5
X193.22Y-127.53
X195.605Y-89.44
X199.47Y-108.5
X204.22Y-127.53
X206.605Y-89.44
T3
X100.86Y-93.16
X105.62Y-112.19
X105.86Y-95.36
X110.62Y-114.39
X115.15Y-131.25
X115.15Y-150.29
X119.905Y-93.14
X120.15Y-133.45
X120.15Y-152.49
X124.67Y-112.19
X124.905Y-95.34
X129.67Y-114.39
X134.2Y-131.25
X138.95Y-150.29
X138.955Y-93.14
X139.2Y-133.45
X143.72Y-112.19
X143.95Y-152.49
X143.955Y-95.34
X148.72Y-114.39
X153.25Y-131.25
X158.0Y-150.29
X158.005Y-93.14
X158.25Y-133.45
X162.77Y-112.19
X163.0Y-152.49
X163.005Y-95.34
X167.77Y-114.39
X172.3Y-131.25
X177.055Y-93.14
X177.3Y-133.45
X182.055Y-95.34
X188.97Y-112.2
X193.72Y-131.23
X193.97Y-114.4
X196.105Y-93.14
X198.72Y-133.43
X201.105Y-95.34
T4
X105.86Y-89.46
X110.62Y-108.49
X120.15Y-127.55
X120.15Y-146.59
X124.905Y-89.44
X129.67Y-108.49
X139.2Y-127.55
X143.95Y-146.59
X143.955Y-89.44
X148.72Y-108.49
X158.25Y-127.55
X163.0Y-146.59
X163.005Y-89.44
X167.77Y-108.49
X177.3Y-127.55
X182.055Y-89.44
X193.97Y-108.5
X198.72Y-127.53
X201.105Y-89.44
T0
M30
