%TF.GenerationSoftware,KiCad,Pcbnew,7.0.8*%
%TF.CreationDate,2024-11-17T17:07:29+09:00*%
%TF.ProjectId,cool937r,636f6f6c-3933-4377-922e-6b696361645f,rev?*%
%TF.SameCoordinates,Original*%
%TF.FileFunction,Soldermask,Top*%
%TF.FilePolarity,Negative*%
%FSLAX46Y46*%
G04 Gerber Fmt 4.6, Leading zero omitted, Abs format (unit mm)*
G04 Created by KiCad (PCBNEW 7.0.8) date 2024-11-17 17:07:29*
%MOMM*%
%LPD*%
G01*
G04 APERTURE LIST*
%ADD10C,3.000000*%
%ADD11C,1.200000*%
%ADD12R,1.300000X0.950000*%
%ADD13O,1.000000X1.300000*%
%ADD14C,2.000000*%
%ADD15C,2.850000*%
%ADD16C,1.524000*%
%ADD17R,1.524000X1.524000*%
G04 APERTURE END LIST*
D10*
%TO.C,SW38*%
X158000000Y-150290000D03*
X163000000Y-152490000D03*
%TD*%
D11*
%TO.C,J1*%
X96710000Y-120980000D03*
X103710000Y-120980000D03*
%TD*%
D12*
%TO.C,D10*%
X205910000Y-97950000D03*
X209460000Y-97950000D03*
%TD*%
D10*
%TO.C,SW10*%
X196105000Y-93140000D03*
X201105000Y-95340000D03*
%TD*%
D12*
%TO.C,D19*%
X172575000Y-117030000D03*
X176125000Y-117030000D03*
%TD*%
%TO.C,D17*%
X134495000Y-117040000D03*
X138045000Y-117040000D03*
%TD*%
D10*
%TO.C,SW6*%
X119905000Y-93140000D03*
X124905000Y-95340000D03*
%TD*%
D12*
%TO.C,D20*%
X198775000Y-117050000D03*
X202325000Y-117050000D03*
%TD*%
D10*
%TO.C,SW9*%
X177055000Y-93140000D03*
X182055000Y-95340000D03*
%TD*%
D12*
%TO.C,D6*%
X118115000Y-98110000D03*
X121665000Y-98110000D03*
%TD*%
D13*
%TO.C,SW42*%
X208000000Y-81960000D03*
X208000000Y-84460000D03*
X208000000Y-86960000D03*
%TD*%
D10*
%TO.C,SW37*%
X138950000Y-150290000D03*
X143950000Y-152490000D03*
%TD*%
%TO.C,SW7*%
X138955000Y-93140000D03*
X143955000Y-95340000D03*
%TD*%
%TO.C,SW36*%
X115150000Y-150290000D03*
X120150000Y-152490000D03*
%TD*%
D12*
%TO.C,D26*%
X113215000Y-136050000D03*
X116765000Y-136050000D03*
%TD*%
D14*
%TO.C,SW41*%
X206910000Y-105270000D03*
X206910000Y-111770000D03*
%TD*%
D12*
%TO.C,D18*%
X153545000Y-117030000D03*
X157095000Y-117030000D03*
%TD*%
D10*
%TO.C,SW20*%
X188970000Y-112200000D03*
X193970000Y-114400000D03*
%TD*%
%TO.C,SW26*%
X115150000Y-131250000D03*
X120150000Y-133450000D03*
%TD*%
D12*
%TO.C,D35*%
X110815000Y-98020000D03*
X114365000Y-98020000D03*
%TD*%
D10*
%TO.C,SW19*%
X162770000Y-112190000D03*
X167770000Y-114390000D03*
%TD*%
D12*
%TO.C,D29*%
X182165000Y-136060000D03*
X185715000Y-136060000D03*
%TD*%
%TO.C,D38*%
X167885000Y-155190000D03*
X171435000Y-155190000D03*
%TD*%
%TO.C,D9*%
X186940000Y-98020000D03*
X190490000Y-98020000D03*
%TD*%
%TO.C,D8*%
X155145000Y-98060000D03*
X158695000Y-98060000D03*
%TD*%
%TO.C,D27*%
X143540000Y-136010000D03*
X147090000Y-136010000D03*
%TD*%
D10*
%TO.C,SW27*%
X134200000Y-131250000D03*
X139200000Y-133450000D03*
%TD*%
D12*
%TO.C,D36*%
X125115000Y-155000000D03*
X128665000Y-155000000D03*
%TD*%
D10*
%TO.C,SW16*%
X105620000Y-112190000D03*
X110620000Y-114390000D03*
%TD*%
D12*
%TO.C,D16*%
X115425000Y-117010000D03*
X118975000Y-117010000D03*
%TD*%
%TO.C,D37*%
X148825000Y-155190000D03*
X152375000Y-155190000D03*
%TD*%
%TO.C,D30*%
X203585000Y-136130000D03*
X207135000Y-136130000D03*
%TD*%
D10*
%TO.C,SW29*%
X172300000Y-131250000D03*
X177300000Y-133450000D03*
%TD*%
%TO.C,SW8*%
X158005000Y-93140000D03*
X163005000Y-95340000D03*
%TD*%
%TO.C,SW30*%
X193720000Y-131230000D03*
X198720000Y-133430000D03*
%TD*%
%TO.C,SW35*%
X100860000Y-93160000D03*
X105860000Y-95360000D03*
%TD*%
%TO.C,SW18*%
X143720000Y-112190000D03*
X148720000Y-114390000D03*
%TD*%
D12*
%TO.C,D28*%
X149805000Y-136120000D03*
X153355000Y-136120000D03*
%TD*%
D10*
%TO.C,SW28*%
X153250000Y-131250000D03*
X158250000Y-133450000D03*
%TD*%
D12*
%TO.C,D7*%
X148840000Y-98080000D03*
X152390000Y-98080000D03*
%TD*%
D10*
%TO.C,SW17*%
X124670000Y-112190000D03*
X129670000Y-114390000D03*
%TD*%
D15*
%TO.C,BT1*%
X103830000Y-132460000D03*
X103830000Y-149360000D03*
%TD*%
D16*
%TO.C,U2*%
X206790000Y-139640000D03*
X204250000Y-139640000D03*
X201710000Y-139640000D03*
X199170000Y-139640000D03*
X196630000Y-139640000D03*
X194090000Y-139640000D03*
X191550000Y-139640000D03*
X189010000Y-139640000D03*
X186470000Y-139640000D03*
X183930000Y-139640000D03*
X181390000Y-139640000D03*
X178850000Y-139640000D03*
X178850000Y-154860000D03*
X181390000Y-154860000D03*
X183930000Y-154860000D03*
X186470000Y-154860000D03*
X189010000Y-154860000D03*
X191550000Y-154860000D03*
X194090000Y-154860000D03*
X196630000Y-154860000D03*
X199170000Y-154860000D03*
X201710000Y-154860000D03*
X204250000Y-154860000D03*
X206790000Y-154860000D03*
D17*
X209330000Y-154860000D03*
D16*
X209330000Y-139640000D03*
%TD*%
M02*
